<?xml version="1.0" encoding="utf-8"?>
<!-- Generator: Adobe Illustrator 24.0.0, SVG Export Plug-In . SVG Version: 6.00 Build 0)  -->
<svg version="1.1" id="レイヤー_1" xmlns="http://www.w3.org/2000/svg" xmlns:xlink="http://www.w3.org/1999/xlink" x="0px"
	 y="0px" viewBox="0 0 500 93.5" style="enable-background:new 0 0 500 93.5;" xml:space="preserve">
<style type="text/css">
	.st0{enable-background:new    ;}
</style>
<g>
	<path d="M40.6,65.6h-4.9L31.2,52H16.6l-4.4,13.6H7.5l13.9-42.1h5.3L40.6,65.6z M30.3,48.3l-4.1-12.5c-0.9-2.9-1.6-5.5-2.2-8h-0.2
		c-0.6,2.5-1.3,5.2-2.1,7.8l-4.2,12.6L30.3,48.3L30.3,48.3z"/>
	<path d="M63.6,39.4c-0.5-0.1-1-0.1-1.7-0.1c-5,0-7.5,4.9-7.5,10v16.3h-4.6V44.5c0-3.2-0.1-6.1-0.2-9h4l0.2,5.8H54
		c1.3-3.8,4.5-6.5,8.2-6.5c0.5,0,0.9,0.1,1.4,0.2C63.6,35,63.6,39.4,63.6,39.4z"/>
	<path d="M92.6,64.5c-1.3,0.7-4.3,1.7-8.2,1.7c-8.6,0-14.3-6.1-14.3-15.3c0-9.3,6.1-16.1,15.4-16.1c3.4,0,6.1,1,7.2,1.6l-1.2,3.7
		c-1.3-0.7-3.3-1.5-6.2-1.5c-7,0-10.6,5.6-10.6,12c0,7.3,4.4,11.9,10.4,11.9c3,0,5-0.8,6.5-1.5L92.6,64.5z"/>
	<path d="M126.3,65.6h-4.6V47.8c0-4.9-1.8-9.2-7-9.2c-3.5,0-7.9,2.9-7.9,8.4v18.5h-4.6V21.4h4.6v18.7h0.1c2-3.3,5.6-5.4,9.3-5.4
		c3.7,0,10,2.3,10,12.5L126.3,65.6L126.3,65.6z"/>
	<path d="M156.5,64.3c-1.7,0.8-4.9,1.9-9.4,1.9c-8.8,0-14-6.2-14-15.2c0-9.4,5.3-16.2,13.4-16.2c9.3,0,11.6,8.5,11.6,13.7
		c0,1-0.1,1.8-0.1,2.5h-20.5c0.1,8.3,4.8,11.5,10.2,11.5c3.8,0,6-0.8,7.9-1.5L156.5,64.3z M153.6,47.6c0.1-4.1-1.7-9.4-7.6-9.4
		c-5.5,0-7.9,5.2-8.4,9.4H153.6z"/>
	<path d="M165.6,47h15.1v3.5h-15.1V47z"/>
	<path d="M211.9,27.4h-12.4v38.1h-4.6V27.4h-12.4v-3.9h29.4V27.4L211.9,27.4z"/>
	<path d="M236.5,64.3c-1.7,0.8-4.9,1.9-9.4,1.9c-8.8,0-14-6.2-14-15.2c0-9.4,5.3-16.2,13.4-16.2c9.3,0,11.6,8.5,11.6,13.7
		c0,1-0.1,1.8-0.1,2.5h-20.5c0.1,8.3,4.8,11.5,10.2,11.5c3.8,0,6-0.8,7.9-1.5L236.5,64.3z M233.6,47.6c0.1-4.1-1.7-9.4-7.6-9.4
		c-5.5,0-7.9,5.2-8.4,9.4H233.6z"/>
	<path d="M267.5,64.5c-1.3,0.7-4.3,1.7-8.2,1.7c-8.6,0-14.3-6.1-14.3-15.3c0-9.3,6.1-16.1,15.4-16.1c3.4,0,6.1,1,7.2,1.6l-1.2,3.7
		c-1.3-0.7-3.3-1.5-6.2-1.5c-7,0-10.6,5.6-10.6,12c0,7.3,4.4,11.9,10.4,11.9c3,0,5-0.8,6.5-1.5L267.5,64.5z"/>
	<path d="M277.3,30l4.5-1.5v7h7.8v3.6h-7.8v17.4c0,3.8,1.2,5.9,4.1,5.9c1.4,0,2.3-0.2,3.1-0.4l0.3,3.5c-1,0.4-2.5,0.7-4.5,0.7
		c-7.3,0-7.5-6.6-7.5-9.8V39.1h-4.6v-3.6h4.6V30L277.3,30z"/>
	<path d="M323.4,50.3c0,11.2-7.4,16-14.1,16c-7.7,0-13.7-5.8-13.7-15.5c0-10.3,6.4-16,14.1-16C317.9,34.8,323.4,41.1,323.4,50.3z
		 M309.5,38.4c-6.5,0-9.2,6.4-9.2,12.2c0,6.7,3.7,12.1,9.1,12.1c5.5,0,9.3-5.4,9.3-12.2C318.7,45.1,316.1,38.4,309.5,38.4z"/>
	<path d="M354.4,65.6h-4.6V47.8c0-4.9-1.8-9.2-7-9.2c-3.9,0-7.9,3.3-7.9,8.6v18.4h-4.6V43.2c0-3.1-0.1-5.4-0.2-7.8h4.1l0.3,4.9h0.1
		c1.5-2.9,5-5.6,9.7-5.6c3.8,0,10.2,2.3,10.2,12.5L354.4,65.6L354.4,65.6z"/>
</g>
<g class="st0">
	<path d="M374.3,64.4V38h-0.1l-4.8,2.8l-0.8-2.4l6.1-3.4h2.8v29.5H374.3z"/>
	<path d="M402.6,50.5c-1.6,2-3.9,3.3-6.8,3.3c-5,0-8.2-3.9-8.2-8.9c0-5.4,3.5-10.4,9.3-10.4c5.5,0,9,4.8,9,12.3
		c0,9.8-5,16.6-12.5,17.8c-1.4,0.2-2.6,0.3-3.5,0.3v-2.7c0.8,0.1,1.8,0,3-0.2c5-0.7,8.7-4.7,9.7-11.5H402.6z M391,44.6
		c0,4,2.2,6.7,5.6,6.7c3.2,0,6.1-2.4,6.1-4.8c0-5.7-2.1-9.5-6-9.5C393.3,37,391,40.2,391,44.6z"/>
	<path d="M417.8,64.4V38h-0.1l-4.8,2.8l-0.8-2.4l6.1-3.4h2.8v29.5H417.8z"/>
	<path d="M448.7,64.4h-17.5v-2l2.9-3c7-7.1,10.6-11.4,10.6-16.2c0-3.2-1.4-6.1-5.6-6.1c-2.4,0-4.5,1.3-5.9,2.4l-1.1-2.3
		c1.8-1.6,4.5-2.9,7.6-2.9c6,0,8.3,4.3,8.3,8.4c0,5.6-3.9,10.3-10,16.4l-2.3,2.4v0.1h13V64.4z"/>
	<path d="M452.6,49.8c0-10.3,4-15.3,9.5-15.3c5.6,0,9,5.3,9,14.9c0,10.2-3.6,15.5-9.5,15.5C456.3,64.9,452.6,59.6,452.6,49.8z
		 M467.8,49.5c0-7.4-1.8-12.5-5.9-12.5c-3.5,0-6,4.7-6,12.5s2.2,12.7,5.9,12.7C466.2,62.2,467.8,56.6,467.8,49.5z"/>
	<path d="M475.2,34.9h17.3V37l-12.3,27.4h-3.4l12.3-26.7v-0.1h-14V34.9z"/>
</g>
</svg>
