<?xml version="1.0" encoding="utf-8"?>
<!-- Generator: Adobe Illustrator 24.0.0, SVG Export Plug-In . SVG Version: 6.00 Build 0)  -->
<svg version="1.1" id="レイヤー_1" xmlns="http://www.w3.org/2000/svg" xmlns:xlink="http://www.w3.org/1999/xlink" x="0px"
	 y="0px" viewBox="0 0 500 93.5" style="enable-background:new 0 0 500 93.5;" xml:space="preserve">
<style type="text/css">
	.st0{enable-background:new    ;}
</style>
<g>
	<path d="M294.7-226.3c6.5,0,12,2.4,16.3,7.1c3.9,4.3,5.9,9.4,5.9,15.4c0,5.9-2.1,11.1-6.2,15.6s-9.5,6.7-15.9,6.7
		c-6.5,0-11.9-2.2-16-6.7c-4.1-4.4-6.2-9.6-6.2-15.6c0-5.9,2-11,5.9-15.3C282.7-223.9,288.1-226.3,294.7-226.3z M294.7-221
		c-4.5,0-8.5,1.7-11.7,5c-3.3,3.4-4.9,7.4-4.9,12.2c0,3.1,0.7,5.9,2.2,8.6c1.5,2.7,3.5,4.7,6,6.2c2.5,1.4,5.3,2.2,8.4,2.2
		c3,0,5.8-0.7,8.4-2.2c2.5-1.4,4.5-3.5,6-6.2s2.2-5.5,2.2-8.6c0-4.8-1.6-8.8-4.9-12.2C303.1-219.3,299.2-221,294.7-221z"/>
	<path d="M322.3-225.2h5.5v7.8c2.2-3,4.6-5.2,7.5-6.7c2.8-1.5,5.9-2.2,9.4-2.2c6,0,11.2,2.2,15.5,6.5c4.3,4.4,6.4,9.6,6.4,15.7
		c0,6.2-2.1,11.6-6.4,15.9s-9.4,6.5-15.4,6.5c-3.4,0-6.5-0.7-9.3-2.1c-2.8-1.4-5.4-3.5-7.7-6.3v22.9h-5.5V-225.2L322.3-225.2
		L322.3-225.2z M344.1-221.1c-4.7,0-8.7,1.7-11.9,5c-3.2,3.3-4.9,7.4-4.9,12.3c0,3.2,0.7,6.1,2.2,8.7c1.4,2.6,3.5,4.6,6.2,6.1
		s5.5,2.3,8.5,2.3c2.9,0,5.7-0.8,8.3-2.3c2.6-1.5,4.6-3.6,6.2-6.4c1.5-2.7,2.3-5.6,2.3-8.6s-0.8-5.9-2.3-8.6
		c-1.5-2.7-3.6-4.8-6.1-6.3C350-220.3,347.2-221.1,344.1-221.1z"/>
	<path d="M375.1-241h5.5v15.8h8.7v4.7h-8.7v37.8h-5.5v-37.8h-7.5v-4.7h7.5V-241z"/>
	<path d="M397.8-242.7c1.2,0,2.3,0.4,3.2,1.3c0.9,0.9,1.3,2,1.3,3.2s-0.4,2.3-1.3,3.2s-1.9,1.3-3.2,1.3c-1.2,0-2.3-0.4-3.1-1.3
		c-0.9-0.9-1.3-1.9-1.3-3.2c0-1.2,0.4-2.3,1.3-3.2C395.5-242.3,396.5-242.7,397.8-242.7z M395-225.2h5.5v42.5H395V-225.2z"/>
	<path d="M411.8-225.2h5.5v7.3c1.9-2.7,3.9-4.7,5.9-5.9c2.8-1.7,5.7-2.5,8.7-2.5c2.1,0,4,0.4,5.9,1.2s3.4,1.9,4.5,3.2
		c1.2,1.3,2.2,3.3,3.1,5.8c1.8-3.3,4.1-5.9,6.8-7.6c2.7-1.7,5.7-2.6,8.8-2.6c2.9,0,5.5,0.7,7.8,2.2c2.2,1.5,3.9,3.6,5,6.2
		s1.6,6.6,1.6,12v23.2h-5.6v-23.2c0-4.6-0.3-7.7-1-9.4c-0.6-1.7-1.8-3.1-3.3-4.1c-1.6-1-3.4-1.6-5.6-1.6c-2.6,0-5.1,0.8-7.3,2.3
		c-2.2,1.6-3.8,3.6-4.8,6.2c-1,2.6-1.5,7-1.5,13v16.6h-5.5v-21.8c0-5.1-0.3-8.6-1-10.4c-0.6-1.8-1.8-3.3-3.3-4.4
		c-1.6-1.1-3.5-1.7-5.7-1.7c-2.5,0-4.9,0.8-7.1,2.3s-3.8,3.6-4.9,6.2c-1.1,2.6-1.6,6.5-1.6,11.8v18h-5.5L411.8-225.2L411.8-225.2
		L411.8-225.2z"/>
	<path d="M526.1-225.2v42.5h-5.4v-7.3c-2.3,2.8-4.9,4.9-7.7,6.3c-2.9,1.4-6,2.1-9.4,2.1c-6,0-11.2-2.2-15.4-6.5
		c-4.3-4.4-6.4-9.7-6.4-15.9c0-6.1,2.1-11.4,6.4-15.7s9.5-6.5,15.5-6.5c3.5,0,6.6,0.7,9.5,2.2c2.8,1.5,5.3,3.7,7.4,6.7v-7.8
		L526.1-225.2L526.1-225.2z M504.2-221.1c-3,0-5.9,0.7-8.4,2.2c-2.6,1.5-4.6,3.6-6.1,6.3s-2.3,5.6-2.3,8.6s0.8,5.9,2.3,8.6
		c1.5,2.7,3.6,4.9,6.2,6.4s5.4,2.3,8.3,2.3c3,0,5.8-0.8,8.5-2.3s4.7-3.6,6.2-6.1c1.4-2.6,2.2-5.5,2.2-8.7c0-4.9-1.6-9-4.9-12.3
		C512.9-219.4,508.9-221.1,504.2-221.1z"/>
	<path d="M534.3-241.6h5.5v58.9h-5.5V-241.6z"/>
	<path d="M588.8-241.6h1.2v40.1h7v5.5h-7v13.4h-5.7V-196h-27.5L588.8-241.6z M584.2-201.6v-24.1l-17,24.1H584.2z"/>
	<path d="M601.6-211.4c0-7.6,0.8-13.4,2.4-17.6c1.6-4.1,3.9-7.3,6.9-9.4c3-2.1,6.3-3.2,10-3.2s7.1,1.1,10.1,3.2
		c3,2.1,5.4,5.4,7.2,9.7s2.6,10.1,2.6,17.3s-0.9,13-2.6,17.2c-1.7,4.3-4.1,7.5-7.2,9.7c-3,2.2-6.4,3.3-10.2,3.3
		c-3.7,0-7-1.1-9.9-3.2c-2.9-2.1-5.2-5.3-6.9-9.4C602.4-198.1,601.6-203.9,601.6-211.4z M607-211.4c0,6.5,0.6,11.4,1.7,14.7
		c1.2,3.3,2.9,5.8,5.1,7.6c2.3,1.7,4.7,2.6,7.2,2.6c2.6,0,4.9-0.8,7.1-2.5c2.2-1.7,3.9-4.2,5-7.6c1.4-4.1,2.1-9,2.1-14.8
		s-0.6-10.5-1.9-14.2c-1.3-3.7-3-6.4-5.3-8.1c-2.3-1.7-4.6-2.6-7.1-2.6c-2.6,0-4.9,0.9-7.2,2.6c-2.2,1.7-3.9,4.2-5.1,7.5
		C607.6-222.8,607-217.9,607-211.4z"/>
	<path d="M677.4-241.6h1.2v40.1h7v5.5h-7v13.4h-5.7V-196h-27.5L677.4-241.6z M672.9-201.6v-24.1l-17,24.1H672.9z"/>
</g>
<g>
	<path d="M3.6-148.3h-7.1l-17.9-27.5l-5.1,6v21.5h-6v-54.9h6v26.8h0.3c1.4-2.1,2.9-4.1,4.2-5.9l16.7-20.9H2l-19.3,23.3L3.6-148.3z"
		/>
	<path d="M47-170.4c0,16.5-8.5,22.9-19.4,22.9c-10.2,0-18.4-6-18.4-22.5v-33.1h6v33.2c0,12.5,5.5,17.5,12.7,17.5
		c7.9,0,13.2-5.3,13.2-17.5v-33.2h6L47-170.4L47-170.4z"/>
	<path d="M59.2-203.2h6v54.9h-6C59.2-148.3,59.2-203.2,59.2-203.2z"/>
	<path d="M102-196.4c-1.6-1-5-2.5-9.6-2.5c-7.6,0-10.5,4.7-10.5,8.6c0,5.4,3.3,8.1,10.7,11.2c8.9,3.7,13.4,8.3,13.4,16.1
		c0,8.7-6.3,15.4-18.1,15.4c-5,0-10.4-1.5-13.1-3.5l1.7-5c3,1.9,7.3,3.4,11.8,3.4c7.3,0,11.7-4,11.7-9.9c0-5.4-3-8.7-10.1-11.6
		c-8.3-3.1-13.9-7.9-13.9-15.5c0-8.4,6.8-14.5,16.8-14.5c5.2,0,9.1,1.3,11.2,2.6L102-196.4z"/>
</g>
<g>
	<path d="M795.2-350.5c4.2,1.4,6.8,5.5,8.1,11.4c1.7,7.9,3,12.7,4,14.8h-6.2c-0.9-1.6-2.1-6.4-3.5-13.2c-1.6-7.6-4.6-11-11.1-11
		h-6.7v24.3h-6v-54.1c3.4-0.7,8.1-1.2,12.5-1.2c7.1,0,11.8,1.4,15,4.5c2.6,2.4,4.1,6.1,4.1,10.2c0,7.3-4.4,12-10.2,14L795.2-350.5
		L795.2-350.5z M786.8-353.1c7.6,0,12.5-4.3,12.5-10.9c0-8.1-6.1-10.7-12.8-10.7c-3.2,0-5.5,0.3-6.8,0.6v21H786.8L786.8-353.1z"/>
	<path d="M842.8-325.9c-2.2,1.1-6.3,2.4-12.3,2.4c-11.4,0-18.3-8.1-18.3-19.8c0-12.3,6.9-21.2,17.5-21.2c12.1,0,15.2,11.1,15.2,17.9
		c0,1.4-0.1,2.4-0.1,3.3h-26.7c0.1,10.9,6.3,15,13.3,15c4.9,0,7.8-1,10.3-2L842.8-325.9z M839-347.6c0.1-5.3-2.2-12.2-9.9-12.2
		c-7.2,0-10.4,6.8-10.9,12.2H839z"/>
	<path d="M852.2-327.9c0-2.7,1.8-4.7,4.3-4.7s4.2,1.9,4.2,4.7c0,2.6-1.7,4.5-4.3,4.5C853.7-323.3,852.2-325.5,852.2-327.9z"/>
	<path d="M872.5-370.4c-2.3,0-3.9-1.8-3.9-4.1c0-2.2,1.7-4,4-4c2.4,0,3.9,1.8,3.9,4C876.4-371.9,874.8-370.4,872.5-370.4z
		 M875.5-324.2h-6v-39.2h6V-324.2z"/>
	<path d="M918.8-324.2h-6v-23.2c0-6.4-2.3-12-9.1-12c-5.1,0-10.3,4.3-10.3,11.2v24h-6v-29.2c0-4-0.1-7-0.3-10.2h5.3l0.4,6.4h0.1
		c1.9-3.8,6.5-7.3,12.6-7.3c4.9,0,13.2,3,13.2,16.3L918.8-324.2L918.8-324.2z"/>
	<path d="M948.7-357.5c-1.4-0.9-4.1-2.3-7.6-2.3c-4.3,0-6.6,2.7-6.6,5.8c0,3.4,2.2,5,7.3,7.1c6.3,2.6,10,5.9,10,11.8
		c0,7-5.3,11.6-13.9,11.6c-3.9,0-7.6-1.1-10.3-2.7l1.7-4.6c2.1,1.2,5.5,2.7,8.9,2.7c5.3,0,7.8-2.8,7.8-6.3c0-3.7-2.1-5.7-7.3-7.8
		c-6.6-2.7-10-6.3-10-11.1c0-6.1,4.9-11.2,12.8-11.2c3.7,0,6.9,1.1,9,2.4L948.7-357.5z"/>
	<path d="M962.5-370.6l5.9-2v9.1h10.2v4.7h-10.2v22.7c0,5,1.5,7.7,5.3,7.7c1.8,0,3-0.2,4-0.6l0.4,4.6c-1.3,0.6-3.3,0.9-5.8,0.9
		c-9.5,0-9.8-8.6-9.8-12.8v-22.5h-6v-4.7h6L962.5-370.6L962.5-370.6z"/>
	<path d="M1012.1-333.6c0,3.2,0.1,6.6,0.6,9.4h-5.5l-0.6-5h-0.2c-2,3.1-6,5.9-11.6,5.9c-7.5,0-11.4-5.5-11.4-11.2
		c0-9.4,8.2-14.5,22.8-14.5c0-3.3,0-10.8-8.9-10.8c-3.4,0-6.9,0.9-9.6,2.8l-1.4-4.1c3.2-2.1,7.6-3.3,12-3.3c11.1,0,14,7.8,14,15.6
		v15.2H1012.1z M1006.2-344.6c-7.4,0-16.7,1.1-16.7,9.4c0,5,3.2,7.3,6.8,7.3c5.8,0,9.9-4.5,9.9-9.2V-344.6L1006.2-344.6z"/>
	<path d="M1055.5-363.5c-0.2,2.8-0.4,6-0.4,10.8v22.9c0,6.8-0.1,22.5-18.7,22.5c-4.5,0-9.4-1.1-12.3-3.1l1.6-4.7c2.5,1.5,6.3,3,11,3
		c7.2,0,12.5-3.8,12.5-14.2v-4.7h-0.1c-2,3.7-6.2,6.7-12.2,6.7c-9.4,0-16.1-8.3-16.1-19.3c0-13.6,8.5-20.8,17-20.8
		c6.7,0,10.2,3.6,11.9,6.8h0.1l0.3-5.9L1055.5-363.5L1055.5-363.5z M1049.1-348.4c0-6.8-5-11.2-10.4-11.2c-6.9,0-11.7,6.1-11.7,15.6
		c0,8.4,4,14.9,11.7,14.9c4.5,0,10.5-3.4,10.5-11.5L1049.1-348.4L1049.1-348.4z"/>
	<path d="M1084.9-358.4c-0.6-0.1-1.3-0.1-2.2-0.1c-6.5,0-9.8,6.4-9.8,13v21.3h-6v-27.5c0-4.2-0.1-8-0.3-11.7h5.3l0.3,7.6h0.2
		c1.7-4.9,5.8-8.4,10.7-8.4c0.6,0,1.2,0.1,1.8,0.2V-358.4L1084.9-358.4z"/>
	<path d="M1117.6-333.6c0,3.2,0.1,6.6,0.6,9.4h-5.5l-0.6-5h-0.2c-2,3.1-6,5.9-11.6,5.9c-7.5,0-11.4-5.5-11.4-11.2
		c0-9.4,8.2-14.5,22.8-14.5c0-3.3,0-10.8-8.9-10.8c-3.4,0-6.9,0.9-9.6,2.8l-1.4-4.1c3.2-2.1,7.6-3.3,12-3.3c11.1,0,14,7.8,14,15.6
		L1117.6-333.6L1117.6-333.6z M1111.7-344.6c-7.4,0-16.7,1.1-16.7,9.4c0,5,3.2,7.3,6.8,7.3c5.8,0,9.9-4.5,9.9-9.2L1111.7-344.6
		L1111.7-344.6z"/>
	<path d="M1182.5-324.2h-5.9v-22.7c0-7.6-2.7-12.5-8.6-12.5c-4.8,0-9.2,4.5-9.2,10.5v24.7h-5.9v-24.2c0-6.3-2.7-11-8.2-11
		c-5.1,0-9.6,5-9.6,11.2v24h-5.9v-29.2c0-4-0.1-6.9-0.3-10.2h5.3l0.4,6.3h0.2c2.2-3.8,5.8-7.2,12-7.2c5.1,0,9.1,3.2,10.7,7.8h0.1
		c2.6-4.7,6.6-7.8,12.6-7.8c4.8,0,12.5,3.1,12.5,16.6L1182.5-324.2L1182.5-324.2z"/>
</g>
<g>
	<path d="M-384,256.2c0,16.5-8.5,22.9-19.4,22.9c-10.2,0-18.4-6-18.4-22.5v-33.1h6v33.2c0,12.5,5.5,17.5,12.7,17.5
		c7.9,0,13.2-5.3,13.2-17.5v-33.2h6L-384,256.2L-384,256.2z"/>
	<path d="M-340.6,278.3h-6v-23.2c0-6.4-2.3-12-9.1-12c-5.1,0-10.3,4.3-10.3,11.2v24.1h-6v-29.2c0-4-0.1-7-0.3-10.2h5.3l0.4,6.4h0.1
		c1.9-3.8,6.5-7.3,12.6-7.3c4.9,0,13.2,3,13.2,16.3L-340.6,278.3L-340.6,278.3z"/>
	<path d="M-268.1,250.3c0,19.3-10.8,28.8-23.8,28.8c-13.6,0-23.3-10.7-23.3-27.9c0-17.9,10.2-28.7,23.9-28.7
		C-277.2,222.5-268.1,233.8-268.1,250.3z M-308.9,251.1c0,11.7,6,23,17.2,23c11.3,0,17.3-11,17.3-23.5c0-11-5.4-23.1-17.1-23.1
		C-303.6,227.5-308.9,239.5-308.9,251.1z"/>
	<path d="M-253.3,278.3h-6v-57.6h6L-253.3,278.3L-253.3,278.3z"/>
	<path d="M-209.7,268.5c0,3.2,0.1,7.1,0.3,9.7h-5.3l-0.3-6.7h-0.2c-2,4.1-6.5,7.6-12.8,7.6c-9.1,0-16.1-7.8-16.1-19.9
		c0-13.2,7.8-21,16.9-21c5.8,0,9.6,2.8,11.4,6h0.1v-23.5h6L-209.7,268.5L-209.7,268.5z M-215.7,254.7c0-7.8-5.5-11.7-10.6-11.7
		c-7.4,0-11.8,6.9-11.8,15.9c0,8.3,3.9,15.3,11.6,15.3c6.5,0,10.8-5.7,10.8-12V254.7L-215.7,254.7z"/>
	<path d="M-164.3,260.8c0,14-6.7,18.3-15.5,18.3c-2.4,0-5.3-0.5-6.8-1.2l0.9-4.9c1.4,0.5,3.3,0.9,5.5,0.9c6.3,0,9.9-2.8,9.9-13.7
		v-36.9h6L-164.3,260.8L-164.3,260.8z"/>
	<path d="M-119.5,258.3c0,14.6-9.6,20.8-18.4,20.8c-10.1,0-17.9-7.6-17.9-20.2c0-13.4,8.4-20.8,18.4-20.8
		C-126.7,238.1-119.5,246.3-119.5,258.3z M-137.6,242.8c-8.5,0-12,8.4-12,15.9c0,8.7,4.8,15.8,11.9,15.8c7.1,0,12.1-7.1,12.1-15.9
		C-125.7,251.6-129,242.8-137.6,242.8z"/>
	<path d="M-80,278.3h-7.3l-13.5-19.4l-3.6,4.1v15.3h-6v-57.6h6v36.7h0.1c0.9-1.4,2.3-3.1,3.4-4.4l11.7-13.9h7.2l-14.8,16.2
		L-80,278.3z"/>
	<path d="M-46.9,276.6c-2.2,1.1-6.3,2.4-12.3,2.4c-11.4,0-18.3-8.1-18.3-19.8c0-12.3,6.9-21.2,17.5-21.2c12.1,0,15.2,11.1,15.2,17.9
		c0,1.4-0.1,2.4-0.1,3.3h-26.7c0.1,10.9,6.3,15,13.3,15c4.9,0,7.8-1,10.3-2L-46.9,276.6z M-50.7,254.9c0.1-5.3-2.2-12.2-9.9-12.2
		c-7.2,0-10.4,6.8-10.9,12.2H-50.7z"/>
</g>
<text transform="matrix(1 0 0 1 209.7249 -58.8438)" style="font-family:'KozGoPr6N-Regular-83pv-RKSJ-H'; font-size:72px;">Un Old Joke</text>
<g class="st0">
	<path d="M150.3,41.5c-0.1,0.2-0.4,0.4-0.7,0.5c-4.2,15.6-12.9,23.2-28.3,27.5c-0.5-0.9-1.4-2.2-2.2-3c14-3.5,22.8-10.7,26-22.7H111
		v-3.5h35.7l0.5-0.3L150.3,41.5z M145.4,30.5H116v-3.4h29.4V30.5z"/>
	<path d="M159.6,28.9c5.4,1.7,11.6,4.4,15.4,7l-2,3.3c-3.7-2.6-9.8-5.4-15.1-7.2L159.6,28.9z M159.4,64.7
		c18.3-5.7,30.5-15.9,36.7-30.2c1.1,0.9,2.3,1.5,3.4,2.1c-6.5,14.1-19,25.1-36.5,31c-0.1,0.5-0.4,1-0.7,1.2L159.4,64.7z"/>
	<path d="M236.4,52.3c-5.3-2.8-12.5-6.2-18.1-8.4v25.8h-3.9V24.8l5.2,0.3c-0.1,0.6-0.5,0.9-1.3,1.1v15.2l0.8-1.1
		c6,2.2,14,5.8,19.4,8.6L236.4,52.3z M231,28c2.4,2,5.5,5.2,7.1,7.6l-2,1.6c-1.5-2.2-4.7-5.7-7-7.5L231,28z M237.9,23.5
		c2.4,2,5.5,5.3,7.1,7.5l-1.9,1.6c-1.6-2.2-4.7-5.6-7.1-7.5L237.9,23.5z"/>
	<path d="M294.5,33.2c-0.2,0.3-0.4,0.4-0.8,0.5c-4.8,7.3-12.9,15-20.9,20.7c4,3.2,7.9,7.2,10.6,10.1l-3.1,2.7
		c-5.4-6.3-15.6-14.9-24.3-20l2.5-2.6c3.7,2.1,7.8,4.8,11.5,7.6c7-5,14-11.6,18.1-17.6h-37.9v-3.5h40.6l0.6-0.3L294.5,33.2z"/>
	<path d="M301.7,44.5h43.1v3.7h-41.1c-0.3,0.5-1,0.9-1.7,1L301.7,44.5z"/>
	<path d="M389,34.6c-0.2,0.3-0.5,0.5-0.8,0.7C382.8,52,374.3,62.8,360.1,70c-0.6-0.9-1.6-2.1-2.6-2.8c13.5-6.6,21.9-16.9,26.2-30.6
		h-18.4c-3,4.6-7,9.1-11.6,12.7c-0.7-0.7-1.9-1.7-2.9-2.4c7-5.4,13-13.3,16.5-22.4l4.9,1.4c-0.2,0.5-0.8,0.7-1.5,0.7
		c-1,2.3-2.1,4.4-3.3,6.5h18.2l0.6-0.3L389,34.6z"/>
</g>
<g>
	<path d="M-462.9-88.3h-16.2v49.8h-6v-49.8h-16.1v-5h38.3L-462.9-88.3L-462.9-88.3z"/>
	<path d="M-454.1-84.7c-2.3,0-3.9-1.8-3.9-4.1c0-2.2,1.7-4,4-4c2.4,0,3.9,1.8,3.9,4C-450.2-86.2-451.8-84.7-454.1-84.7z
		 M-451.1-38.5h-6v-39.2h6V-38.5z"/>
	<path d="M-412.7-39.9c-1.7,0.9-5.6,2.2-10.7,2.2c-11.2,0-18.6-8-18.6-20c0-12.1,8-21,20.1-21c4.4,0,7.9,1.3,9.4,2.1l-1.5,4.8
		c-1.7-0.9-4.2-2-8.1-2c-9.1,0-13.8,7.3-13.8,15.7c0,9.5,5.7,15.5,13.6,15.5c3.9,0,6.6-1.1,8.5-1.9L-412.7-39.9z"/>
	<path d="M-373.9-38.5h-7.3l-13.5-19.4l-3.6,4.1v15.3h-6v-57.6h6v36.7h0.1c0.9-1.4,2.3-3.1,3.4-4.4l11.7-13.9h7.2l-14.8,16.2
		L-373.9-38.5z"/>
	<path d="M-340.8-40.2c-2.2,1.1-6.3,2.4-12.3,2.4c-11.4,0-18.3-8.1-18.3-19.8c0-12.3,6.9-21.2,17.5-21.2c12.1,0,15.2,11.1,15.2,17.9
		c0,1.4-0.1,2.4-0.1,3.3h-26.7c0.1,10.9,6.3,15,13.3,15c4.9,0,7.8-1,10.3-2L-340.8-40.2z M-344.6-61.9c0.1-5.3-2.2-12.2-9.9-12.2
		c-7.2,0-10.4,6.8-10.9,12.2C-365.4-61.9-344.6-61.9-344.6-61.9z"/>
	<path d="M-328.2-84.9l5.9-2v9.1h10.2v4.7h-10.2v22.7c0,5,1.5,7.7,5.3,7.7c1.8,0,3-0.2,4-0.6l0.4,4.6c-1.3,0.6-3.3,0.9-5.8,0.9
		c-9.5,0-9.8-8.6-9.8-12.8v-22.5h-6v-4.7h6V-84.9L-328.2-84.9z"/>
	<path d="M-255.9-48.2c0,3.2,0.1,7.1,0.3,9.7h-5.3l-0.3-6.7h-0.2c-2,4.1-6.5,7.6-12.8,7.6c-9.1,0-16.1-7.8-16.1-19.9
		c0-13.2,7.8-21,16.9-21c5.8,0,9.6,2.8,11.4,6h0.1V-96h6V-48.2L-255.9-48.2z M-261.8-62c0-7.8-5.5-11.7-10.6-11.7
		c-7.4,0-11.8,6.9-11.8,15.9c0,8.3,3.9,15.3,11.6,15.3c6.5,0,10.8-5.7,10.8-12V-62z"/>
	<path d="M-216.3-40.2c-2.2,1.1-6.3,2.4-12.3,2.4c-11.4,0-18.3-8.1-18.3-19.8c0-12.3,6.9-21.2,17.5-21.2c12.1,0,15.2,11.1,15.2,17.9
		c0,1.4-0.1,2.4-0.1,3.3H-241c0.1,10.9,6.3,15,13.3,15c4.9,0,7.8-1,10.3-2L-216.3-40.2z M-220.1-61.9c0.1-5.3-2.2-12.2-9.9-12.2
		c-7.2,0-10.4,6.8-10.9,12.2C-240.9-61.9-220.1-61.9-220.1-61.9z"/>
	<path d="M-186.9-71.8c-1.4-0.9-4.1-2.3-7.6-2.3c-4.3,0-6.6,2.7-6.6,5.8c0,3.4,2.2,5,7.3,7.1c6.3,2.6,10,5.9,10,11.8
		c0,7-5.3,11.6-13.9,11.6c-3.9,0-7.6-1.1-10.3-2.7l1.7-4.6c2.1,1.2,5.5,2.7,8.9,2.7c5.3,0,7.8-2.8,7.8-6.3c0-3.7-2.1-5.7-7.3-7.8
		c-6.6-2.7-10-6.3-10-11.1c0-6.1,4.9-11.2,12.8-11.2c3.7,0,6.9,1.1,9,2.4L-186.9-71.8z"/>
	<path d="M-171.8-84.7c-2.3,0-3.9-1.8-3.9-4.1c0-2.2,1.7-4,4-4c2.4,0,3.9,1.8,3.9,4C-167.8-86.2-169.5-84.7-171.8-84.7z
		 M-168.7-38.5h-6v-39.2h6V-38.5z"/>
	<path d="M-125-77.8c-0.2,2.8-0.4,6-0.4,10.8v22.9c0,6.8-0.1,22.5-18.7,22.5c-4.5,0-9.4-1.1-12.3-3.1l1.6-4.7c2.5,1.5,6.3,3,11,3
		c7.2,0,12.5-3.8,12.5-14.2v-4.7h-0.1c-2,3.7-6.2,6.7-12.2,6.7c-9.4,0-16.1-8.3-16.1-19.3c0-13.6,8.5-20.8,17-20.8
		c6.7,0,10.2,3.6,11.9,6.8h0.1l0.3-5.9L-125-77.8L-125-77.8z M-131.4-62.7c0-6.8-5-11.2-10.4-11.2c-6.9,0-11.7,6.1-11.7,15.6
		c0,8.4,4,14.9,11.7,14.9c4.5,0,10.5-3.4,10.5-11.5L-131.4-62.7L-131.4-62.7z"/>
	<path d="M-82.1-38.5h-6v-23.2c0-6.4-2.3-12-9.1-12c-5.1,0-10.3,4.3-10.3,11.2v24h-6v-29.2c0-4-0.1-7-0.3-10.2h5.3l0.4,6.4h0.1
		c1.9-3.8,6.5-7.3,12.6-7.3c4.9,0,13.2,3,13.2,16.3L-82.1-38.5L-82.1-38.5z"/>
</g>
<g>
	<path d="M-100.4-395.8h40.7v3.6h-40.7V-395.8z"/>
	<path d="M-59.7-395.8H-19v3.6h-40.7V-395.8z"/>
	<path d="M26.3-430.8c-1.4,8.4-3.5,15.3-7.5,20.1c2.7,2.9,5.3,5.8,8.7,9.5h-7.2c-1.5-1.7-3-3.2-5.2-5.5c-4.8,4.5-9.9,6.4-15.6,6.4
		c-10.1,0-16.1-7.1-16.1-15.3c0-7.3,4.2-12.5,10.4-16.1v-0.2c-2.8-3.7-4.5-7.8-4.5-11.7c0-6.6,4.6-13.2,13.1-13.2
		c6.3,0,11.3,4.2,11.3,11.4c0,5.8-3.3,10.2-12,14.7v0.3c4.5,5.5,9.9,11.8,13.8,16.3c2.5-4.1,4.1-9.7,5.1-16.5L26.3-430.8L26.3-430.8
		z M12.2-410.3c-3.5-4-9.6-10.9-15.5-18c-3.1,2-7.3,5.7-7.3,11.8C-10.6-410-6-405,0.6-405C5-405,9.3-406.9,12.2-410.3z M-5.1-444.3
		c0,4.1,1.9,7.3,4.1,10.3c5.7-3.2,9.4-6.4,9.4-11.2c0-3.6-1.9-7.4-6.5-7.4C-2.8-452.6-5.1-448.5-5.1-444.3z"/>
	<path d="M70-402.9c-2.5,1.2-7.4,2.4-13.7,2.4c-14.1,0-25.5-9.1-25.5-27.7c0-17.7,11-28.7,27.1-28.7c6.6,0,10.4,1.4,12.1,2.2l-1.6,5
		c-2.5-1.2-6-2.2-10.4-2.2c-12.5,0-21,8.4-21,23.5c0,14.4,7.8,22.9,20.6,22.9c4.2,0,8.3-0.9,11-2.2L70-402.9z"/>
	<path d="M111.8-421.2c0,14.6-9.6,20.8-18.4,20.8c-10.1,0-17.9-7.6-17.9-20.2c0-13.4,8.4-20.8,18.4-20.8
		C104.7-441.4,111.8-433.2,111.8-421.2z M93.7-436.7c-8.5,0-12,8.4-12,15.9c0,8.7,4.8,15.8,11.9,15.8s12.1-7.1,12.1-15.9
		C105.7-427.9,102.3-436.7,93.7-436.7z"/>
	<path d="M119.2-404.9c0-2.7,1.8-4.7,4.3-4.7s4.2,1.9,4.2,4.7c0,2.6-1.7,4.5-4.3,4.5C120.7-400.3,119.2-402.5,119.2-404.9z"/>
</g>
<g>
	<path d="M695.6-108.6h-16.2v49.8h-6v-49.8h-16.1v-5h38.3V-108.6z"/>
	<path d="M704.3-105c-2.3,0-3.9-1.8-3.9-4.1c0-2.2,1.7-4,4-4c2.4,0,3.9,1.8,3.9,4C708.3-106.6,706.6-105,704.3-105z M707.3-58.8h-6
		V-98h6V-58.8z"/>
	<path d="M745.7-60.3c-1.7,0.9-5.6,2.2-10.7,2.2c-11.2,0-18.6-8-18.6-20c0-12.1,8-21,20.1-21c4.4,0,7.9,1.3,9.4,2.1l-1.5,4.8
		c-1.7-0.9-4.2-2-8.1-2c-9.1,0-13.8,7.3-13.8,15.7c0,9.5,5.7,15.5,13.6,15.5c3.9,0,6.6-1.1,8.5-1.9L745.7-60.3z"/>
	<path d="M784.5-58.8h-7.3l-13.5-19.4l-3.6,4.1v15.3h-6v-57.6h6v36.7h0.1c0.9-1.4,2.3-3.1,3.4-4.4L775.3-98h7.2l-14.8,16.2
		L784.5-58.8z"/>
	<path d="M817.6-60.5c-2.2,1.1-6.3,2.4-12.3,2.4c-11.4,0-18.3-8.1-18.3-19.8c0-12.3,7-21.1,17.5-21.1c12.1,0,15.2,11.1,15.2,17.9
		c0,1.4-0.1,2.4-0.1,3.3h-26.7c0.1,10.9,6.3,15,13.3,15c4.9,0,7.8-1,10.3-2L817.6-60.5z M813.8-82.2c0.1-5.3-2.2-12.2-9.9-12.2
		c-7.2,0-10.4,6.8-10.9,12.2H813.8z"/>
	<path d="M830.2-105.2l5.9-2v9.1h10.2v4.7h-10.2v22.7c0,5,1.5,7.7,5.3,7.7c1.8,0,3-0.2,4-0.6l0.4,4.6c-1.3,0.6-3.3,0.9-5.8,0.9
		c-9.5,0-9.8-8.6-9.8-12.8v-22.5h-6v-4.7h6L830.2-105.2L830.2-105.2z"/>
</g>
<g>
	<path d="M673.1,270.3h-28.7v-54.9h6v49.8h22.7V270.3L673.1,270.3z"/>
	<path d="M683.6,224.1c-2.3,0-3.9-1.8-3.9-4.1c0-2.2,1.7-4,4-4c2.4,0,3.9,1.8,3.9,4C687.6,222.5,685.9,224.1,683.6,224.1z
		 M686.6,270.3h-6V231h6V270.3z"/>
	<path d="M704.6,237.4c2.4-4.5,6.9-7.3,13-7.3c9.3,0,15.8,8,15.8,20.1c0,14.3-8.7,21-16.8,21c-5.7,0-9.9-2.3-12.7-7.3h-0.2l-0.4,6.5
		h-5.2c0.1-2.6,0.3-6.6,0.3-9.7v-47.9h6v24.7h0.2L704.6,237.4L704.6,237.4z M704.5,254.9c0,5.8,4.4,11.3,11,11.3
		c7.6,0,11.9-6.6,11.9-15.8c0-8.2-4-15.4-11.7-15.4c-6.8,0-11.2,6.4-11.2,12.2V254.9L704.5,254.9z"/>
	<path d="M760.4,236.1c-0.6-0.1-1.3-0.1-2.2-0.1c-6.5,0-9.8,6.4-9.8,13v21.3h-6v-27.5c0-4.2-0.1-8-0.3-11.7h5.3l0.3,7.6h0.2
		c1.7-4.9,5.8-8.4,10.7-8.4c0.6,0,1.2,0.1,1.8,0.2V236.1L760.4,236.1z"/>
	<path d="M793.1,260.9c0,3.2,0.1,6.6,0.6,9.4h-5.5l-0.6-5h-0.2c-2,3.1-6,5.9-11.6,5.9c-7.5,0-11.4-5.5-11.4-11.2
		c0-9.4,8.2-14.5,22.8-14.5c0-3.3,0-10.8-8.9-10.8c-3.4,0-6.9,0.9-9.6,2.8l-1.4-4.1c3.2-2.1,7.6-3.3,12-3.3c11.1,0,14,7.8,14,15.6
		v15.2L793.1,260.9L793.1,260.9z M787.2,249.9c-7.4,0-16.7,1.1-16.7,9.4c0,5,3.2,7.3,6.8,7.3c5.8,0,9.9-4.5,9.9-9.2V249.9z"/>
	<path d="M822.6,236.1c-0.6-0.1-1.3-0.1-2.2-0.1c-6.5,0-9.8,6.4-9.8,13v21.3h-6v-27.5c0-4.2-0.1-8-0.3-11.7h5.3l0.3,7.6h0.2
		c1.7-4.9,5.8-8.4,10.7-8.4c0.6,0,1.2,0.1,1.8,0.2V236.1z"/>
	<path d="M859.2,231l-10.4,27.8c-4.7,12.7-8,20.1-12.9,24.7c-3.3,3-6.6,4.2-8,4.6l-1.7-5c9.1-3.4,12.7-13.3,12.7-14.1
		c0-0.4-0.1-0.9-0.4-1.7l-14-36.3h6.6l8.6,23.8c1,2.7,1.9,5.8,2.5,8.2h0.2c0.6-2.4,1.6-5.3,2.5-8.4l7.9-23.7L859.2,231L859.2,231z"
		/>
</g>
<g>
	<path d="M584.4,124.2c5.2,1.2,11.3,5.5,11.3,13.8c0,4.9-1.9,8.4-4.4,10.8c-3.7,3.6-9.6,5.2-17.9,5.2c-4.5,0-7.9-0.4-10.2-0.6V99.5
		c3-0.6,7.3-1.2,11.8-1.2c6.8,0,11.2,1.3,14.5,4c2.6,2.2,4.1,5.4,4.1,9.5c0,5.4-3.7,10.1-9.3,12.1L584.4,124.2L584.4,124.2z
		 M575.7,122.2c7.3,0,12-4.2,12-9.8v-0.1c0-6.5-4.8-9.3-12.2-9.3c-3.2,0-5,0.2-6.1,0.5v18.6h6.3V122.2z M569.3,148.9
		c1.4,0.3,3.3,0.4,5.8,0.4c7.6,0,14.3-3,14.3-11.2s-7.1-11.2-14.4-11.2h-5.8L569.3,148.9L569.3,148.9z"/>
	<path d="M622.8,119.4c-0.6-0.1-1.3-0.1-2.2-0.1c-6.5,0-9.8,6.4-9.8,13v21.3h-6v-27.5c0-4.2-0.1-8-0.3-11.7h5.3l0.3,7.6h0.2
		c1.7-4.9,5.8-8.4,10.7-8.4c0.6,0,1.2,0.1,1.8,0.2V119.4z"/>
	<path d="M655.5,144.2c0,3.2,0.1,6.6,0.6,9.4h-5.5l-0.6-5h-0.2c-2,3.1-6,5.9-11.6,5.9c-7.5,0-11.4-5.5-11.4-11.2
		c0-9.4,8.2-14.5,22.8-14.5c0-3.3,0-10.8-8.9-10.8c-3.4,0-6.9,0.9-9.6,2.8l-1.4-4.1c3.2-2.1,7.6-3.3,12-3.3c11.1,0,14,7.8,14,15.6
		L655.5,144.2L655.5,144.2z M649.6,133.2c-7.4,0-16.7,1.1-16.7,9.4c0,5,3.2,7.3,6.8,7.3c5.8,0,9.9-4.5,9.9-9.2V133.2z"/>
	<path d="M698.4,153.6h-6v-23.2c0-6.4-2.3-12-9.1-12c-5.1,0-10.3,4.3-10.3,11.2v24.1h-6v-29.2c0-4-0.1-7-0.3-10.2h5.3l0.4,6.4h0.1
		c1.9-3.8,6.5-7.3,12.6-7.3c4.9,0,13.2,3,13.2,16.3L698.4,153.6L698.4,153.6z"/>
	<path d="M746.2,151.9c-2.5,1.2-7.4,2.4-13.7,2.4c-14.1,0-25.5-9.1-25.5-27.7c0-17.7,11-28.7,27.1-28.7c6.6,0,10.4,1.4,12.1,2.2
		l-1.6,5c-2.5-1.2-6-2.2-10.4-2.2c-12.5,0-21,8.4-21,23.5c0,14.4,7.8,22.9,20.6,22.9c4.2,0,8.3-0.9,11-2.2L746.2,151.9z"/>
	<path d="M788,133.6c0,14.6-9.6,20.8-18.4,20.8c-10.1,0-17.9-7.6-17.9-20.2c0-13.4,8.4-20.8,18.4-20.8
		C780.9,113.4,788,121.6,788,133.6z M769.9,118.1c-8.5,0-12,8.4-12,15.9c0,8.7,4.8,15.8,11.9,15.8c7.1,0,12.1-7.1,12.1-15.9
		C781.9,126.9,778.5,118.1,769.9,118.1z"/>
	<path d="M843.4,153.6h-31.9v-3.7l5.3-5.5c12.8-13,19.3-20.8,19.3-29.6c0-5.8-2.5-11.1-10.3-11.1c-4.3,0-8.2,2.4-10.8,4.5l-2-4.2
		c3.3-3,8.2-5.3,14-5.3c10.9,0,15.2,7.9,15.2,15.3c0,10.2-7.1,18.8-18.3,30l-4.2,4.5v0.1h23.8L843.4,153.6L843.4,153.6z"/>
	<path d="M850.5,126.8c0-18.9,7.3-28,17.4-28c10.2,0,16.5,9.6,16.5,27.3c0,18.7-6.6,28.4-17.3,28.4
		C857.4,154.4,850.5,144.8,850.5,126.8z M878.4,126.4c0-13.5-3.2-22.8-10.8-22.8c-6.4,0-10.9,8.6-10.9,22.8s4,23.2,10.7,23.2
		C875.4,149.5,878.4,139.2,878.4,126.4z"/>
	<path d="M906,153.6v-48.3h-0.1l-8.9,5.1l-1.4-4.5l11.2-6.3h5.1v53.9H906V153.6z"/>
	<path d="M957.6,153.6H952v-15.1h-23.5v-3.8l23-35h6.2v34.2h7.3v4.6h-7.3L957.6,153.6L957.6,153.6z M934.5,133.8H952v-19.2
		c0-3,0.1-5.8,0.3-8.6H952c-1.7,3.3-3,5.6-4.3,8.1L934.5,133.8L934.5,133.8z"/>
</g>
<g>
	<path d="M612,24.1c0,3.2,0.1,6.6,0.6,9.4h-5.5l-0.6-5h-0.2c-2,3.1-6,5.9-11.6,5.9c-7.5,0-11.4-5.5-11.4-11.2
		c0-9.4,8.2-14.5,22.8-14.5c0-3.3,0-10.8-8.9-10.8c-3.4,0-6.9,0.9-9.6,2.8l-1.4-4.1c3.2-2.1,7.6-3.3,12-3.3c11.1,0,14,7.8,14,15.6
		L612,24.1L612,24.1z M606.1,13.1c-7.4,0-16.7,1.1-16.7,9.4c0,5,3.2,7.3,6.8,7.3c5.8,0,9.9-4.5,9.9-9.2V13.1L606.1,13.1z"/>
	<path d="M629.1,0.9c2.7-4.8,7.3-7.6,13.4-7.6c9.3,0,16,8,16,20c0,14.4-8.4,21-17.1,21c-5.2,0-9.5-2.4-11.8-6.3h-0.1v21.5h-6V6.9
		c0-5.1-0.1-9.1-0.3-12.7h5.4L629.1,0.9L629.1,0.9L629.1,0.9z M629.5,17.9c0,7.6,5.7,11.7,11,11.7c7.7,0,12-6.6,12-16
		c0-8.1-4.1-15.3-11.7-15.3c-6.7,0-11.2,6.5-11.2,12.2L629.5,17.9L629.5,17.9z"/>
	<path d="M673.1,0.9c2.7-4.8,7.3-7.6,13.4-7.6c9.3,0,16,8,16,20c0,14.4-8.4,21-17.1,21c-5.2,0-9.5-2.4-11.8-6.3h-0.1v21.5h-6V6.9
		c0-5.1-0.1-9.1-0.3-12.7h5.4L673.1,0.9L673.1,0.9L673.1,0.9z M673.5,17.9c0,7.6,5.7,11.7,11,11.7c7.7,0,12-6.6,12-16
		c0-8.1-4.1-15.3-11.7-15.3c-6.7,0-11.2,6.5-11.2,12.2L673.5,17.9L673.5,17.9z"/>
	<path d="M717.5,33.5h-6v-57.6h6V33.5z"/>
	<path d="M732.3-12.7c-2.3,0-3.9-1.8-3.9-4.1c0-2.2,1.7-4,4-4c2.4,0,3.9,1.8,3.9,4C736.3-14.2,734.6-12.7,732.3-12.7z M735.3,33.5
		h-6V-5.7h6V33.5z"/>
	<path d="M800.6,33.5h-5.9V10.8c0-7.6-2.7-12.5-8.6-12.5c-4.8,0-9.2,4.5-9.2,10.5v24.7H771V9.3c0-6.3-2.7-11-8.2-11
		c-5.1,0-9.6,5-9.6,11.2v24h-5.9V4.3c0-4-0.1-6.9-0.3-10.2h5.3l0.4,6.3h0.2c2.2-3.8,5.8-7.2,12-7.2c5.1,0,9.1,3.2,10.7,7.8h0.1
		c2.6-4.7,6.6-7.8,12.6-7.8c4.8,0,12.5,3.1,12.5,16.6L800.6,33.5L800.6,33.5z"/>
	<path d="M832.2,4.9c2.4-3.6,6.8-6.6,12.6-6.6c9.1,0,15.3,6.8,15.3,17.2c0,9.9-6,18.9-16.6,18.9s-17.6-8.7-17.6-22.7
		c0-14.5,6.8-29.6,24.3-32.5c2-0.3,3.8-0.5,5-0.5l0.1,5c-15,0-22.1,10.9-23.3,21.2L832.2,4.9L832.2,4.9z M854,15.9
		c0-8.3-4.5-13.1-10.9-13.1c-6.3,0-11.2,6.2-11.2,10.2c0.1,9.9,4.2,16.6,11.7,16.6C849.9,29.7,854,24.1,854,15.9z"/>
	<path d="M870.3-12.9l5.9-2v9.1h10.2v4.7h-10.2v22.7c0,5,1.5,7.7,5.3,7.7c1.8,0,3-0.2,4-0.6l0.4,4.6c-1.3,0.6-3.3,0.9-5.8,0.9
		c-9.5,0-9.8-8.6-9.8-12.8V-1.1h-6v-4.7h6L870.3-12.9L870.3-12.9z"/>
	<path d="M925.6,33.5h-6V10.3c0-6.4-2.3-12-9.1-12c-4.6,0-10.4,3.8-10.4,11v24.1h-6v-57.6h6V0.3h0.1c2.6-4.3,7.3-7,12.2-7
		c4.8,0,13.1,3,13.1,16.3v23.9H925.6z"/>
</g>
<g>
	<path d="M72,176.8h-6.2l-5.7-17.3H41.5l-5.6,17.3h-6l17.6-53.3h6.7L72,176.8z M58.9,154.9l-5.2-15.8c-1.1-3.6-2-7-2.7-10.1h-0.2
		c-0.7,3.2-1.7,6.6-2.7,9.9l-5.3,16L58.9,154.9L58.9,154.9z"/>
	<path d="M101.2,143.6c-0.6-0.1-1.3-0.1-2.1-0.1c-6.3,0-9.5,6.2-9.5,12.7v20.7h-5.8v-26.7c0-4.1-0.1-7.8-0.3-11.4h5.1l0.3,7.4h0.2
		c1.7-4.8,5.7-8.2,10.4-8.2c0.6,0,1.1,0.1,1.8,0.2C101.2,138.1,101.2,143.6,101.2,143.6z"/>
	<path d="M137.9,175.4c-1.7,0.8-5.5,2.2-10.4,2.2c-10.9,0-18.1-7.8-18.1-19.5c0-11.8,7.8-20.4,19.5-20.4c4.3,0,7.7,1.3,9.2,2
		l-1.5,4.7c-1.6-0.9-4.1-2-7.8-2c-8.8,0-13.4,7.1-13.4,15.3c0,9.2,5.5,15.1,13.2,15.1c3.8,0,6.4-1.1,8.3-1.9L137.9,175.4z"/>
	<path d="M180.8,176.8H175v-22.5c0-6.2-2.2-11.6-8.8-11.6c-4.5,0-10.1,3.7-10.1,10.7v23.5h-5.8v-56h5.8v23.7h0.1
		c2.5-4.2,7.1-6.8,11.8-6.8s12.7,2.9,12.7,15.8L180.8,176.8L180.8,176.8z"/>
	<path d="M219.1,175.2c-2.2,1.1-6.2,2.4-12,2.4c-11.1,0-17.8-7.8-17.8-19.3c0-12,6.7-20.6,17-20.6c11.8,0,14.8,10.8,14.8,17.4
		c0,1.3-0.1,2.3-0.1,3.2h-26c0.1,10.6,6.1,14.6,13,14.6c4.8,0,7.6-1,10-2L219.1,175.2z M215.4,154.1c0.1-5.2-2.1-11.9-9.6-11.9
		c-7,0-10.1,6.7-10.6,11.9H215.4z"/>
	<path d="M230.6,153.2h19.1v4.5h-19.1V153.2z"/>
	<path d="M289.3,128.5h-15.8v48.4h-5.8v-48.4H252v-4.9h37.2L289.3,128.5L289.3,128.5z"/>
	<path d="M320.5,175.2c-2.2,1.1-6.2,2.4-12,2.4c-11.1,0-17.8-7.8-17.8-19.3c0-12,6.7-20.6,17-20.6c11.8,0,14.8,10.8,14.8,17.4
		c0,1.3-0.1,2.3-0.1,3.2h-26c0.1,10.6,6.1,14.6,13,14.6c4.8,0,7.6-1,10-2L320.5,175.2z M316.8,154.1c0.1-5.2-2.1-11.9-9.6-11.9
		c-7,0-10.1,6.7-10.6,11.9H316.8z"/>
	<path d="M359.8,175.4c-1.7,0.8-5.5,2.2-10.4,2.2c-10.9,0-18.1-7.8-18.1-19.5c0-11.8,7.8-20.4,19.5-20.4c4.3,0,7.7,1.3,9.2,2
		l-1.5,4.7c-1.6-0.9-4.1-2-7.8-2c-8.8,0-13.4,7.1-13.4,15.3c0,9.2,5.5,15.1,13.2,15.1c3.8,0,6.4-1.1,8.3-1.9L359.8,175.4z"/>
	<path d="M372.2,131.8l5.7-2v8.9h9.9v4.6H378v22.1c0,4.8,1.5,7.5,5.2,7.5c1.8,0,2.9-0.2,3.9-0.6l0.4,4.5c-1.3,0.6-3.2,0.9-5.7,0.9
		c-9.2,0-9.5-8.4-9.5-12.5v-21.9h-5.9v-4.6h5.9L372.2,131.8L372.2,131.8z"/>
	<path d="M430.7,157.4c0,14.2-9.4,20.2-17.9,20.2c-9.8,0-17.4-7.4-17.4-19.7c0-13,8.1-20.2,17.9-20.2
		C423.7,137.8,430.7,145.8,430.7,157.4z M413.1,142.3c-8.3,0-11.7,8.1-11.7,15.5c0,8.5,4.7,15.3,11.6,15.3s11.8-6.9,11.8-15.5
		C424.7,150.9,421.4,142.3,413.1,142.3z"/>
	<path d="M470,176.8h-5.8v-22.5c0-6.2-2.2-11.7-8.9-11.7c-5,0-10,4.2-10,10.9v23.4h-5.8v-28.4c0-3.9-0.1-6.8-0.3-9.9h5.2l0.4,6.2
		h0.1c1.9-3.7,6.3-7.1,12.3-7.1c4.8,0,12.9,2.9,12.9,15.8L470,176.8L470,176.8z"/>
</g>
<g>
	<path d="M40.6,352.5h-4.9l-4.5-13.6H16.6l-4.4,13.6H7.5l13.9-42.1h5.3L40.6,352.5z M30.3,335.2l-4.1-12.5c-0.9-2.9-1.6-5.5-2.2-8
		h-0.2c-0.6,2.5-1.3,5.2-2.1,7.8l-4.2,12.6L30.3,335.2L30.3,335.2z"/>
	<path d="M63.6,326.3c-0.5-0.1-1-0.1-1.7-0.1c-5,0-7.5,4.9-7.5,10v16.3h-4.6v-21.1c0-3.2-0.1-6.1-0.2-9h4l0.2,5.8H54
		c1.3-3.8,4.5-6.5,8.2-6.5c0.5,0,0.9,0.1,1.4,0.2C63.6,321.9,63.6,326.3,63.6,326.3z"/>
	<path d="M92.6,351.4c-1.3,0.7-4.3,1.7-8.2,1.7c-8.6,0-14.3-6.1-14.3-15.3c0-9.3,6.1-16.1,15.4-16.1c3.4,0,6.1,1,7.2,1.6l-1.2,3.7
		c-1.3-0.7-3.3-1.5-6.2-1.5c-7,0-10.6,5.6-10.6,12c0,7.3,4.4,11.9,10.4,11.9c3,0,5-0.8,6.5-1.5L92.6,351.4z"/>
	<path d="M126.3,352.5h-4.6v-17.8c0-4.9-1.8-9.2-7-9.2c-3.5,0-7.9,2.9-7.9,8.4v18.5h-4.6v-44.1h4.6V327h0.1c2-3.3,5.6-5.4,9.3-5.4
		c3.7,0,10,2.3,10,12.5L126.3,352.5L126.3,352.5z"/>
	<path d="M156.5,351.2c-1.7,0.8-4.9,1.9-9.4,1.9c-8.8,0-14-6.2-14-15.2c0-9.4,5.3-16.2,13.4-16.2c9.3,0,11.6,8.5,11.6,13.7
		c0,1-0.1,1.8-0.1,2.5h-20.5c0.1,8.3,4.8,11.5,10.2,11.5c3.8,0,6-0.8,7.9-1.5L156.5,351.2z M153.6,334.5c0.1-4.1-1.7-9.4-7.6-9.4
		c-5.5,0-7.9,5.2-8.4,9.4H153.6z"/>
	<path d="M165.6,333.9h15.1v3.5h-15.1V333.9z"/>
	<path d="M211.9,314.3h-12.4v38.1h-4.6v-38.1h-12.4v-3.9h29.4V314.3L211.9,314.3z"/>
	<path d="M236.5,351.2c-1.7,0.8-4.9,1.9-9.4,1.9c-8.8,0-14-6.2-14-15.2c0-9.4,5.3-16.2,13.4-16.2c9.3,0,11.6,8.5,11.6,13.7
		c0,1-0.1,1.8-0.1,2.5h-20.5c0.1,8.3,4.8,11.5,10.2,11.5c3.8,0,6-0.8,7.9-1.5L236.5,351.2z M233.6,334.5c0.1-4.1-1.7-9.4-7.6-9.4
		c-5.5,0-7.9,5.2-8.4,9.4H233.6z"/>
	<path d="M267.5,351.4c-1.3,0.7-4.3,1.7-8.2,1.7c-8.6,0-14.3-6.1-14.3-15.3c0-9.3,6.1-16.1,15.4-16.1c3.4,0,6.1,1,7.2,1.6l-1.2,3.7
		c-1.3-0.7-3.3-1.5-6.2-1.5c-7,0-10.6,5.6-10.6,12c0,7.3,4.4,11.9,10.4,11.9c3,0,5-0.8,6.5-1.5L267.5,351.4z"/>
	<path d="M277.3,316.9l4.5-1.5v7h7.8v3.6h-7.8v17.4c0,3.8,1.2,5.9,4.1,5.9c1.4,0,2.3-0.2,3.1-0.4l0.3,3.5c-1,0.4-2.5,0.7-4.5,0.7
		c-7.3,0-7.5-6.6-7.5-9.8V326h-4.6v-3.6h4.6V316.9L277.3,316.9z"/>
	<path d="M323.4,337.2c0,11.2-7.4,16-14.1,16c-7.7,0-13.7-5.8-13.7-15.5c0-10.3,6.4-16,14.1-16C317.9,321.7,323.4,328,323.4,337.2z
		 M309.5,325.3c-6.5,0-9.2,6.4-9.2,12.2c0,6.7,3.7,12.1,9.1,12.1c5.5,0,9.3-5.4,9.3-12.2C318.7,332,316.1,325.3,309.5,325.3z"/>
	<path d="M354.4,352.5h-4.6v-17.8c0-4.9-1.8-9.2-7-9.2c-3.9,0-7.9,3.3-7.9,8.6v18.4h-4.6v-22.4c0-3.1-0.1-5.4-0.2-7.8h4.1l0.3,4.9
		h0.1c1.5-2.9,5-5.6,9.7-5.6c3.8,0,10.2,2.3,10.2,12.5L354.4,352.5L354.4,352.5z"/>
</g>
<g class="st0">
	<path d="M374.6,299.7v-26.6h-0.1l-4.9,2.8l-0.8-2.5l6.1-3.5h2.8v29.7h-3.1V299.7z"/>
	<path d="M403,285.6c-1.6,2.1-3.9,3.3-6.8,3.3c-5.1,0-8.2-4-8.2-9c0-5.4,3.6-10.4,9.4-10.4c5.6,0,9.1,4.8,9.1,12.4
		c0,9.9-5,16.7-12.6,17.9c-1.4,0.2-2.7,0.3-3.5,0.3v-2.7c0.8,0.1,1.8,0,3.1-0.2c5-0.7,8.8-4.8,9.8-11.5L403,285.6L403,285.6z
		 M391.3,279.7c0,4,2.3,6.7,5.7,6.7c3.2,0,6.1-2.5,6.1-4.8c0-5.7-2.1-9.6-6-9.6C393.7,272,391.3,275.3,391.3,279.7z"/>
	<path d="M409.6,284.9c0-10.4,4-15.4,9.6-15.4s9.1,5.3,9.1,15c0,10.3-3.6,15.6-9.5,15.6C413.4,300.1,409.6,294.8,409.6,284.9z
		 M425,284.7c0-7.4-1.8-12.5-5.9-12.5c-3.5,0-6,4.7-6,12.5s2.2,12.8,5.9,12.8C423.3,297.4,425,291.7,425,284.7z"/>
	<path d="M432.4,270h17.4v2.1l-12.4,27.6H434l12.4-26.9v-0.1h-14V270z"/>
	<path d="M471.3,299.7h-17.6v-2l2.9-3.1c7.1-7.1,10.6-11.5,10.6-16.3c0-3.2-1.4-6.1-5.7-6.1c-2.4,0-4.5,1.3-5.9,2.5l-1.1-2.3
		c1.8-1.6,4.5-2.9,7.7-2.9c6,0,8.4,4.4,8.4,8.4c0,5.6-3.9,10.4-10.1,16.5l-2.3,2.5v0.1h13.1V299.7z"/>
	<path d="M475.2,284.9c0-10.4,4-15.4,9.6-15.4s9.1,5.3,9.1,15c0,10.3-3.6,15.6-9.5,15.6C479,300.1,475.2,294.8,475.2,284.9z
		 M490.5,284.7c0-7.4-1.8-12.5-5.9-12.5c-3.5,0-6,4.7-6,12.5s2.2,12.8,5.9,12.8C488.9,297.4,490.5,291.7,490.5,284.7z"/>
</g>
<g>
	<path d="M40.6,300.3h-4.9l-4.5-13.6H16.6l-4.4,13.6H7.5l13.9-42.1h5.3L40.6,300.3z M30.3,283l-4.1-12.5c-0.9-2.9-1.6-5.5-2.2-8
		h-0.2c-0.6,2.5-1.3,5.2-2.1,7.8l-4.2,12.6L30.3,283L30.3,283z"/>
	<path d="M63.6,274.1c-0.5-0.1-1-0.1-1.7-0.1c-5,0-7.5,4.9-7.5,10v16.3h-4.6v-21.1c0-3.2-0.1-6.1-0.2-9h4l0.2,5.8H54
		c1.3-3.8,4.5-6.5,8.2-6.5c0.5,0,0.9,0.1,1.4,0.2C63.6,269.7,63.6,274.1,63.6,274.1z"/>
	<path d="M92.6,299.2c-1.3,0.7-4.3,1.7-8.2,1.7c-8.6,0-14.3-6.1-14.3-15.3c0-9.3,6.1-16.1,15.4-16.1c3.4,0,6.1,1,7.2,1.6l-1.2,3.7
		c-1.3-0.7-3.3-1.5-6.2-1.5c-7,0-10.6,5.6-10.6,12c0,7.3,4.4,11.9,10.4,11.9c3,0,5-0.8,6.5-1.5L92.6,299.2z"/>
	<path d="M126.3,300.3h-4.6v-17.8c0-4.9-1.8-9.2-7-9.2c-3.5,0-7.9,2.9-7.9,8.4v18.5h-4.6v-44.1h4.6v18.7h0.1c2-3.3,5.6-5.4,9.3-5.4
		c3.7,0,10,2.3,10,12.5L126.3,300.3L126.3,300.3z"/>
	<path d="M156.5,299c-1.7,0.8-4.9,1.9-9.4,1.9c-8.8,0-14-6.2-14-15.2c0-9.4,5.3-16.2,13.4-16.2c9.3,0,11.6,8.5,11.6,13.7
		c0,1-0.1,1.8-0.1,2.5h-20.5c0.1,8.3,4.8,11.5,10.2,11.5c3.8,0,6-0.8,7.9-1.5L156.5,299z M153.6,282.3c0.1-4.1-1.7-9.4-7.6-9.4
		c-5.5,0-7.9,5.2-8.4,9.4H153.6z"/>
	<path d="M165.6,281.7h15.1v3.5h-15.1V281.7z"/>
	<path d="M211.9,262.1h-12.4v38.1h-4.6v-38.1h-12.4v-3.9h29.4V262.1L211.9,262.1z"/>
	<path d="M236.5,299c-1.7,0.8-4.9,1.9-9.4,1.9c-8.8,0-14-6.2-14-15.2c0-9.4,5.3-16.2,13.4-16.2c9.3,0,11.6,8.5,11.6,13.7
		c0,1-0.1,1.8-0.1,2.5h-20.5c0.1,8.3,4.8,11.5,10.2,11.5c3.8,0,6-0.8,7.9-1.5L236.5,299z M233.6,282.3c0.1-4.1-1.7-9.4-7.6-9.4
		c-5.5,0-7.9,5.2-8.4,9.4H233.6z"/>
	<path d="M267.5,299.2c-1.3,0.7-4.3,1.7-8.2,1.7c-8.6,0-14.3-6.1-14.3-15.3c0-9.3,6.1-16.1,15.4-16.1c3.4,0,6.1,1,7.2,1.6l-1.2,3.7
		c-1.3-0.7-3.3-1.5-6.2-1.5c-7,0-10.6,5.6-10.6,12c0,7.3,4.4,11.9,10.4,11.9c3,0,5-0.8,6.5-1.5L267.5,299.2z"/>
	<path d="M277.3,264.7l4.5-1.5v7h7.8v3.6h-7.8v17.4c0,3.8,1.2,5.9,4.1,5.9c1.4,0,2.3-0.2,3.1-0.4l0.3,3.5c-1,0.4-2.5,0.7-4.5,0.7
		c-7.3,0-7.5-6.6-7.5-9.8v-17.3h-4.6v-3.6h4.6V264.7L277.3,264.7z"/>
	<path d="M323.4,285c0,11.2-7.4,16-14.1,16c-7.7,0-13.7-5.8-13.7-15.5c0-10.3,6.4-16,14.1-16C317.9,269.5,323.4,275.8,323.4,285z
		 M309.5,273.1c-6.5,0-9.2,6.4-9.2,12.2c0,6.7,3.7,12.1,9.1,12.1c5.5,0,9.3-5.4,9.3-12.2C318.7,279.8,316.1,273.1,309.5,273.1z"/>
	<path d="M354.4,300.3h-4.6v-17.8c0-4.9-1.8-9.2-7-9.2c-3.9,0-7.9,3.3-7.9,8.6v18.4h-4.6v-22.4c0-3.1-0.1-5.4-0.2-7.8h4.1l0.3,4.9
		h0.1c1.5-2.9,5-5.6,9.7-5.6c3.8,0,10.2,2.3,10.2,12.5L354.4,300.3L354.4,300.3z"/>
</g>
<g class="st0">
	<path d="M374.3,351.3v-26.4h-0.1l-4.8,2.8l-0.8-2.4l6.1-3.4h2.8v29.5h-3.2V351.3z"/>
	<path d="M402.6,337.4c-1.6,2-3.9,3.3-6.8,3.3c-5,0-8.2-3.9-8.2-8.9c0-5.4,3.5-10.4,9.3-10.4c5.5,0,9,4.8,9,12.3
		c0,9.8-5,16.6-12.5,17.8c-1.4,0.2-2.6,0.3-3.5,0.3v-2.7c0.8,0.1,1.8,0,3-0.2C397.9,348.2,401.6,344.2,402.6,337.4L402.6,337.4z
		 M391,331.5c0,4,2.2,6.7,5.6,6.7c3.2,0,6.1-2.4,6.1-4.8c0-5.7-2.1-9.5-6-9.5C393.3,323.9,391,327.1,391,331.5z"/>
	<path d="M417.8,351.3v-26.4h-0.1l-4.8,2.8l-0.8-2.4l6.1-3.4h2.8v29.5h-3.2V351.3z"/>
	<path d="M448.7,351.3h-17.5v-2l2.9-3c7-7.1,10.6-11.4,10.6-16.2c0-3.2-1.4-6.1-5.6-6.1c-2.4,0-4.5,1.3-5.9,2.4l-1.1-2.3
		c1.8-1.6,4.5-2.9,7.6-2.9c6,0,8.3,4.3,8.3,8.4c0,5.6-3.9,10.3-10,16.4l-2.3,2.4v0.1h13V351.3z"/>
	<path d="M452.6,336.7c0-10.3,4-15.3,9.5-15.3c5.6,0,9,5.3,9,14.9c0,10.2-3.6,15.5-9.5,15.5C456.3,351.8,452.6,346.5,452.6,336.7z
		 M467.8,336.4c0-7.4-1.8-12.5-5.9-12.5c-3.5,0-6,4.7-6,12.5c0,7.8,2.2,12.7,5.9,12.7C466.2,349.1,467.8,343.5,467.8,336.4z"/>
	<path d="M475.2,321.8h17.3v2.1l-12.3,27.4h-3.4l12.3-26.7v-0.1h-14v-2.7H475.2z"/>
</g>
</svg>
