<?xml version="1.0" encoding="utf-8"?>
<!-- Generator: Adobe Illustrator 24.0.0, SVG Export Plug-In . SVG Version: 6.00 Build 0)  -->
<svg version="1.1" id="レイヤー_1" xmlns="http://www.w3.org/2000/svg" xmlns:xlink="http://www.w3.org/1999/xlink" x="0px"
	 y="0px" viewBox="-200 0 700 93.5" enable-background="new -200 0 700 93.5" xml:space="preserve">
<g>
	<path d="M-44.66,26.125l-4.008,3.797c-2.883-2.836-6.042-4.986-9.475-6.451c-3.434-1.465-6.78-2.197-10.037-2.197
		c-4.055,0-7.916,0.996-11.584,2.988c-3.668,1.992-6.51,4.693-8.525,8.104c-2.016,3.41-3.023,7.014-3.023,10.811
		c0,3.891,1.042,7.588,3.129,11.092c2.086,3.504,4.969,6.258,8.648,8.262c3.679,2.004,7.711,3.006,12.094,3.006
		c5.32,0,9.82-1.5,13.5-4.5c3.679-3,5.859-6.891,6.539-11.672H-63.89v-4.992h22.289c-0.047,7.992-2.42,14.338-7.119,19.037
		c-4.699,4.699-10.986,7.049-18.861,7.049c-9.562,0-17.133-3.258-22.711-9.773c-4.289-5.016-6.434-10.816-6.434-17.402
		c0-4.898,1.23-9.457,3.691-13.676s5.836-7.518,10.125-9.896s9.141-3.568,14.555-3.568c4.382,0,8.508,0.791,12.375,2.373
		S-48.34,22.633-44.66,26.125z"/>
	<path d="M-34.429,30.906h5.027v5.59c1.5-2.203,3.082-3.85,4.746-4.939c1.664-1.09,3.398-1.635,5.203-1.635
		c1.359,0,2.812,0.434,4.359,1.301l-2.566,4.148c-1.032-0.445-1.898-0.668-2.602-0.668c-1.641,0-3.223,0.674-4.746,2.021
		c-1.524,1.348-2.684,3.439-3.48,6.275c-0.61,2.18-0.914,6.586-0.914,13.219v12.938h-5.027V30.906z"/>
	<path d="M27.199,30.906v38.25h-4.852v-6.574c-2.062,2.508-4.377,4.395-6.943,5.66s-5.374,1.898-8.42,1.898
		c-5.414,0-10.037-1.963-13.869-5.889s-5.748-8.701-5.748-14.326c0-5.508,1.934-10.219,5.801-14.133s8.52-5.871,13.957-5.871
		c3.141,0,5.982,0.668,8.525,2.004c2.543,1.336,4.775,3.34,6.697,6.012v-7.031H27.199z M7.53,34.668
		c-2.739,0-5.268,0.674-7.585,2.02c-2.318,1.346-4.162,3.237-5.531,5.672c-1.369,2.435-2.054,5.01-2.054,7.725
		c0,2.692,0.69,5.268,2.071,7.726c1.381,2.458,3.237,4.372,5.566,5.741c2.329,1.37,4.829,2.055,7.498,2.055
		c2.692,0,5.244-0.679,7.655-2.037c2.411-1.357,4.266-3.195,5.565-5.513s1.949-4.928,1.949-7.831c0-4.424-1.458-8.123-4.372-11.097
		C15.378,36.155,11.79,34.668,7.53,34.668z"/>
	<path d="M34.16,30.906h5.203L52.509,60.36l12.765-29.454h5.238L47.696,83.148h-5.199l7.364-16.89L34.16,30.906z"/>
	<path d="M96.106,35.09l-3.164,3.27c-2.632-2.555-5.205-3.832-7.719-3.832c-1.599,0-2.968,0.527-4.107,1.582
		c-1.14,1.055-1.709,2.285-1.709,3.691c0,1.242,0.47,2.426,1.409,3.551c0.939,1.148,2.912,2.496,5.919,4.043
		c3.664,1.898,6.153,3.727,7.469,5.484c1.291,1.781,1.938,3.785,1.938,6.012c0,3.141-1.104,5.801-3.31,7.98s-4.965,3.27-8.274,3.27
		c-2.207,0-4.314-0.48-6.32-1.441c-2.007-0.961-3.668-2.285-4.982-3.973l3.094-3.516c2.514,2.836,5.18,4.254,7.999,4.254
		c1.973,0,3.652-0.633,5.039-1.898c1.386-1.266,2.079-2.754,2.079-4.465c0-1.406-0.458-2.66-1.374-3.762
		c-0.916-1.078-2.983-2.438-6.201-4.078c-3.453-1.781-5.802-3.539-7.046-5.273s-1.867-3.715-1.867-5.941
		c0-2.906,0.992-5.32,2.976-7.242c1.983-1.922,4.49-2.883,7.519-2.883C88.992,29.922,92.537,31.645,96.106,35.09z"/>
	<path d="M141.949,38.852l-3.902,2.426c-3.371-4.477-7.971-6.715-13.801-6.715c-4.658,0-8.526,1.498-11.605,4.495
		c-3.078,2.996-4.617,6.637-4.617,10.921c0,2.786,0.708,5.408,2.124,7.866s3.359,4.366,5.829,5.724
		c2.47,1.358,5.238,2.037,8.305,2.037c5.619,0,10.207-2.238,13.766-6.715l3.902,2.566c-1.828,2.753-4.283,4.889-7.365,6.406
		c-3.082,1.519-6.592,2.277-10.529,2.277c-6.047,0-11.062-1.922-15.047-5.766s-5.977-8.52-5.977-14.027
		c0-3.703,0.932-7.143,2.795-10.318s4.424-5.654,7.682-7.436c3.258-1.781,6.902-2.672,10.934-2.672c2.531,0,4.975,0.387,7.33,1.16
		s4.354,1.781,5.994,3.023S140.801,36.93,141.949,38.852z"/>
	<path d="M169.512,29.922c5.893,0,10.776,2.133,14.65,6.398c3.522,3.891,5.283,8.496,5.283,13.816c0,5.344-1.861,10.014-5.582,14.01
		c-3.722,3.996-8.506,5.994-14.352,5.994c-5.87,0-10.666-1.998-14.387-5.994c-3.722-3.996-5.582-8.666-5.582-14.01
		c0-5.297,1.761-9.891,5.283-13.781C158.699,32.066,163.595,29.922,169.512,29.922z M169.494,34.738
		c-4.093,0-7.609,1.512-10.549,4.535c-2.94,3.023-4.41,6.68-4.41,10.969c0,2.766,0.67,5.344,2.011,7.734s3.151,4.236,5.434,5.537
		c2.281,1.301,4.786,1.951,7.515,1.951c2.728,0,5.232-0.65,7.515-1.951c2.281-1.301,4.093-3.146,5.434-5.537
		c1.34-2.391,2.011-4.969,2.011-7.734c0-4.289-1.476-7.945-4.428-10.969S173.563,34.738,169.494,34.738z"/>
	<path d="M202.84,16.703h4.922v14.203h7.805v4.254h-7.805v33.996h-4.922V35.16h-6.715v-4.254h6.715V16.703z"/>
	<path d="M227.239,16.703h4.922v14.203h7.805v4.254h-7.805v33.996h-4.922V35.16h-6.715v-4.254h6.715V16.703z"/>
	<path d="M263.66,30.906h5.238l12.839,27.882l12.685-27.882h5.273l-17.508,38.25h-0.914L263.66,30.906z"/>
	<path d="M339.387,56.465l4.148,2.18c-1.36,2.672-2.933,4.828-4.715,6.469c-1.783,1.641-3.789,2.889-6.018,3.744
		c-2.229,0.855-4.751,1.283-7.565,1.283c-6.24,0-11.12-2.045-14.639-6.135s-5.278-8.713-5.278-13.869
		c0-4.852,1.489-9.176,4.469-12.973c3.776-4.828,8.832-7.242,15.166-7.242c6.521,0,11.729,2.473,15.623,7.418
		c2.768,3.492,4.176,7.852,4.223,13.078h-34.418c0.094,4.443,1.514,8.085,4.259,10.926c2.745,2.841,6.137,4.262,10.173,4.262
		c1.947,0,3.842-0.338,5.685-1.016c1.842-0.677,3.407-1.576,4.698-2.696C336.489,60.772,337.885,58.963,339.387,56.465z
		 M339.387,46.164c-0.657-2.625-1.613-4.723-2.869-6.293s-2.916-2.836-4.98-3.797c-2.065-0.961-4.236-1.441-6.512-1.441
		c-3.755,0-6.981,1.207-9.68,3.621c-1.972,1.758-3.462,4.395-4.471,7.91H339.387z"/>
	<path d="M373.207,35.09l-3.164,3.27c-2.633-2.555-5.205-3.832-7.719-3.832c-1.599,0-2.968,0.527-4.107,1.582
		s-1.709,2.285-1.709,3.691c0,1.242,0.47,2.426,1.409,3.551c0.939,1.148,2.912,2.496,5.919,4.043
		c3.664,1.898,6.153,3.727,7.469,5.484c1.291,1.781,1.938,3.785,1.938,6.012c0,3.141-1.104,5.801-3.311,7.98
		c-2.206,2.18-4.965,3.27-8.273,3.27c-2.207,0-4.313-0.48-6.32-1.441c-2.008-0.961-3.668-2.285-4.982-3.973l3.094-3.516
		c2.514,2.836,5.18,4.254,7.999,4.254c1.974,0,3.652-0.633,5.039-1.898c1.386-1.266,2.079-2.754,2.079-4.465
		c0-1.406-0.458-2.66-1.374-3.762c-0.916-1.078-2.983-2.438-6.2-4.078c-3.453-1.781-5.802-3.539-7.047-5.273
		s-1.867-3.715-1.867-5.941c0-2.906,0.991-5.32,2.976-7.242c1.983-1.922,4.489-2.883,7.519-2.883
		C366.094,29.922,369.639,31.645,373.207,35.09z"/>
	<path d="M386.215,16.703h4.922v14.203h7.805v4.254h-7.805v33.996h-4.922V35.16H379.5v-4.254h6.715V16.703z"/>
</g>
</svg>
