<?xml version="1.0" encoding="utf-8"?>
<!-- Generator: Adobe Illustrator 24.0.0, SVG Export Plug-In . SVG Version: 6.00 Build 0)  -->
<svg version="1.1" id="レイヤー_1" xmlns="http://www.w3.org/2000/svg" xmlns:xlink="http://www.w3.org/1999/xlink" x="0px"
	 y="0px" viewBox="-200 0 700 93.5" enable-background="new -200 0 700 93.5" xml:space="preserve">
<g>
	<path d="M-26.998,18.228c-2.494,0-4.209-1.948-4.209-4.442c0-2.415,1.792-4.364,4.286-4.364c2.572,0,4.208,1.949,4.208,4.364
		C-22.712,16.513-24.504,18.228-26.998,18.228z M-23.725,68.181h-6.468V25.709h6.468V68.181z"/>
	<path d="M23.108,68.181H16.64V43.088c0-6.936-2.494-13.015-9.897-13.015c-5.533,0-11.144,4.676-11.144,12.079v26.028h-6.468V36.62
		c0-4.365-0.156-7.56-0.311-10.988h5.766l0.39,6.935h0.156c2.104-4.13,7.014-7.871,13.638-7.871c5.299,0,14.339,3.195,14.339,17.612
		V68.181z"/>
	<path d="M37.364,17.994l6.39-2.182v9.898h10.988v5.066H43.754v24.547c0,5.377,1.637,8.338,5.767,8.338
		c1.948,0,3.273-0.234,4.364-0.623l0.389,4.987c-1.402,0.623-3.584,1.013-6.312,1.013c-10.286,0-10.598-9.351-10.598-13.872V30.775
		h-6.546v-5.066h6.546V17.994z"/>
	<path d="M93.313,66.388c-2.416,1.169-6.858,2.65-13.326,2.65c-12.39,0-19.794-8.728-19.794-21.431
		c0-13.325,7.481-22.911,18.937-22.911c13.092,0,16.443,12.001,16.443,19.404c0,1.481-0.078,2.571-0.156,3.585H66.506
		c0.078,11.767,6.78,16.21,14.417,16.21c5.299,0,8.494-1.092,11.144-2.182L93.313,66.388z M89.184,42.853
		c0.078-5.766-2.338-13.248-10.677-13.248c-7.793,0-11.222,7.404-11.845,13.248H89.184z"/>
	<path d="M124.636,31.164c-0.701-0.078-1.402-0.155-2.338-0.155c-7.014,0-10.598,6.935-10.598,14.105v23.067h-6.468V38.411
		c0-4.519-0.078-8.65-0.311-12.702h5.689l0.312,8.182h0.234c1.87-5.299,6.312-9.118,11.533-9.118c0.702,0,1.247,0.155,1.948,0.234
		V31.164z"/>
	<path d="M158.922,16.123c-1.714-1.091-5.455-2.727-10.443-2.727c-8.26,0-11.377,5.065-11.377,9.351
		c0,5.845,3.585,8.806,11.533,12.156c9.585,4.053,14.495,8.962,14.495,17.457c0,9.43-6.858,16.677-19.639,16.677
		c-5.377,0-11.222-1.636-14.183-3.74l1.792-5.377c3.195,2.104,7.949,3.663,12.78,3.663c7.949,0,12.625-4.287,12.625-10.677
		c0-5.845-3.195-9.43-10.91-12.546c-8.962-3.351-15.04-8.572-15.04-16.755c0-9.04,7.325-15.664,18.157-15.664
		c5.611,0,9.897,1.404,12.157,2.806L158.922,16.123z"/>
	<path d="M179.335,32.878c2.961-5.221,7.872-8.182,14.495-8.182c10.053,0,17.3,8.651,17.3,21.664
		c0,15.586-9.118,22.756-18.469,22.756c-5.611,0-10.287-2.571-12.78-6.78h-0.156v23.223h-6.468V39.346
		c0-5.533-0.155-9.819-0.311-13.715h5.844l0.39,7.247H179.335z M179.725,51.27c0,8.26,6.156,12.625,11.924,12.625
		c8.338,0,12.935-7.17,12.935-17.3c0-8.806-4.441-16.6-12.702-16.6c-7.248,0-12.157,7.014-12.157,13.17V51.27z"/>
	<path d="M248.687,58.05c0,3.507,0.078,7.169,0.624,10.13h-5.923l-0.623-5.455h-0.235c-2.181,3.35-6.545,6.39-12.546,6.39
		c-8.104,0-12.391-5.923-12.391-12.079c0-10.208,8.884-15.741,24.626-15.664c0-3.584,0-11.689-9.663-11.689
		c-3.662,0-7.481,1.014-10.364,3.04l-1.559-4.442c3.429-2.26,8.182-3.585,12.936-3.585c12.001,0,15.118,8.494,15.118,16.911V58.05z
		 M242.297,46.126c-8.026,0-18.079,1.169-18.079,10.131c0,5.455,3.429,7.871,7.325,7.871c6.312,0,10.754-4.832,10.754-9.975V46.126z
		"/>
	<path d="M289.829,66.622c-1.87,0.935-6.078,2.416-11.532,2.416c-12.157,0-20.183-8.65-20.183-21.664
		c0-13.092,8.65-22.678,21.741-22.678c4.753,0,8.572,1.402,10.209,2.261l-1.637,5.221c-1.793-1.014-4.597-2.182-8.727-2.182
		c-9.82,0-14.962,7.871-14.962,16.988c0,10.287,6.156,16.755,14.729,16.755c4.207,0,7.091-1.169,9.194-2.104L289.829,66.622z"/>
	<path d="M328.947,66.388c-2.416,1.169-6.858,2.65-13.326,2.65c-12.391,0-19.793-8.728-19.793-21.431
		c0-13.325,7.481-22.911,18.936-22.911c13.092,0,16.443,12.001,16.443,19.404c0,1.481-0.078,2.571-0.155,3.585h-28.912
		c0.078,11.767,6.78,16.21,14.417,16.21c5.299,0,8.494-1.092,11.144-2.182L328.947,66.388z M324.817,42.853
		c0.077-5.766-2.338-13.248-10.677-13.248c-7.792,0-11.222,7.404-11.845,13.248H324.817z"/>
</g>
</svg>
