<?xml version="1.0" encoding="utf-8"?>
<!-- Generator: Adobe Illustrator 16.0.4, SVG Export Plug-In . SVG Version: 6.00 Build 0)  -->
<!DOCTYPE svg PUBLIC "-//W3C//DTD SVG 1.1//EN" "http://www.w3.org/Graphics/SVG/1.1/DTD/svg11.dtd">
<svg version="1.1" id="レイヤー_1" xmlns="http://www.w3.org/2000/svg" xmlns:xlink="http://www.w3.org/1999/xlink" x="0px"
	 y="0px" width="248.9px" height="67px" viewBox="108.448 -211.535 248.9 67" enable-background="new 108.448 -211.535 248.9 67"
	 xml:space="preserve">
<g>
	<path d="M124.031-188.23h4.102v5.713c1.641-2.187,3.457-3.823,5.449-4.907s4.16-1.626,6.504-1.626c2.383,0,4.497,0.605,6.343,1.816
		c1.846,1.211,3.208,2.842,4.087,4.893s1.318,5.244,1.318,9.58v16.406h-4.102v-15.205c0-3.672-0.152-6.123-0.457-7.354
		c-0.475-2.109-1.387-3.696-2.734-4.761c-1.348-1.064-3.105-1.597-5.273-1.597c-2.481,0-4.704,0.82-6.667,2.461
		s-3.257,3.672-3.882,6.094c-0.392,1.582-0.586,4.473-0.586,8.672v11.689h-4.102V-188.23z"/>
	<path d="M175.711-189.051c4.911,0,8.98,1.777,12.209,5.332c2.935,3.242,4.402,7.08,4.402,11.514c0,4.453-1.551,8.345-4.652,11.675
		c-3.101,3.33-7.088,4.995-11.959,4.995c-4.892,0-8.888-1.665-11.989-4.995c-3.102-3.33-4.651-7.222-4.651-11.675
		c0-4.414,1.467-8.242,4.402-11.484C166.7-187.263,170.78-189.051,175.711-189.051z M175.696-185.037
		c-3.41,0-6.341,1.26-8.791,3.779s-3.675,5.566-3.675,9.141c0,2.305,0.559,4.453,1.676,6.445s2.626,3.53,4.527,4.614
		s3.988,1.626,6.263,1.626c2.273,0,4.36-0.542,6.262-1.626s3.41-2.622,4.528-4.614c1.116-1.992,1.676-4.141,1.676-6.445
		c0-3.574-1.23-6.621-3.69-9.141S179.087-185.037,175.696-185.037z"/>
	<path d="M198.357-188.23h4.189v4.658c1.249-1.835,2.567-3.208,3.955-4.116c1.387-0.908,2.831-1.362,4.336-1.362
		c1.132,0,2.344,0.362,3.633,1.084l-2.139,3.457c-0.86-0.371-1.582-0.557-2.168-0.557c-1.367,0-2.686,0.562-3.955,1.685
		c-1.271,1.124-2.237,2.867-2.9,5.229c-0.509,1.816-0.762,5.489-0.762,11.016v10.781h-4.189V-188.23z"/>
	<path d="M249.715-188.23v31.875h-4.043v-5.479c-1.719,2.09-3.647,3.662-5.786,4.717s-4.479,1.582-7.017,1.582
		c-4.512,0-8.364-1.636-11.558-4.907c-3.193-3.271-4.79-7.251-4.79-11.938c0-4.589,1.611-8.515,4.834-11.777
		c3.223-3.262,7.1-4.893,11.631-4.893c2.617,0,4.984,0.557,7.104,1.67c2.119,1.113,3.979,2.783,5.581,5.01v-5.859H249.715z
		 M233.323-185.095c-2.282,0-4.39,0.561-6.321,1.683c-1.932,1.122-3.468,2.698-4.609,4.727c-1.141,2.029-1.711,4.175-1.711,6.438
		c0,2.244,0.575,4.39,1.726,6.438c1.151,2.048,2.697,3.644,4.639,4.785c1.94,1.142,4.023,1.712,6.248,1.712
		c2.243,0,4.369-0.566,6.379-1.697c2.01-1.132,3.556-2.663,4.639-4.594c1.082-1.931,1.624-4.106,1.624-6.526
		c0-3.687-1.215-6.77-3.644-9.247S236.873-185.095,233.323-185.095z"/>
	<path d="M258.328-200.535h4.102v44.18h-4.102V-200.535z"/>
	<path d="M297.791-166.931l3.457,1.816c-1.135,2.227-2.443,4.024-3.93,5.391c-1.486,1.367-3.157,2.407-5.014,3.12
		c-1.858,0.713-3.96,1.069-6.306,1.069c-5.2,0-9.266-1.704-12.198-5.112c-2.933-3.408-4.398-7.261-4.398-11.558
		c0-4.043,1.241-7.646,3.724-10.811c3.147-4.023,7.36-6.035,12.639-6.035c5.435,0,9.774,2.061,13.019,6.182
		c2.307,2.911,3.48,6.543,3.52,10.898h-28.682c0.078,3.702,1.261,6.737,3.549,9.105s5.114,3.551,8.478,3.551
		c1.623,0,3.201-0.282,4.737-0.846c1.534-0.564,2.84-1.313,3.915-2.248C295.376-163.342,296.539-164.849,297.791-166.931z
		 M297.791-175.515c-0.549-2.187-1.346-3.936-2.391-5.244c-1.047-1.308-2.43-2.363-4.15-3.164c-1.722-0.801-3.53-1.201-5.427-1.201
		c-3.129,0-5.818,1.006-8.066,3.018c-1.644,1.465-2.885,3.662-3.726,6.592H297.791z"/>
	<path d="M341.766-200.535v44.18h-4.043v-5.479c-1.719,2.09-3.648,3.662-5.787,4.717s-4.477,1.582-7.016,1.582
		c-4.512,0-8.365-1.636-11.559-4.907c-3.193-3.271-4.789-7.251-4.789-11.938c0-4.589,1.611-8.515,4.834-11.777
		c3.223-3.262,7.1-4.893,11.631-4.893c2.617,0,4.984,0.557,7.104,1.67s3.98,2.783,5.582,5.01v-18.164H341.766z M325.373-185.095
		c-2.281,0-4.389,0.561-6.32,1.683c-1.932,1.122-3.469,2.698-4.609,4.727s-1.711,4.175-1.711,6.438c0,2.244,0.574,4.39,1.727,6.438
		c1.15,2.048,2.697,3.644,4.637,4.785c1.941,1.142,4.023,1.712,6.248,1.712c2.244,0,4.371-0.566,6.381-1.697
		c2.008-1.132,3.555-2.663,4.637-4.594s1.625-4.106,1.625-6.526c0-3.687-1.215-6.77-3.645-9.247
		C331.914-183.856,328.924-185.095,325.373-185.095z"/>
</g>
</svg>
