<?xml version="1.0" encoding="utf-8"?>
<!-- Generator: Adobe Illustrator 16.0.4, SVG Export Plug-In . SVG Version: 6.00 Build 0)  -->
<!DOCTYPE svg PUBLIC "-//W3C//DTD SVG 1.1//EN" "http://www.w3.org/Graphics/SVG/1.1/DTD/svg11.dtd">
<svg version="1.1" id="レイヤー_1" xmlns="http://www.w3.org/2000/svg" xmlns:xlink="http://www.w3.org/1999/xlink" x="0px"
	 y="0px" width="343.081px" height="77.411px" viewBox="131.349 18.058 343.081 77.411"
	 enable-background="new 131.349 18.058 343.081 77.411" xml:space="preserve">
<g>
	<path d="M165.351,43.231c4.911,0,8.98,1.777,12.209,5.332c2.935,3.242,4.402,7.08,4.402,11.514c0,4.453-1.551,8.345-4.652,11.675
		s-7.088,4.994-11.959,4.994c-4.892,0-8.888-1.664-11.989-4.994c-3.102-3.33-4.652-7.223-4.652-11.675
		c0-4.414,1.467-8.242,4.402-11.484C156.341,45.018,160.42,43.231,165.351,43.231z M165.336,47.245c-3.41,0-6.341,1.26-8.791,3.779
		c-2.45,2.52-3.675,5.566-3.675,9.141c0,2.304,0.559,4.453,1.676,6.445s2.626,3.531,4.528,4.615
		c1.901,1.084,3.988,1.625,6.262,1.625c2.273,0,4.361-0.541,6.262-1.625c1.901-1.084,3.41-2.623,4.528-4.615
		c1.117-1.992,1.676-4.141,1.676-6.445c0-3.574-1.23-6.621-3.69-9.141S168.727,47.245,165.336,47.245z"/>
	<path d="M186.009,44.052h4.102v5.859c1.62-2.227,3.482-3.896,5.59-5.01c2.107-1.113,4.458-1.67,7.053-1.67
		c4.526,0,8.399,1.631,11.619,4.893c3.22,3.262,4.83,7.188,4.83,11.777c0,4.687-1.595,8.667-4.786,11.939
		c-3.19,3.271-7.039,4.906-11.545,4.906c-2.537,0-4.869-0.527-6.995-1.582c-2.127-1.055-4.049-2.626-5.766-4.717v17.139h-4.102
		V44.052z M202.415,47.186c-3.547,0-6.533,1.239-8.959,3.717s-3.639,5.56-3.639,9.247c0,2.419,0.541,4.594,1.622,6.526
		s2.63,3.463,4.647,4.594c2.017,1.132,4.146,1.697,6.387,1.697c2.202,0,4.272-0.57,6.211-1.711c1.939-1.142,3.483-2.736,4.633-4.785
		c1.149-2.048,1.725-4.194,1.725-6.438c0-2.263-0.57-4.409-1.71-6.438c-1.14-2.029-2.674-3.604-4.604-4.727
		C206.799,47.747,204.695,47.186,202.415,47.186z"/>
	<path d="M225.652,32.216h4.102v11.836h6.504v3.545h-6.504v28.33h-4.102v-28.33h-5.596v-3.545h5.596V32.216z"/>
	<path d="M242.631,30.927c0.934,0,1.731,0.333,2.392,0.996c0.661,0.664,0.992,1.465,0.992,2.402c0,0.918-0.331,1.709-0.992,2.373
		c-0.661,0.664-1.458,0.996-2.392,0.996c-0.914,0-1.702-0.332-2.363-0.996c-0.661-0.664-0.992-1.455-0.992-2.373
		c0-0.938,0.331-1.738,0.992-2.402C240.929,31.259,241.717,30.927,242.631,30.927z M240.595,44.052h4.102v31.875h-4.102V44.052z"/>
	<path d="M253.192,44.052h4.102v5.508c1.427-2.031,2.894-3.516,4.399-4.453c2.073-1.25,4.253-1.875,6.541-1.875
		c1.544,0,3.011,0.303,4.399,0.908c1.388,0.605,2.522,1.411,3.403,2.417c0.879,1.006,1.643,2.446,2.287,4.321
		c1.363-2.5,3.068-4.399,5.115-5.698c2.047-1.299,4.248-1.948,6.605-1.948c2.201,0,4.145,0.557,5.83,1.67
		c1.686,1.113,2.938,2.666,3.756,4.658s1.229,4.98,1.229,8.965v17.402h-4.189V58.524c0-3.417-0.244-5.767-0.73-7.046
		c-0.486-1.279-1.318-2.31-2.496-3.091c-1.178-0.781-2.584-1.172-4.221-1.172c-1.984,0-3.801,0.586-5.445,1.758
		s-2.848,2.735-3.605,4.688c-0.76,1.953-1.139,5.215-1.139,9.785v12.48h-4.102V59.608c0-3.848-0.24-6.46-0.718-7.837
		c-0.479-1.377-1.314-2.48-2.505-3.311c-1.191-0.83-2.607-1.245-4.248-1.245c-1.895,0-3.667,0.571-5.317,1.714
		c-1.651,1.143-2.871,2.681-3.662,4.614s-1.187,4.893-1.187,8.877v13.505h-4.102V44.052z"/>
	<path d="M338.858,44.052v31.875h-4.043v-5.479c-1.719,2.091-3.646,3.662-5.785,4.717s-4.479,1.582-7.018,1.582
		c-4.512,0-8.363-1.635-11.557-4.906s-4.791-7.252-4.791-11.939c0-4.589,1.611-8.515,4.834-11.777
		c3.223-3.262,7.1-4.893,11.631-4.893c2.617,0,4.986,0.557,7.105,1.67s3.979,2.783,5.58,5.01v-5.859H338.858z M322.468,47.186
		c-2.283,0-4.391,0.561-6.322,1.683c-1.932,1.122-3.467,2.698-4.607,4.727c-1.143,2.029-1.713,4.175-1.713,6.438
		c0,2.244,0.576,4.39,1.727,6.438c1.15,2.049,2.697,3.644,4.639,4.785c1.941,1.141,4.023,1.711,6.248,1.711
		c2.242,0,4.369-0.565,6.379-1.697c2.01-1.131,3.555-2.662,4.639-4.594c1.082-1.932,1.623-4.106,1.623-6.526
		c0-3.687-1.215-6.77-3.643-9.247C329.007,48.426,326.019,47.186,322.468,47.186z"/>
	<path d="M345.071,31.747h4.102v44.179h-4.102V31.747z"/>
	<path d="M385.882,31.747h0.873v30.059h5.215v4.101h-5.215v10.02h-4.277v-10.02h-20.625L385.882,31.747z M382.478,61.805V43.704
		L369.71,61.805H382.478z"/>
	<path d="M395.485,54.393c0-5.684,0.609-10.078,1.83-13.184s2.945-5.459,5.172-7.061c2.227-1.601,4.717-2.402,7.471-2.402
		c2.793,0,5.322,0.806,7.588,2.417s4.057,4.028,5.375,7.251s1.979,7.549,1.979,12.979c0,5.41-0.65,9.716-1.949,12.919
		c-1.299,3.204-3.09,5.621-5.375,7.252c-2.285,1.63-4.824,2.445-7.617,2.445c-2.754,0-5.234-0.791-7.441-2.373
		s-3.932-3.939-5.172-7.074S395.485,60.038,395.485,54.393z M399.558,54.467c0,4.867,0.434,8.547,1.303,11.04
		s2.154,4.383,3.854,5.673s3.496,1.935,5.391,1.935c1.914,0,3.701-0.63,5.361-1.891s2.92-3.152,3.779-5.674
		c1.074-3.068,1.611-6.763,1.611-11.083c0-4.339-0.479-7.892-1.436-10.658c-0.957-2.766-2.281-4.789-3.971-6.069
		s-3.471-1.921-5.346-1.921c-1.914,0-3.711,0.641-5.391,1.921s-2.959,3.166-3.838,5.658S399.558,49.58,399.558,54.467z"/>
	<path d="M452.386,31.747h0.873v30.059h5.215v4.101h-5.215v10.02h-4.277v-10.02h-20.625L452.386,31.747z M448.981,61.805V43.704
		l-12.768,18.102H448.981z"/>
</g>
</svg>
