<?xml version="1.0" encoding="utf-8"?>
<!-- Generator: Adobe Illustrator 24.0.0, SVG Export Plug-In . SVG Version: 6.00 Build 0)  -->
<svg version="1.1" id="レイヤー_1" xmlns="http://www.w3.org/2000/svg" xmlns:xlink="http://www.w3.org/1999/xlink" x="0px"
	 y="0px" viewBox="-200 0 700 93.5" enable-background="new -200 0 700 93.5" xml:space="preserve">
<g>
	<path d="M-56.386,12.476c3.168-0.576,7.345-1.08,12.457-1.08c17.713,0,19.154,11.377,19.154,15.697
		c0,12.889-10.297,17.497-20.018,17.497c-2.088,0-3.96-0.071-5.616-0.504v22.538h-5.977V12.476z M-50.409,39.117
		c1.512,0.433,3.456,0.576,5.76,0.576c8.641,0,13.897-4.32,13.897-12.169S-36.368,16.22-43.857,16.22
		c-3.024,0-5.256,0.288-6.552,0.576V39.117z"/>
	<path d="M17.776,46.679c0,14.617-9.648,20.81-18.361,20.81c-10.081,0-17.857-7.561-17.857-20.234
		c0-13.393,8.353-20.81,18.361-20.81C10.648,26.444,17.776,34.653,17.776,46.679z M-0.297,31.125
		c-8.497,0-12.025,8.353-12.025,15.913c0,8.713,4.824,15.77,11.881,15.77c7.128,0,12.097-7.057,12.097-15.913
		C11.656,39.91,8.272,31.125-0.297,31.125z"/>
	<path d="M32.821,66.624h-5.977V9.019h5.977V66.624z"/>
	<path d="M74.294,27.381L63.853,55.175c-4.68,12.745-7.993,20.09-12.889,24.698c-3.312,3.024-6.552,4.248-7.993,4.608l-1.656-5.04
		c9.145-3.385,12.673-13.321,12.673-14.113c0-0.36-0.144-0.937-0.432-1.656L39.659,27.381h6.552l8.569,23.834
		c1.008,2.736,1.872,5.832,2.52,8.209h0.216c0.648-2.377,1.584-5.329,2.52-8.354l7.921-23.689H74.294z"/>
	<path d="M112.814,27.309c-0.216,2.809-0.36,5.977-0.36,10.801v22.898c0,6.84-0.144,22.538-18.722,22.538
		c-4.464,0-9.361-1.08-12.313-3.097l1.584-4.681c2.52,1.513,6.336,2.952,11.017,2.952c7.201,0,12.457-3.816,12.457-14.185v-4.681
		h-0.144c-2.016,3.672-6.192,6.696-12.169,6.696c-9.361,0-16.058-8.28-16.058-19.298c0-13.608,8.497-20.81,16.994-20.81
		c6.696,0,10.225,3.601,11.881,6.769h0.144l0.288-5.904H112.814z M106.405,42.43c0-6.841-4.968-11.161-10.441-11.161
		c-6.913,0-11.737,6.121-11.737,15.626c0,8.353,4.032,14.905,11.665,14.905c4.464,0,10.513-3.385,10.513-11.521V42.43z"/>
	<path d="M157.597,46.679c0,14.617-9.648,20.81-18.361,20.81c-10.081,0-17.857-7.561-17.857-20.234
		c0-13.393,8.353-20.81,18.361-20.81C150.469,26.444,157.597,34.653,157.597,46.679z M139.524,31.125
		c-8.497,0-12.025,8.353-12.025,15.913c0,8.713,4.824,15.77,11.88,15.77c7.129,0,12.098-7.057,12.098-15.913
		C151.477,39.91,148.092,31.125,139.524,31.125z"/>
	<path d="M198.06,66.624h-5.977V43.438c0-6.409-2.304-12.025-9.145-12.025c-5.112,0-10.297,4.32-10.297,11.161v24.05h-5.977V37.462
		c0-4.033-0.144-6.985-0.288-10.153h5.329l0.359,6.408h0.145c1.944-3.816,6.48-7.272,12.601-7.272
		c4.896,0,13.249,2.952,13.249,16.273V66.624z"/>
	<path d="M241.979,16.868h-16.201v49.756h-5.977V16.868h-16.13v-5.041h38.308V16.868z"/>
	<path d="M275.891,27.381L265.45,55.175c-4.681,12.745-7.993,20.09-12.89,24.698c-3.312,3.024-6.553,4.248-7.992,4.608l-1.656-5.04
		c9.145-3.385,12.673-13.321,12.673-14.113c0-0.36-0.145-0.937-0.432-1.656l-13.897-36.291h6.553l8.568,23.834
		c1.008,2.736,1.872,5.832,2.521,8.209h0.216c0.648-2.377,1.584-5.329,2.521-8.354l7.92-23.689H275.891z"/>
	<path d="M288.129,34.005c2.736-4.824,7.273-7.561,13.394-7.561c9.289,0,15.985,7.993,15.985,20.018
		c0,14.401-8.425,21.026-17.065,21.026c-5.185,0-9.505-2.376-11.809-6.265h-0.145v21.458h-5.977v-42.7
		c0-5.112-0.144-9.072-0.288-12.673h5.4l0.36,6.696H288.129z M288.489,50.999c0,7.632,5.688,11.665,11.018,11.665
		c7.704,0,11.952-6.625,11.952-15.985c0-8.137-4.104-15.338-11.736-15.338c-6.697,0-11.233,6.48-11.233,12.169V50.999z"/>
	<path d="M354.299,64.968c-2.232,1.08-6.337,2.448-12.313,2.448c-11.449,0-18.289-8.064-18.289-19.802
		c0-12.312,6.912-21.17,17.497-21.17c12.097,0,15.193,11.089,15.193,17.93c0,1.368-0.072,2.376-0.144,3.312h-26.715
		c0.072,10.873,6.265,14.978,13.321,14.978c4.896,0,7.849-1.009,10.297-2.017L354.299,64.968z M350.482,43.222
		c0.072-5.328-2.16-12.241-9.865-12.241c-7.2,0-10.369,6.841-10.944,12.241H350.482z"/>
</g>
</svg>
