<?xml version="1.0" encoding="utf-8"?>
<!-- Generator: Adobe Illustrator 16.0.4, SVG Export Plug-In . SVG Version: 6.00 Build 0)  -->
<!DOCTYPE svg PUBLIC "-//W3C//DTD SVG 1.1//EN" "http://www.w3.org/Graphics/SVG/1.1/DTD/svg11.dtd">
<svg version="1.1" id="レイヤー_1" xmlns="http://www.w3.org/2000/svg" xmlns:xlink="http://www.w3.org/1999/xlink" x="0px"
	 y="0px" width="500px" height="93.5px" viewBox="0 0 500 93.5" enable-background="new 0 0 500 93.5" xml:space="preserve">
<g>
	<path d="M589.206,75.516h40.685v3.603h-40.685V75.516z"/>
	<path d="M629.885,75.516h40.685v3.603h-40.685V75.516L629.885,75.516z"/>
	<path d="M715.929,40.521c-1.369,8.352-3.529,15.266-7.488,20.09c2.664,2.879,5.328,5.76,8.712,9.504h-7.2
		c-1.512-1.656-2.952-3.168-5.186-5.545c-4.751,4.537-9.864,6.41-15.624,6.41c-10.082,0-16.059-7.058-16.059-15.267
		c0-7.272,4.249-12.458,10.441-16.129v-0.217c-2.809-3.744-4.536-7.776-4.536-11.736c0-6.625,4.608-13.249,13.104-13.249
		c6.266,0,11.305,4.248,11.305,11.377c0,5.76-3.312,10.225-11.952,14.688v0.288c4.536,5.473,9.937,11.81,13.824,16.273
		c2.521-4.104,4.105-9.721,5.113-16.489L715.929,40.521L715.929,40.521z M701.743,61.043c-3.457-4.033-9.577-10.945-15.481-18.001
		c-3.096,2.016-7.345,5.688-7.345,11.808c0,6.48,4.608,11.521,11.233,11.521C694.614,66.371,698.862,64.428,701.743,61.043z
		 M684.533,27.056c0,4.104,1.872,7.272,4.104,10.297c5.688-3.24,9.361-6.409,9.361-11.233c0-3.6-1.873-7.416-6.48-7.416
		C686.766,18.704,684.533,22.879,684.533,27.056z"/>
	<path d="M759.558,68.459c-2.52,1.225-7.416,2.449-13.68,2.449c-14.113,0-25.49-9.145-25.49-27.723
		c0-17.713,11.017-28.73,27.074-28.73c6.553,0,10.369,1.368,12.096,2.232l-1.584,5.04c-2.52-1.224-6.047-2.231-10.369-2.231
		c-12.457,0-20.952,8.353-20.952,23.474c0,14.402,7.776,22.898,20.594,22.898c4.176,0,8.281-0.937,11.019-2.232L759.558,68.459z"/>
	<path d="M801.39,50.17c0,14.617-9.647,20.811-18.36,20.811c-10.082,0-17.857-7.561-17.857-20.233
		c0-13.393,8.353-20.81,18.361-20.81C794.261,29.936,801.39,38.145,801.39,50.17z M783.315,34.617
		c-8.495,0-12.022,8.353-12.022,15.913c0,8.713,4.824,15.77,11.881,15.77c7.128,0,12.097-7.057,12.097-15.911
		C795.269,43.402,791.884,34.617,783.315,34.617z"/>
	<path d="M808.802,66.443c0-2.736,1.801-4.68,4.32-4.68s4.248,1.942,4.248,4.68c0,2.592-1.656,4.537-4.32,4.537
		C810.313,70.98,808.802,68.82,808.802,66.443z"/>
</g>
<g>
	<path d="M29.614,65.904l5.188-3.112c3.652,6.723,7.871,10.085,12.658,10.085c2.048,0,3.971-0.478,5.77-1.432
		c1.798-0.955,3.168-2.234,4.108-3.839c0.94-1.605,1.411-3.307,1.411-5.105c0-2.047-0.691-4.053-2.075-6.018
		c-1.909-2.712-5.396-5.978-10.459-9.795c-5.091-3.846-8.259-6.626-9.504-8.342c-2.158-2.877-3.237-5.99-3.237-9.338
		c0-2.656,0.636-5.077,1.909-7.263c1.272-2.186,3.063-3.908,5.375-5.167c2.31-1.259,4.82-1.889,7.532-1.889
		c2.878,0,5.568,0.713,8.073,2.138c2.503,1.425,5.152,4.046,7.947,7.865l-4.98,3.777c-2.297-3.043-4.254-5.049-5.872-6.018
		c-1.619-0.968-3.383-1.453-5.292-1.453c-2.463,0-4.477,0.747-6.039,2.241c-1.563,1.494-2.345,3.334-2.345,5.52
		c0,1.328,0.276,2.615,0.83,3.86c0.553,1.245,1.562,2.601,3.029,4.067c0.803,0.775,3.431,2.809,7.886,6.101
		c5.285,3.901,8.909,7.374,10.874,10.417s2.947,6.102,2.947,9.172c0,4.428-1.681,8.273-5.043,11.539
		c-3.361,3.265-7.45,4.896-12.265,4.896c-3.708,0-7.069-0.989-10.085-2.967C34.94,73.866,32.16,70.553,29.614,65.904z"/>
	<path d="M78.257,16.224h6.226v22.911l24.404-22.911h8.197L87.762,43.617l31.605,33.66h-8.127L84.482,48.839v28.438h-6.226V16.224z"
		/>
	<path d="M153.421,16.224l28.472,61.052h-6.59L165.7,57.188h-26.302l-9.511,20.088h-6.807l28.846-61.052H153.421z M152.65,29.195
		l-10.462,22.1h20.873L152.65,29.195z"/>
	<path d="M178.406,22.201v-5.977h33.452v5.977h-13.613v55.076h-6.226V22.201H178.406z"/>
	<path d="M220.698,16.224h34.989v5.977H226.8v19.133h28.638v5.977H226.8V71.3h28.638v5.977h-34.739V16.224z"/>
	<path d="M309.102,41.5l-4.607,2.864c-3.979-5.285-9.41-7.927-16.292-7.927c-5.5,0-10.066,1.769-13.7,5.307
		c-3.635,3.538-5.451,7.835-5.451,12.893c0,3.289,0.835,6.385,2.507,9.287s3.967,5.154,6.882,6.757
		c2.916,1.603,6.184,2.405,9.805,2.405c6.633,0,12.05-2.643,16.25-7.928l4.607,3.029c-2.158,3.251-5.057,5.771-8.695,7.564
		c-3.639,1.791-7.781,2.688-12.43,2.688c-7.139,0-13.061-2.269-17.764-6.807c-4.705-4.537-7.057-10.058-7.057-16.561
		c0-4.371,1.101-8.431,3.3-12.181c2.2-3.749,5.223-6.675,9.069-8.778c3.845-2.103,8.147-3.154,12.907-3.154
		c2.988,0,5.873,0.457,8.653,1.37c2.781,0.913,5.14,2.103,7.076,3.569C306.099,37.364,307.745,39.231,309.102,41.5z"/>
	<path d="M325.33,15.353h5.811V32.12h9.214v5.022h-9.214v40.134h-5.811V37.142h-7.927V32.12h7.927V15.353z"/>
	<path d="M348.323,32.12h5.811v21.084c0,5.146,0.277,8.688,0.831,10.625c0.832,2.768,2.418,4.953,4.76,6.558
		c2.341,1.604,5.133,2.407,8.375,2.407s5.992-0.781,8.251-2.345c2.258-1.563,3.817-3.618,4.677-6.163
		c0.581-1.744,0.873-5.438,0.873-11.082V32.12h5.935v22.163c0,6.226-0.727,10.915-2.179,14.069
		c-1.453,3.154-3.639,5.624-6.558,7.409c-2.92,1.784-6.579,2.677-10.978,2.677c-4.4,0-8.073-0.893-11.02-2.677
		c-2.947-1.785-5.146-4.275-6.6-7.471c-1.452-3.196-2.179-8.003-2.179-14.423V32.12z"/>
	<path d="M398.543,32.12h5.935v6.599c1.771-2.601,3.638-4.544,5.603-5.832c1.965-1.286,4.012-1.93,6.143-1.93
		c1.604,0,3.32,0.512,5.146,1.536l-3.029,4.897c-1.218-0.525-2.241-0.789-3.071-0.789c-1.938,0-3.805,0.796-5.603,2.387
		c-1.8,1.591-3.169,4.061-4.109,7.408c-0.72,2.573-1.079,7.775-1.079,15.605v15.273h-5.935V32.12z"/>
	<path d="M463.994,62.294l4.897,2.572c-1.606,3.154-3.462,5.701-5.566,7.637c-2.105,1.938-4.473,3.411-7.104,4.421
		c-2.632,1.009-5.609,1.515-8.933,1.515c-7.366,0-13.127-2.414-17.281-7.242s-6.23-10.286-6.23-16.373
		c0-5.728,1.758-10.833,5.275-15.315c4.458-5.7,10.426-8.55,17.904-8.55c7.699,0,13.847,2.919,18.443,8.757
		c3.269,4.123,4.93,9.269,4.985,15.44h-40.632c0.109,5.244,1.786,9.544,5.027,12.898c3.241,3.354,7.244,5.031,12.01,5.031
		c2.299,0,4.535-0.4,6.71-1.199s4.023-1.861,5.548-3.184C460.572,67.379,462.221,65.243,463.994,62.294z M463.994,50.133
		c-0.775-3.099-1.904-5.575-3.387-7.429c-1.482-1.854-3.442-3.348-5.88-4.482c-2.438-1.134-5.001-1.702-7.688-1.702
		c-4.434,0-8.242,1.425-11.428,4.275c-2.328,2.075-4.087,5.188-5.278,9.338H463.994z"/>
</g>
<text transform="matrix(1 0 0 1 26.875 -161.1016)" font-family="'CenturyGothic'" font-size="85">SKATEcture</text>
</svg>
