<?xml version="1.0" encoding="utf-8"?>
<!-- Generator: Adobe Illustrator 22.0.1, SVG Export Plug-In . SVG Version: 6.00 Build 0)  -->
<svg version="1.1" id="レイヤー_1" xmlns="http://www.w3.org/2000/svg" xmlns:xlink="http://www.w3.org/1999/xlink" x="0px"
	 y="0px" width="903.122px" height="93.5px" viewBox="-349.125 0 903.122 93.5" enable-background="new -349.125 0 903.122 93.5"
	 xml:space="preserve">
<g>
	<path d="M294.721-226.33c6.549,0,11.975,2.369,16.277,7.109c3.914,4.322,5.871,9.439,5.871,15.352
		c0,5.939-2.068,11.127-6.203,15.566c-4.135,4.439-9.451,6.66-15.945,6.66c-6.522,0-11.852-2.221-15.984-6.66
		c-4.135-4.439-6.203-9.629-6.203-15.566c0-5.885,1.957-10.989,5.869-15.312C282.707-223.947,288.147-226.33,294.721-226.33z
		 M294.701-220.978c-4.547,0-8.455,1.68-11.721,5.039c-3.268,3.359-4.9,7.422-4.9,12.187c0,3.072,0.744,5.938,2.234,8.594
		c1.49,2.656,3.502,4.707,6.037,6.152c2.533,1.445,5.316,2.168,8.35,2.168c3.031,0,5.814-0.723,8.35-2.168
		c2.535-1.445,4.549-3.496,6.037-6.152c1.49-2.656,2.234-5.52,2.234-8.594c0-4.766-1.641-8.828-4.92-12.187
		C303.123-219.299,299.223-220.978,294.701-220.978z"/>
	<path d="M322.266-225.236h5.469v7.812c2.158-2.97,4.643-5.195,7.453-6.681c2.809-1.485,5.943-2.228,9.402-2.228
		c6.035,0,11.199,2.174,15.492,6.523c4.293,4.35,6.439,9.584,6.439,15.703c0,6.25-2.127,11.557-6.381,15.918
		s-9.385,6.543-15.395,6.543c-3.383,0-6.492-0.703-9.326-2.109c-2.836-1.406-5.398-3.502-7.688-6.289v22.852h-5.469v-58.045H322.266
		z M344.141-221.057c-4.73,0-8.711,1.652-11.945,4.955c-3.236,3.305-4.853,7.414-4.853,12.33c0,3.225,0.723,6.125,2.164,8.701
		c1.441,2.574,3.508,4.615,6.195,6.125c2.689,1.508,5.527,2.264,8.516,2.264c2.938,0,5.695-0.762,8.281-2.283
		c2.586-1.521,4.645-3.648,6.178-6.379c1.533-2.73,2.301-5.592,2.301-8.584c0-3.018-0.762-5.879-2.281-8.584
		c-1.52-2.705-3.564-4.806-6.137-6.302C349.987-220.309,347.18-221.057,344.141-221.057z"/>
	<path d="M375.123-241.018h5.469v15.781h8.672v4.727h-8.672v37.773h-5.469v-37.773h-7.461v-4.727h7.461V-241.018z"/>
	<path d="M397.76-242.736c1.244,0,2.309,0.443,3.189,1.328c0.881,0.885,1.322,1.953,1.322,3.203c0,1.225-0.441,2.278-1.322,3.164
		c-0.881,0.885-1.945,1.328-3.189,1.328c-1.219,0-2.27-0.443-3.148-1.328c-0.883-0.886-1.322-1.939-1.322-3.164
		c0-1.25,0.439-2.318,1.322-3.203C395.492-242.293,396.543-242.736,397.76-242.736z M395.045-225.236h5.471v42.5h-5.471V-225.236z"
		/>
	<path d="M411.842-225.236h5.471v7.344c1.902-2.709,3.857-4.687,5.865-5.937c2.764-1.666,5.672-2.5,8.723-2.5
		c2.059,0,4.014,0.403,5.865,1.211c1.85,0.807,3.361,1.881,4.535,3.223c1.174,1.342,2.189,3.262,3.051,5.762
		c1.818-3.334,4.092-5.865,6.818-7.598c2.728-1.732,5.664-2.598,8.809-2.598c2.936,0,5.527,0.742,7.774,2.227
		c2.248,1.484,3.916,3.555,5.008,6.211c1.092,2.656,1.639,6.641,1.639,11.953v23.203h-5.586v-23.203
		c0-4.557-0.324-7.689-0.975-9.395c-0.648-1.705-1.76-3.08-3.33-4.121c-1.568-1.041-3.443-1.562-5.625-1.562
		c-2.646,0-5.066,0.781-7.262,2.344c-2.193,1.562-3.795,3.646-4.809,6.25c-1.012,2.604-1.518,6.953-1.518,13.047v16.641h-5.469
		v-21.758c0-5.131-0.32-8.612-0.957-10.448c-0.639-1.837-1.752-3.308-3.34-4.414c-1.59-1.107-3.479-1.66-5.664-1.66
		c-2.527,0-4.891,0.763-7.09,2.285c-2.201,1.522-3.828,3.573-4.883,6.151c-1.057,2.578-1.582,6.524-1.582,11.836v18.008h-5.471
		v-42.5H411.842z"/>
	<path d="M526.066-225.236v42.5h-5.392v-7.305c-2.291,2.787-4.861,4.883-7.715,6.289c-2.852,1.406-5.971,2.109-9.354,2.109
		c-6.018,0-11.152-2.184-15.41-6.545c-4.258-4.359-6.387-9.668-6.387-15.918c0-6.117,2.146-11.354,6.443-15.702
		c4.297-4.349,9.467-6.522,15.508-6.522c3.49,0,6.646,0.742,9.475,2.227c2.824,1.484,5.305,3.711,7.44,6.68v-7.812H526.066
		L526.066-225.236z M504.208-221.057c-3.043,0-5.852,0.748-8.428,2.243c-2.576,1.496-4.623,3.597-6.146,6.302
		c-1.522,2.705-2.281,5.566-2.281,8.584c0,2.992,0.768,5.854,2.303,8.584c1.533,2.73,3.596,4.857,6.184,6.379
		c2.588,1.521,5.365,2.283,8.33,2.283c2.992,0,5.826-0.756,8.506-2.264c2.68-1.51,4.74-3.551,6.186-6.125
		c1.443-2.576,2.166-5.477,2.166-8.701c0-4.916-1.619-9.025-4.857-12.33C512.929-219.404,508.945-221.057,504.208-221.057z"/>
	<path d="M534.349-241.643h5.469v58.906h-5.469V-241.643z"/>
	<path d="M588.761-241.643h1.164v40.078h6.953v5.469h-6.953v13.359h-5.701v-13.359h-27.5L588.761-241.643z M584.224-201.564v-24.137
		L567.2-201.564H584.224z"/>
	<path d="M601.568-211.447c0-7.577,0.81-13.438,2.439-17.577c1.627-4.142,3.928-7.279,6.896-9.414
		c2.969-2.136,6.289-3.203,9.961-3.203c3.723,0,7.096,1.074,10.117,3.224c3.02,2.148,5.41,5.371,7.168,9.668
		c1.758,4.297,2.637,10.064,2.637,17.305c0,7.213-0.867,12.955-2.598,17.227c-1.732,4.271-4.121,7.494-7.168,9.668
		c-3.047,2.174-6.435,3.262-10.156,3.262c-3.672,0-6.98-1.055-9.922-3.164c-2.943-2.109-5.242-5.254-6.896-9.434
		C602.394-198.068,601.568-203.922,601.568-211.447z M606.997-211.35c0,6.488,0.578,11.396,1.738,14.719
		c1.158,3.322,2.871,5.844,5.137,7.564c2.266,1.721,4.66,2.58,7.188,2.58c2.551,0,4.934-0.842,7.148-2.521
		c2.213-1.682,3.893-4.203,5.039-7.564c1.432-4.092,2.148-9.018,2.148-14.776c0-5.786-0.641-10.522-1.914-14.211
		c-1.277-3.688-3.041-6.386-5.293-8.092c-2.254-1.707-4.629-2.562-7.129-2.562c-2.555,0-4.949,0.855-7.19,2.562
		c-2.24,1.706-3.945,4.222-5.117,7.545C607.583-222.785,606.997-217.865,606.997-211.35z"/>
	<path d="M677.433-241.643h1.164v40.078h6.953v5.469h-6.953v13.359h-5.703v-13.359h-27.498L677.433-241.643z M672.894-201.564
		v-24.137l-17.021,24.137H672.894z"/>
</g>
<g>
	<path d="M3.583-148.325h-7.057l-17.93-27.507l-5.112,5.977v21.53h-5.977v-54.869h5.977v26.787h0.288
		c1.368-2.089,2.88-4.105,4.248-5.905l16.705-20.882H2.07l-19.298,23.33L3.583-148.325z"/>
	<path d="M46.998-170.359c0,16.489-8.497,22.898-19.441,22.898c-10.225,0-18.361-5.977-18.361-22.538v-33.123h5.977v33.195
		c0,12.457,5.472,17.497,12.673,17.497c7.92,0,13.177-5.328,13.177-17.497v-33.195h5.977V-170.359z"/>
	<path d="M59.234-203.194h5.977v54.869h-5.977V-203.194z"/>
	<path d="M102.004-196.426c-1.584-1.008-5.04-2.52-9.649-2.52c-7.632,0-10.512,4.68-10.512,8.641c0,5.4,3.312,8.137,10.656,11.232
		c8.858,3.745,13.394,8.281,13.394,16.13c0,8.713-6.337,15.409-18.145,15.409c-4.969,0-10.369-1.512-13.105-3.456l1.656-4.969
		c2.952,1.944,7.345,3.385,11.809,3.385c7.346,0,11.666-3.961,11.666-9.865c0-5.4-2.953-8.713-10.082-11.593
		c-8.28-3.097-13.896-7.921-13.896-15.481c0-8.353,6.769-14.474,16.777-14.474c5.185,0,9.145,1.297,11.232,2.593L102.004-196.426z"
		/>
</g>
<g>
	<path d="M795.166-350.478c4.248,1.368,6.769,5.473,8.064,11.449c1.729,7.921,2.952,12.745,4.032,14.833h-6.192
		c-0.864-1.584-2.088-6.408-3.528-13.249c-1.584-7.633-4.608-11.017-11.089-11.017h-6.696v24.266h-5.977v-54.077
		c3.384-0.72,8.137-1.151,12.457-1.151c7.128,0,11.809,1.439,15.049,4.464c2.593,2.376,4.104,6.121,4.104,10.225
		c0,7.272-4.393,11.952-10.225,14.041V-350.478z M786.814-353.07c7.632,0,12.528-4.321,12.528-10.945
		c0-8.137-6.12-10.657-12.816-10.657c-3.24,0-5.545,0.288-6.769,0.576v21.026H786.814z"/>
	<path d="M842.829-325.852c-2.231,1.08-6.336,2.448-12.312,2.448c-11.449,0-18.29-8.064-18.29-19.802
		c0-12.312,6.913-21.17,17.498-21.17c12.097,0,15.193,11.089,15.193,17.93c0,1.368-0.072,2.376-0.145,3.312H818.06
		c0.072,10.873,6.265,14.978,13.321,14.978c4.896,0,7.849-1.009,10.297-2.017L842.829-325.852z M839.014-347.599
		c0.071-5.328-2.161-12.241-9.865-12.241c-7.201,0-10.369,6.841-10.945,12.241H839.014z"/>
	<path d="M852.187-327.868c0-2.736,1.8-4.681,4.32-4.681c2.52,0,4.248,1.944,4.248,4.681c0,2.592-1.656,4.536-4.32,4.536
		C853.698-323.332,852.187-325.492,852.187-327.868z"/>
	<path d="M872.49-370.352c-2.304,0-3.889-1.8-3.889-4.105c0-2.231,1.656-4.032,3.961-4.032c2.376,0,3.888,1.801,3.888,4.032
		C876.449-371.936,874.794-370.352,872.49-370.352z M875.514-324.196h-5.977v-39.243h5.977V-324.196z"/>
	<path d="M918.787-324.196h-5.977v-23.185c0-6.409-2.305-12.025-9.146-12.025c-5.112,0-10.297,4.32-10.297,11.161v24.05h-5.977
		v-29.162c0-4.033-0.144-6.985-0.287-10.153h5.328l0.36,6.408h0.143c1.944-3.816,6.48-7.273,12.602-7.273
		c4.896,0,13.249,2.952,13.249,16.274V-324.196z"/>
	<path d="M948.737-357.463c-1.439-0.936-4.105-2.305-7.633-2.305c-4.32,0-6.624,2.664-6.624,5.833c0,3.384,2.232,4.968,7.273,7.128
		c6.337,2.593,10.009,5.905,10.009,11.81c0,6.984-5.328,11.593-13.897,11.593c-3.888,0-7.633-1.08-10.297-2.664l1.656-4.608
		c2.089,1.224,5.473,2.664,8.857,2.664c5.256,0,7.849-2.809,7.849-6.337c0-3.672-2.089-5.689-7.273-7.776
		c-6.624-2.664-10.009-6.336-10.009-11.089c0-6.12,4.897-11.161,12.817-11.161c3.744,0,6.913,1.08,9.001,2.376L948.737-357.463z"/>
	<path d="M962.488-370.568l5.904-2.017v9.146h10.152v4.681h-10.152v22.682c0,4.969,1.512,7.704,5.328,7.704
		c1.8,0,3.024-0.216,4.032-0.575l0.36,4.608c-1.296,0.575-3.312,0.935-5.833,0.935c-9.505,0-9.792-8.641-9.792-12.817v-22.537
		h-6.049v-4.681h6.049V-370.568z"/>
	<path d="M1012.096-333.557c0,3.24,0.072,6.624,0.576,9.36h-5.473l-0.575-5.04h-0.217c-2.016,3.096-6.048,5.904-11.593,5.904
		c-7.488,0-11.449-5.473-11.449-11.161c0-9.433,8.209-14.545,22.754-14.474c0-3.311,0-10.801-8.929-10.801
		c-3.384,0-6.912,0.936-9.576,2.809l-1.44-4.104c3.168-2.088,7.561-3.313,11.953-3.313c11.089,0,13.969,7.849,13.969,15.626
		V-333.557z M1006.192-344.574c-7.416,0-16.705,1.08-16.705,9.361c0,5.04,3.168,7.273,6.769,7.273c5.832,0,9.937-4.465,9.937-9.217
		V-344.574z"/>
	<path d="M1055.513-363.512c-0.217,2.809-0.36,5.977-0.36,10.801v22.898c0,6.84-0.145,22.538-18.722,22.538
		c-4.465,0-9.361-1.08-12.313-3.097l1.585-4.681c2.52,1.513,6.336,2.952,11.017,2.952c7.2,0,12.457-3.816,12.457-14.185v-4.681
		h-0.145c-2.016,3.672-6.192,6.696-12.169,6.696c-9.36,0-16.057-8.28-16.057-19.298c0-13.608,8.496-20.81,16.993-20.81
		c6.696,0,10.225,3.601,11.881,6.769h0.145l0.287-5.904H1055.513z M1049.104-348.391c0-6.841-4.968-11.161-10.44-11.161
		c-6.913,0-11.737,6.121-11.737,15.626c0,8.353,4.032,14.905,11.665,14.905c4.465,0,10.513-3.385,10.513-11.522V-348.391z"/>
	<path d="M1084.887-358.399c-0.648-0.072-1.296-0.144-2.16-0.144c-6.48,0-9.793,6.408-9.793,13.033v21.314h-5.977v-27.507
		c0-4.176-0.072-7.992-0.288-11.736h5.257l0.288,7.561h0.216c1.729-4.897,5.833-8.425,10.657-8.425c0.647,0,1.151,0.143,1.8,0.216
		V-358.399z"/>
	<path d="M1117.574-333.557c0,3.24,0.072,6.624,0.576,9.36h-5.473l-0.575-5.04h-0.217c-2.016,3.096-6.048,5.904-11.593,5.904
		c-7.488,0-11.449-5.473-11.449-11.161c0-9.433,8.209-14.545,22.754-14.474c0-3.311,0-10.801-8.929-10.801
		c-3.384,0-6.912,0.936-9.576,2.809l-1.44-4.104c3.168-2.088,7.561-3.313,11.953-3.313c11.089,0,13.969,7.849,13.969,15.626
		V-333.557z M1111.67-344.574c-7.416,0-16.705,1.08-16.705,9.361c0,5.04,3.168,7.273,6.769,7.273c5.832,0,9.937-4.465,9.937-9.217
		V-344.574z"/>
	<path d="M1182.521-324.196h-5.904v-22.682c0-7.633-2.736-12.529-8.641-12.529c-4.824,0-9.217,4.536-9.217,10.513v24.698h-5.904
		v-24.194c0-6.265-2.665-11.017-8.209-11.017c-5.112,0-9.649,5.04-9.649,11.161v24.05h-5.904v-29.162
		c0-4.033-0.144-6.913-0.288-10.153h5.257l0.36,6.337h0.216c2.16-3.816,5.761-7.201,11.953-7.201c5.112,0,9.072,3.169,10.729,7.849
		h0.145c2.592-4.68,6.552-7.849,12.601-7.849c4.824,0,12.457,3.097,12.457,16.562V-324.196z"/>
</g>
<g>
	<path d="M-160.642,212.762c0,16.49-8.497,22.898-19.442,22.898c-10.225,0-18.361-5.977-18.361-22.537V180h5.977v33.195
		c0,12.457,5.473,17.496,12.673,17.496c7.921,0,13.178-5.328,13.178-17.496V180h5.977V212.762z"/>
	<path d="M-117.227,234.797h-5.977v-23.186c0-6.41-2.305-12.025-9.146-12.025c-5.112,0-10.297,4.32-10.297,11.16v24.051h-5.977
		v-29.162c0-4.033-0.143-6.986-0.287-10.154h5.328l0.36,6.408h0.144c1.944-3.816,6.48-7.271,12.602-7.271
		c4.896,0,13.249,2.951,13.249,16.273V234.797z"/>
	<path d="M-44.796,206.857c0,19.299-10.801,28.803-23.762,28.803c-13.609,0-23.259-10.729-23.259-27.865
		c0-17.859,10.153-28.73,23.906-28.73C-53.869,179.064-44.796,190.297-44.796,206.857z M-85.552,207.65
		c0,11.664,6.049,23.041,17.21,23.041c11.305,0,17.281-11.016,17.281-23.545c0-11.018-5.4-23.115-17.138-23.115
		C-80.295,184.031-85.552,195.984-85.552,207.65z"/>
	<path d="M-29.969,234.797h-5.977v-57.605h5.977V234.797z"/>
	<path d="M13.593,225.076c0,3.168,0.145,7.057,0.288,9.721H8.552L8.264,228.1H8.049c-2.017,4.105-6.48,7.561-12.817,7.561
		c-9.072,0-16.13-7.848-16.13-19.945c0-13.25,7.777-21.025,16.922-21.025c5.761,0,9.649,2.809,11.449,6.049h0.143v-23.547h5.977
		V225.076z M7.616,211.25c0-7.848-5.544-11.736-10.585-11.736c-7.416,0-11.809,6.912-11.809,15.912
		c0,8.281,3.888,15.338,11.593,15.338c6.481,0,10.801-5.688,10.801-11.953V211.25z"/>
	<path d="M59.022,217.371c0,14.041-6.696,18.289-15.482,18.289c-2.448,0-5.328-0.504-6.841-1.152l0.864-4.896
		c1.368,0.504,3.312,0.938,5.545,0.938c6.336,0,9.937-2.809,9.937-13.682V180h5.977V217.371z"/>
	<path d="M103.806,214.852c0,14.617-9.648,20.809-18.361,20.809c-10.081,0-17.857-7.561-17.857-20.234
		c0-13.393,8.353-20.809,18.361-20.809C96.678,194.617,103.806,202.826,103.806,214.852z M85.733,199.297
		c-8.497,0-12.025,8.354-12.025,15.914c0,8.713,4.824,15.77,11.881,15.77c7.129,0,12.098-7.057,12.098-15.914
		C97.686,208.082,94.302,199.297,85.733,199.297z"/>
	<path d="M143.334,234.797h-7.345l-13.537-19.371l-3.601,4.105v15.266h-5.977v-57.605h5.977v36.65h0.144
		c0.936-1.367,2.304-3.096,3.384-4.391l11.737-13.898h7.2l-14.761,16.201L143.334,234.797z"/>
	<path d="M176.453,233.141c-2.232,1.08-6.337,2.447-12.313,2.447c-11.449,0-18.289-8.064-18.289-19.801
		c0-12.312,6.912-21.17,17.497-21.17c12.097,0,15.193,11.088,15.193,17.93c0,1.367-0.072,2.375-0.143,3.312h-26.715
		c0.072,10.873,6.265,14.977,13.321,14.977c4.896,0,7.849-1.008,10.297-2.016L176.453,233.141z M172.636,211.395
		c0.071-5.328-2.16-12.242-9.865-12.242c-7.2,0-10.369,6.842-10.944,12.242H172.636z"/>
</g>
<text transform="matrix(1 0 0 1 209.7249 -58.8438)" font-family="'KozGoPr6N-Regular-83pv-RKSJ-H'" font-size="72px">Un Old Joke</text>
<text transform="matrix(1 0 0 1 -304.848 73.1562)"><tspan x="0" y="0" font-family="'KozGoPr6N-Regular-83pv-RKSJ-H'" font-size="72px">Sculpture</tspan><tspan x="308.945" y="0" font-family="'KozGoPr6N-Regular-83pv-RKSJ-H'" font-size="24px">×</tspan><tspan x="332.945" y="0" font-family="'KozGoPr6N-Regular-83pv-RKSJ-H'" font-size="72px">LED</tspan><tspan x="458.44" y="0" font-family="'KozGoPr6N-Regular-83pv-RKSJ-H'" font-size="24px">×</tspan><tspan x="482.44" y="0" font-family="'KozGoPr6N-Regular-83pv-RKSJ-H'" font-size="72px">projection</tspan></text>
<g>
	<path d="M-529.636-210.703h-16.201v49.756h-5.977v-49.756h-16.129v-5.041h38.307V-210.703z"/>
	<path d="M-520.927-207.104c-2.304,0-3.889-1.8-3.889-4.104c0-2.231,1.656-4.032,3.961-4.032c2.376,0,3.888,1.801,3.888,4.032
		C-516.967-208.687-518.622-207.104-520.927-207.104z M-517.903-160.947h-5.977v-39.243h5.977V-160.947z"/>
	<path d="M-479.526-162.388c-1.729,0.864-5.617,2.232-10.657,2.232c-11.233,0-18.649-7.992-18.649-20.018
		c0-12.097,7.992-20.954,20.09-20.954c4.393,0,7.92,1.296,9.433,2.089l-1.513,4.824c-1.655-0.937-4.248-2.017-8.064-2.017
		c-9.072,0-13.825,7.272-13.825,15.697c0,9.505,5.688,15.481,13.609,15.481c3.889,0,6.553-1.08,8.497-1.944L-479.526-162.388z"/>
	<path d="M-440.718-160.947h-7.345l-13.537-19.37l-3.601,4.104v15.266h-5.977v-57.605h5.977v36.651h0.145
		c0.936-1.368,2.304-3.096,3.384-4.392l11.737-13.898h7.201l-14.762,16.201L-440.718-160.947z"/>
	<path d="M-407.599-162.604c-2.232,1.08-6.337,2.448-12.313,2.448c-11.448,0-18.289-8.064-18.289-19.802
		c0-12.312,6.912-21.17,17.497-21.17c12.098,0,15.193,11.089,15.193,17.93c0,1.368-0.072,2.376-0.143,3.312h-26.715
		c0.072,10.873,6.265,14.977,13.321,14.977c4.897,0,7.849-1.009,10.297-2.017L-407.599-162.604z M-411.415-184.35
		c0.072-5.328-2.16-12.241-9.865-12.241c-7.2,0-10.368,6.841-10.944,12.241H-411.415z"/>
	<path d="M-395.002-207.319l5.904-2.017v9.145h10.152v4.681h-10.152v22.682c0,4.969,1.513,7.704,5.328,7.704
		c1.801,0,3.025-0.216,4.033-0.575l0.359,4.608c-1.296,0.575-3.312,0.936-5.832,0.936c-9.505,0-9.793-8.641-9.793-12.817v-22.537
		h-6.049v-4.681h6.049V-207.319z"/>
	<path d="M-322.642-170.668c0,3.168,0.145,7.057,0.288,9.721h-5.328l-0.288-6.696h-0.216c-2.017,4.104-6.48,7.561-12.817,7.561
		c-9.072,0-16.129-7.849-16.129-19.946c0-13.249,7.776-21.025,16.921-21.025c5.761,0,9.65,2.809,11.449,6.049h0.144v-23.547h5.977
		V-170.668z M-328.618-184.493c0-7.849-5.544-11.737-10.585-11.737c-7.416,0-11.809,6.913-11.809,15.913
		c0,8.281,3.889,15.338,11.593,15.338c6.48,0,10.801-5.688,10.801-11.953V-184.493z"/>
	<path d="M-283.042-162.604c-2.232,1.08-6.337,2.448-12.313,2.448c-11.449,0-18.289-8.064-18.289-19.802
		c0-12.312,6.912-21.17,17.497-21.17c12.097,0,15.193,11.089,15.193,17.93c0,1.368-0.072,2.376-0.144,3.312h-26.715
		c0.072,10.873,6.265,14.977,13.321,14.977c4.897,0,7.849-1.009,10.297-2.017L-283.042-162.604z M-286.859-184.35
		c0.071-5.328-2.16-12.241-9.865-12.241c-7.2,0-10.369,6.841-10.944,12.241H-286.859z"/>
	<path d="M-253.669-194.214c-1.439-0.937-4.104-2.305-7.632-2.305c-4.32,0-6.625,2.664-6.625,5.833c0,3.384,2.232,4.968,7.272,7.128
		c6.337,2.593,10.009,5.905,10.009,11.81c0,6.984-5.328,11.593-13.896,11.593c-3.889,0-7.633-1.08-10.297-2.664l1.655-4.608
		c2.089,1.224,5.473,2.664,8.857,2.664c5.256,0,7.849-2.809,7.849-6.337c0-3.672-2.088-5.689-7.272-7.776
		c-6.625-2.664-10.009-6.336-10.009-11.089c0-6.12,4.896-11.161,12.816-11.161c3.744,0,6.913,1.08,9.001,2.376L-253.669-194.214z"/>
	<path d="M-238.55-207.104c-2.304,0-3.888-1.8-3.888-4.104c0-2.231,1.656-4.032,3.96-4.032c2.376,0,3.889,1.801,3.889,4.032
		C-234.589-208.687-236.245-207.104-238.55-207.104z M-235.526-160.947h-5.977v-39.243h5.977V-160.947z"/>
	<path d="M-191.748-200.263c-0.217,2.809-0.36,5.976-0.36,10.801v22.898c0,6.84-0.145,22.538-18.722,22.538
		c-4.465,0-9.361-1.08-12.314-3.097l1.585-4.681c2.52,1.513,6.336,2.952,11.017,2.952c7.2,0,12.457-3.816,12.457-14.185v-4.681
		h-0.145c-2.016,3.672-6.192,6.696-12.169,6.696c-9.36,0-16.057-8.28-16.057-19.298c0-13.608,8.496-20.81,16.993-20.81
		c6.696,0,10.225,3.601,11.881,6.769h0.145l0.287-5.904H-191.748z M-198.157-185.142c0-6.841-4.968-11.161-10.44-11.161
		c-6.913,0-11.737,6.121-11.737,15.626c0,8.353,4.032,14.905,11.665,14.905c4.465,0,10.513-3.385,10.513-11.521V-185.142z"/>
	<path d="M-148.909-160.947h-5.977v-23.186c0-6.409-2.304-12.025-9.145-12.025c-5.112,0-10.297,4.32-10.297,11.161v24.05h-5.977
		v-29.162c0-4.033-0.144-6.985-0.288-10.153h5.329l0.359,6.408h0.145c1.944-3.816,6.48-7.272,12.601-7.272
		c4.897,0,13.249,2.952,13.249,16.273V-160.947z"/>
</g>
<g>
	<path d="M-100.385-395.814h40.684v3.602h-40.684V-395.814z"/>
	<path d="M-59.706-395.814h40.684v3.602h-40.684V-395.814z"/>
	<path d="M26.337-430.809c-1.368,8.352-3.528,15.266-7.488,20.09c2.664,2.879,5.328,5.76,8.712,9.504h-7.2
		c-1.512-1.656-2.952-3.168-5.185-5.545c-4.752,4.537-9.865,6.41-15.625,6.41c-10.081,0-16.058-7.057-16.058-15.266
		c0-7.273,4.248-12.458,10.441-16.129v-0.217c-2.808-3.744-4.536-7.776-4.536-11.736c0-6.625,4.608-13.249,13.105-13.249
		c6.265,0,11.305,4.248,11.305,11.377c0,5.76-3.312,10.225-11.953,14.688v0.288c4.536,5.473,9.937,11.81,13.825,16.273
		c2.52-4.103,4.106-9.721,5.113-16.489H26.337z M12.152-410.287c-3.457-4.033-9.577-10.945-15.482-18.001
		c-3.096,2.016-7.345,5.689-7.345,11.808c0,6.481,4.608,11.522,11.233,11.522C5.024-404.958,9.272-406.902,12.152-410.287z
		 M-5.057-444.273c0,4.104,1.872,7.272,4.104,10.297c5.688-3.24,9.361-6.409,9.361-11.233c0-3.6-1.872-7.416-6.481-7.416
		C-2.825-452.626-5.057-448.45-5.057-444.273z"/>
	<path d="M69.967-402.871c-2.52,1.225-7.416,2.449-13.68,2.449c-14.113,0-25.491-9.145-25.491-27.723
		c0-17.713,11.017-28.731,27.075-28.731c6.553,0,10.369,1.368,12.096,2.232l-1.584,5.04c-2.52-1.224-6.047-2.232-10.369-2.232
		c-12.457,0-20.953,8.353-20.953,23.474c0,14.402,7.777,22.898,20.594,22.898c4.176,0,8.281-0.936,11.018-2.232L69.967-402.871z"/>
	<path d="M111.799-421.16c0,14.617-9.648,20.811-18.361,20.811c-10.082,0-17.857-7.561-17.857-20.234
		c0-13.393,8.352-20.81,18.361-20.81C104.67-441.394,111.799-433.185,111.799-421.16z M93.725-436.713
		c-8.496,0-12.023,8.353-12.023,15.913c0,8.713,4.824,15.77,11.881,15.77c7.127,0,12.096-7.057,12.096-15.912
		C105.678-427.928,102.293-436.713,93.725-436.713z"/>
	<path d="M119.211-404.886c0-2.736,1.801-4.68,4.32-4.68c2.52,0,4.248,1.943,4.248,4.68c0,2.592-1.656,4.537-4.32,4.537
		C120.723-400.349,119.211-402.509,119.211-404.886z"/>
</g>
<g>
	<path d="M695.609-108.599h-16.201v49.755h-5.977v-49.755h-16.129v-5.041h38.307V-108.599z"/>
	<path d="M704.318-104.999c-2.304,0-3.889-1.8-3.889-4.105c0-2.231,1.656-4.032,3.961-4.032c2.376,0,3.888,1.801,3.888,4.032
		C708.278-106.583,706.622-104.999,704.318-104.999z M707.342-58.844h-5.977v-39.243h5.977V-58.844z"/>
	<path d="M745.718-60.283c-1.728,0.863-5.616,2.232-10.656,2.232c-11.233,0-18.649-7.992-18.649-20.018
		c0-12.097,7.992-20.954,20.09-20.954c4.392,0,7.92,1.296,9.433,2.089l-1.513,4.824c-1.655-0.937-4.248-2.017-8.065-2.017
		c-9.072,0-13.825,7.272-13.825,15.697c0,9.506,5.689,15.482,13.609,15.482c3.889,0,6.553-1.08,8.496-1.945L745.718-60.283z"/>
	<path d="M784.527-58.844h-7.345l-13.537-19.369l-3.601,4.104v15.266h-5.977v-57.605h5.977v36.652h0.145
		c0.936-1.369,2.304-3.096,3.384-4.393l11.737-13.897h7.201l-14.762,16.202L784.527-58.844z"/>
	<path d="M817.646-60.5c-2.232,1.08-6.337,2.449-12.313,2.449c-11.448,0-18.29-8.064-18.29-19.803
		c0-12.312,6.913-21.169,17.498-21.169c12.098,0,15.193,11.089,15.193,17.929c0,1.369-0.072,2.377-0.145,3.312h-26.714
		c0.072,10.873,6.265,14.979,13.321,14.979c4.896,0,7.849-1.01,10.297-2.018L817.646-60.5z M813.829-82.246
		c0.072-5.328-2.16-12.241-9.865-12.241c-7.201,0-10.369,6.841-10.945,12.241H813.829z"/>
	<path d="M830.242-105.215l5.904-2.017v9.146H846.3v4.681h-10.153v22.681c0,4.969,1.513,7.705,5.329,7.705
		c1.8,0,3.023-0.217,4.031-0.576l0.36,4.609c-1.296,0.574-3.311,0.936-5.832,0.936c-9.505,0-9.793-8.641-9.793-12.818v-22.537
		h-6.049v-4.681h6.049V-105.215z"/>
</g>
<g>
	<path d="M673.108,270.275h-28.658v-54.869h5.977v49.756h22.682V270.275z"/>
	<path d="M683.617,224.119c-2.305,0-3.889-1.801-3.889-4.105c0-2.23,1.656-4.031,3.96-4.031c2.377,0,3.889,1.801,3.889,4.031
		C687.577,222.535,685.921,224.119,683.617,224.119z M686.641,270.275h-5.977v-39.244h5.977V270.275z"/>
	<path d="M704.64,237.367c2.448-4.535,6.913-7.271,13.033-7.271c9.289,0,15.842,7.992,15.842,20.09
		c0,14.258-8.713,20.953-16.85,20.953c-5.688,0-9.865-2.305-12.673-7.344h-0.216l-0.36,6.48h-5.185
		c0.144-2.592,0.288-6.553,0.288-9.721V212.67h5.977v24.697H704.64z M704.496,254.938c0,5.832,4.393,11.305,11.017,11.305
		c7.633,0,11.881-6.553,11.881-15.842c0-8.207-4.032-15.408-11.665-15.408c-6.84,0-11.232,6.408-11.232,12.168V254.938z"/>
	<path d="M760.441,236.072c-0.648-0.072-1.296-0.145-2.16-0.145c-6.48,0-9.793,6.408-9.793,13.033v21.314h-5.977v-27.508
		c0-4.176-0.071-7.992-0.287-11.736h5.256l0.288,7.561h0.216c1.728-4.896,5.833-8.424,10.656-8.424c0.648,0,1.152,0.143,1.801,0.215
		V236.072z"/>
	<path d="M793.128,260.914c0,3.24,0.072,6.625,0.576,9.361h-5.473l-0.576-5.041h-0.215c-2.017,3.096-6.049,5.904-11.594,5.904
		c-7.488,0-11.449-5.473-11.449-11.16c0-9.434,8.209-14.545,22.754-14.475c0-3.311,0-10.801-8.928-10.801
		c-3.385,0-6.913,0.938-9.578,2.809l-1.439-4.104c3.168-2.088,7.561-3.312,11.953-3.312c11.089,0,13.969,7.848,13.969,15.625
		V260.914z M787.224,249.896c-7.416,0-16.705,1.08-16.705,9.361c0,5.041,3.168,7.273,6.768,7.273c5.833,0,9.937-4.465,9.937-9.217
		V249.896z"/>
	<path d="M822.575,236.072c-0.648-0.072-1.295-0.145-2.16-0.145c-6.48,0-9.793,6.408-9.793,13.033v21.314h-5.977v-27.508
		c0-4.176-0.071-7.992-0.287-11.736h5.256l0.289,7.561h0.215c1.729-4.896,5.833-8.424,10.657-8.424c0.648,0,1.152,0.143,1.8,0.215
		V236.072z"/>
	<path d="M859.153,231.031l-10.44,27.795c-4.681,12.744-7.993,20.09-12.89,24.697c-3.312,3.025-6.552,4.248-7.993,4.609
		l-1.656-5.041c9.146-3.385,12.674-13.32,12.674-14.113c0-0.359-0.145-0.935-0.432-1.656l-13.897-36.291h6.552l8.569,23.834
		c1.008,2.736,1.872,5.832,2.521,8.209h0.216c0.648-2.377,1.584-5.328,2.521-8.353l7.92-23.689H859.153z"/>
</g>
<g>
	<path d="M584.407,124.195c5.184,1.225,11.305,5.545,11.305,13.825c0,4.896-1.872,8.353-4.393,10.802
		c-3.672,3.6-9.576,5.184-17.857,5.184c-4.536,0-7.921-0.359-10.152-0.575V99.497c3.024-0.647,7.345-1.151,11.809-1.151
		c6.768,0,11.233,1.296,14.474,4.032c2.592,2.232,4.104,5.4,4.104,9.505c0,5.4-3.673,10.081-9.289,12.097V124.195z M575.694,122.18
		c7.272,0,11.953-4.177,11.953-9.793v-0.072c0-6.481-4.753-9.289-12.241-9.289c-3.168,0-5.04,0.217-6.12,0.505v18.649H575.694z
		 M569.285,148.894c1.368,0.288,3.312,0.36,5.832,0.36c7.56,0,14.329-2.952,14.329-11.233c0-8.208-7.128-11.232-14.401-11.232h-5.76
		V148.894z"/>
	<path d="M622.781,119.371c-0.648-0.072-1.296-0.144-2.16-0.144c-6.48,0-9.793,6.408-9.793,13.033v21.313h-5.977v-27.507
		c0-4.176-0.071-7.992-0.287-11.736h5.256l0.288,7.561h0.216c1.729-4.897,5.833-8.425,10.657-8.425c0.648,0,1.152,0.144,1.8,0.216
		V119.371z"/>
	<path d="M655.469,144.214c0,3.24,0.072,6.624,0.576,9.36h-5.473l-0.576-5.04h-0.216c-2.016,3.096-6.049,5.904-11.593,5.904
		c-7.488,0-11.449-5.473-11.449-11.161c0-9.433,8.209-14.545,22.754-14.474c0-3.312,0-10.801-8.929-10.801
		c-3.384,0-6.912,0.937-9.577,2.809l-1.439-4.105c3.168-2.088,7.56-3.312,11.953-3.312c11.089,0,13.969,7.849,13.969,15.626V144.214
		z M649.565,133.196c-7.417,0-16.705,1.08-16.705,9.361c0,5.04,3.168,7.273,6.768,7.273c5.832,0,9.937-4.465,9.937-9.217V133.196z"
		/>
	<path d="M698.382,153.574h-5.977v-23.186c0-6.409-2.305-12.025-9.146-12.025c-5.112,0-10.297,4.32-10.297,11.161v24.05h-5.977
		v-29.162c0-4.033-0.143-6.985-0.287-10.153h5.328l0.36,6.408h0.144c1.944-3.816,6.48-7.272,12.602-7.272
		c4.896,0,13.249,2.952,13.249,16.273V153.574z"/>
	<path d="M746.189,151.918c-2.52,1.225-7.416,2.448-13.681,2.448c-14.113,0-25.49-9.145-25.49-27.723
		c0-17.713,11.017-28.73,27.074-28.73c6.553,0,10.369,1.368,12.097,2.232l-1.584,5.04c-2.521-1.224-6.048-2.231-10.369-2.231
		c-12.457,0-20.953,8.352-20.953,23.474c0,14.401,7.776,22.898,20.594,22.898c4.176,0,8.28-0.937,11.017-2.232L746.189,151.918z"/>
	<path d="M788.02,133.629c0,14.617-9.649,20.81-18.362,20.81c-10.08,0-17.856-7.561-17.856-20.234
		c0-13.393,8.352-20.81,18.361-20.81C780.891,113.395,788.02,121.604,788.02,133.629z M769.945,118.075
		c-8.496,0-12.024,8.353-12.024,15.913c0,8.713,4.824,15.77,11.881,15.77c7.129,0,12.097-7.057,12.097-15.913
		C781.899,126.86,778.515,118.075,769.945,118.075z"/>
	<path d="M843.385,153.574h-31.899v-3.672l5.257-5.545c12.816-12.961,19.297-20.81,19.297-29.595
		c0-5.761-2.519-11.089-10.297-11.089c-4.32,0-8.208,2.376-10.801,4.465l-2.016-4.177c3.312-2.952,8.208-5.257,13.969-5.257
		c10.873,0,15.193,7.921,15.193,15.338c0,10.152-7.129,18.793-18.289,30.026l-4.249,4.465v0.143h23.834V153.574z"/>
	<path d="M850.51,126.788c0-18.866,7.345-28.011,17.426-28.011c10.225,0,16.489,9.649,16.489,27.29
		c0,18.722-6.553,28.371-17.281,28.371C857.351,154.439,850.51,144.789,850.51,126.788z M878.377,126.356
		c0-13.465-3.24-22.754-10.802-22.754c-6.408,0-10.944,8.569-10.944,22.754c0,14.185,3.96,23.187,10.728,23.187
		C875.353,149.542,878.377,139.173,878.377,126.356z"/>
	<path d="M906.024,153.574v-48.316h-0.144l-8.856,5.112l-1.441-4.464l11.161-6.265h5.112v53.933H906.024z"/>
	<path d="M957.648,153.574h-5.689v-15.121h-23.546v-3.816l23.042-34.995h6.192v34.203h7.345v4.608h-7.345V153.574z M934.461,133.845
		h17.498V114.69c0-2.952,0.143-5.832,0.288-8.641h-0.288c-1.656,3.312-2.952,5.617-4.32,8.065L934.461,133.7V133.845z"/>
</g>
<g>
	<path d="M611.999,24.141c0,3.24,0.072,6.623,0.576,9.359h-5.473l-0.576-5.039h-0.216c-2.016,3.096-6.049,5.904-11.593,5.904
		c-7.488,0-11.449-5.473-11.449-11.162c0-9.432,8.209-14.545,22.754-14.473c0-3.313,0-10.802-8.929-10.802
		c-3.384,0-6.912,0.936-9.577,2.809l-1.44-4.104c3.168-2.088,7.561-3.312,11.953-3.312c11.089,0,13.969,7.849,13.969,15.627V24.141z
		 M606.095,13.123c-7.417,0-16.705,1.08-16.705,9.361c0,5.039,3.168,7.271,6.769,7.271c5.832,0,9.936-4.465,9.936-9.217V13.123z"/>
	<path d="M629.133,0.881c2.736-4.824,7.273-7.561,13.394-7.561c9.289,0,15.985,7.993,15.985,20.018
		c0,14.402-8.425,21.027-17.065,21.027c-5.185,0-9.505-2.377-11.81-6.266h-0.143v21.459h-5.977V6.857
		c0-5.112-0.144-9.072-0.288-12.673h5.4l0.36,6.696H629.133z M629.493,17.875c0,7.633,5.688,11.666,11.017,11.666
		c7.705,0,11.953-6.625,11.953-15.986c0-8.137-4.104-15.338-11.737-15.338c-6.696,0-11.232,6.48-11.232,12.17V17.875z"/>
	<path d="M673.125,0.881c2.736-4.824,7.272-7.561,13.393-7.561c9.289,0,15.985,7.993,15.985,20.018
		c0,14.402-8.425,21.027-17.065,21.027c-5.185,0-9.505-2.377-11.809-6.266h-0.145v21.459h-5.977V6.857
		c0-5.112-0.143-9.072-0.287-12.673h5.4l0.359,6.696H673.125z M673.485,17.875c0,7.633,5.688,11.666,11.018,11.666
		c7.704,0,11.953-6.625,11.953-15.986c0-8.137-4.104-15.338-11.737-15.338c-6.696,0-11.233,6.48-11.233,12.17V17.875z"/>
	<path d="M717.477,33.5H711.5v-57.605h5.977V33.5z"/>
	<path d="M732.307-12.656c-2.304,0-3.889-1.8-3.889-4.104c0-2.232,1.656-4.032,3.961-4.032c2.376,0,3.888,1.801,3.888,4.032
		C736.267-14.24,734.612-12.656,732.307-12.656z M735.331,33.5h-5.977V-5.743h5.977V33.5z"/>
	<path d="M800.639,33.5h-5.904V10.818c0-7.633-2.736-12.529-8.641-12.529c-4.824,0-9.217,4.536-9.217,10.514V33.5h-5.905V9.307
		c0-6.266-2.664-11.017-8.208-11.017c-5.112,0-9.649,5.04-9.649,11.162V33.5h-5.904V4.338c0-4.033-0.144-6.913-0.288-10.153h5.257
		l0.359,6.337h0.217c2.16-3.816,5.76-7.201,11.953-7.201c5.112,0,9.072,3.169,10.728,7.849h0.145
		c2.592-4.68,6.552-7.849,12.601-7.849c4.824,0,12.457,3.097,12.457,16.562V33.5z"/>
	<path d="M832.17,4.913c2.447-3.6,6.84-6.624,12.601-6.624c9.144,0,15.266,6.841,15.266,17.209c0,9.865-6.049,18.867-16.561,18.867
		s-17.569-8.713-17.569-22.684c0-14.473,6.769-29.594,24.266-32.475c2.017-0.288,3.816-0.504,5.041-0.504l0.071,4.969
		c-14.977,0-22.106,10.873-23.33,21.241H832.17z M853.988,15.932c0-8.282-4.464-13.106-10.945-13.106
		c-6.336,0-11.16,6.192-11.16,10.226c0.071,9.865,4.248,16.633,11.736,16.633C849.883,29.684,853.988,24.068,853.988,15.932z"/>
	<path d="M870.256-12.872l5.905-2.017v9.146h10.152v4.681h-10.152v22.682c0,4.969,1.512,7.705,5.328,7.705
		c1.8,0,3.024-0.217,4.032-0.576l0.36,4.609c-1.296,0.574-3.312,0.936-5.833,0.936c-9.505,0-9.793-8.641-9.793-12.818V-1.062h-6.048
		v-4.681h6.048V-12.872z"/>
	<path d="M925.554,33.5h-5.977V10.315c0-6.409-2.304-11.953-9.072-11.953c-4.608,0-10.369,3.816-10.369,11.018V33.5h-5.977v-57.605
		h5.977v24.41h0.145c2.592-4.32,7.345-6.984,12.169-6.984c4.824,0,13.104,2.952,13.104,16.273V33.5z"/>
</g>
</svg>
