<?xml version="1.0" encoding="utf-8"?>
<!-- Generator: Adobe Illustrator 16.0.4, SVG Export Plug-In . SVG Version: 6.00 Build 0)  -->
<!DOCTYPE svg PUBLIC "-//W3C//DTD SVG 1.1//EN" "http://www.w3.org/Graphics/SVG/1.1/DTD/svg11.dtd">
<svg version="1.1" id="レイヤー_1" xmlns="http://www.w3.org/2000/svg" xmlns:xlink="http://www.w3.org/1999/xlink" x="0px"
	 y="0px" width="581.665px" height="108.771px" viewBox="-40.832 -7.636 581.665 108.771"
	 enable-background="new -40.832 -7.636 581.665 108.771" xml:space="preserve">
<g>
	<path d="M7.473,16.868H-8.728v49.756h-5.976V16.868h-16.129v-5.041H7.473V16.868z"/>
	<path d="M37.497,57.265c0,3.24,0.072,6.623,0.576,9.359h-5.473l-0.576-5.039h-0.216c-2.016,3.096-6.049,5.904-11.593,5.904
		c-7.488,0-11.449-5.473-11.449-11.162c0-9.432,8.208-14.545,22.754-14.474c0-3.312,0-10.801-8.929-10.801
		c-3.384,0-6.913,0.937-9.577,2.809l-1.44-4.104c3.168-2.088,7.561-3.312,11.953-3.312c11.089,0,13.969,7.849,13.969,15.626V57.265z
		 M31.593,46.246c-7.417,0-16.705,1.081-16.705,9.362c0,5.039,3.168,7.271,6.769,7.271c5.833,0,9.937-4.465,9.937-9.217V46.246z"/>
	<path d="M79.473,66.624h-7.345L58.592,47.255l-3.601,4.104v15.266h-5.977V9.019h5.977V45.67h0.144
		c0.936-1.368,2.304-3.096,3.384-4.392l11.737-13.897h7.201L62.696,43.582L79.473,66.624z"/>
	<path d="M110.505,57.265c0,3.24,0.072,6.623,0.576,9.359h-5.473l-0.576-5.039h-0.216c-2.016,3.096-6.049,5.904-11.593,5.904
		c-7.488,0-11.449-5.473-11.449-11.162c0-9.432,8.208-14.545,22.754-14.474c0-3.312,0-10.801-8.929-10.801
		c-3.384,0-6.913,0.937-9.577,2.809l-1.44-4.104c3.168-2.088,7.561-3.312,11.953-3.312c11.089,0,13.969,7.849,13.969,15.626V57.265z
		 M104.6,46.246c-7.417,0-16.705,1.081-16.705,9.362c0,5.039,3.168,7.271,6.769,7.271c5.833,0,9.937-4.465,9.937-9.217V46.246z"/>
	<path d="M151.616,27.381l-10.441,27.794c-4.68,12.746-7.993,20.09-12.889,24.699c-3.312,3.023-6.552,4.248-7.993,4.607
		l-1.656-5.039c9.145-3.385,12.673-13.322,12.673-14.113c0-0.361-0.144-0.938-0.432-1.656l-13.897-36.292h6.552l8.569,23.835
		c1.008,2.736,1.872,5.832,2.52,8.209h0.216c0.648-2.377,1.584-5.33,2.52-8.354l7.921-23.69H151.616z"/>
	<path d="M188.985,56.185c0,4.031,0.215,7.416,0.359,10.439h-5.4l-0.289-6.191h-0.215c-1.801,3.096-5.832,7.057-12.529,7.057
		c-5.904,0-12.889-3.385-12.889-16.922V27.381h5.977v22.106c0,7.633,2.233,12.961,8.786,12.961c4.68,0,10.225-3.744,10.225-10.656
		V27.381h5.977V56.185z"/>
	<path d="M231.248,66.624h-7.346l-13.537-19.369l-3.6,4.104v15.266h-5.977V9.019h5.977V45.67h0.145
		c0.936-1.368,2.303-3.096,3.383-4.392l11.738-13.897h7.199l-14.76,16.201L231.248,66.624z"/>
	<path d="M239.524,20.468c-2.303,0-3.887-1.8-3.887-4.104c0-2.231,1.656-4.032,3.959-4.032c2.377,0,3.889,1.801,3.889,4.032
		C243.485,18.884,241.828,20.468,239.524,20.468z M242.549,66.624h-5.977V27.381h5.977V66.624z"/>
	<path d="M309.582,66.624h-5.977v-26.21h-26.211v26.21h-5.977V11.827h5.977v23.402h26.211V11.827h5.977V66.624z"/>
	<path d="M347.307,57.265c0,3.24,0.072,6.623,0.576,9.359h-5.473l-0.574-5.039h-0.217c-2.016,3.096-6.049,5.904-11.594,5.904
		c-7.488,0-11.449-5.473-11.449-11.162c0-9.432,8.209-14.545,22.754-14.474c0-3.312,0-10.801-8.928-10.801
		c-3.385,0-6.912,0.937-9.576,2.809l-1.441-4.104c3.168-2.088,7.561-3.312,11.953-3.312c11.09,0,13.969,7.849,13.969,15.626V57.265z
		 M341.403,46.246c-7.416,0-16.705,1.081-16.705,9.362c0,5.039,3.168,7.271,6.77,7.271c5.832,0,9.936-4.465,9.936-9.217V46.246z"/>
	<path d="M412.254,66.624h-5.904V43.942c0-7.633-2.736-12.529-8.641-12.529c-4.824,0-9.217,4.536-9.217,10.513v24.698h-5.904V42.43
		c0-6.265-2.664-11.017-8.209-11.017c-5.111,0-9.648,5.04-9.648,11.161v24.05h-5.904V37.462c0-4.033-0.145-6.913-0.289-10.153h5.258
		l0.359,6.337h0.217c2.16-3.816,5.76-7.201,11.953-7.201c5.111,0,9.072,3.169,10.729,7.849h0.145c2.592-4.68,6.551-7.849,12.6-7.849
		c4.824,0,12.457,3.097,12.457,16.562V66.624z"/>
	<path d="M449.547,57.265c0,3.24,0.072,6.623,0.576,9.359h-5.473l-0.574-5.039h-0.217c-2.016,3.096-6.049,5.904-11.594,5.904
		c-7.488,0-11.449-5.473-11.449-11.162c0-9.432,8.209-14.545,22.754-14.474c0-3.312,0-10.801-8.928-10.801
		c-3.385,0-6.912,0.937-9.576,2.809l-1.441-4.104c3.168-2.088,7.561-3.312,11.953-3.312c11.09,0,13.969,7.849,13.969,15.626V57.265z
		 M443.643,46.246c-7.416,0-16.705,1.081-16.705,9.362c0,5.039,3.168,7.271,6.77,7.271c5.832,0,9.936-4.465,9.936-9.217V46.246z"/>
	<path d="M492.748,56.903c0,3.168,0.145,7.057,0.287,9.721h-5.328l-0.287-6.695h-0.217c-2.016,4.104-6.48,7.561-12.816,7.561
		c-9.072,0-16.129-7.85-16.129-19.947c0-13.249,7.775-21.025,16.92-21.025c5.762,0,9.65,2.809,11.449,6.049h0.145V9.019h5.977
		V56.903z M486.772,43.078c0-7.849-5.545-11.737-10.586-11.737c-7.416,0-11.809,6.913-11.809,15.914
		c0,8.281,3.889,15.338,11.594,15.338c6.48,0,10.801-5.689,10.801-11.953V43.078z"/>
	<path d="M530.258,57.265c0,3.24,0.072,6.623,0.576,9.359h-5.473l-0.574-5.039h-0.217c-2.016,3.096-6.049,5.904-11.594,5.904
		c-7.488,0-11.449-5.473-11.449-11.162c0-9.432,8.209-14.545,22.754-14.474c0-3.312,0-10.801-8.928-10.801
		c-3.385,0-6.912,0.937-9.576,2.809l-1.441-4.104c3.168-2.088,7.561-3.312,11.953-3.312c11.09,0,13.969,7.849,13.969,15.626V57.265z
		 M524.354,46.246c-7.416,0-16.705,1.081-16.705,9.362c0,5.039,3.168,7.271,6.77,7.271c5.832,0,9.936-4.465,9.936-9.217V46.246z"/>
</g>
</svg>
