<?xml version="1.0" encoding="utf-8"?>
<!-- Generator: Adobe Illustrator 16.0.4, SVG Export Plug-In . SVG Version: 6.00 Build 0)  -->
<!DOCTYPE svg PUBLIC "-//W3C//DTD SVG 1.1//EN" "http://www.w3.org/Graphics/SVG/1.1/DTD/svg11.dtd">
<svg version="1.1" id="レイヤー_1" xmlns="http://www.w3.org/2000/svg" xmlns:xlink="http://www.w3.org/1999/xlink" x="0px"
	 y="0px" width="500px" height="93.5px" viewBox="0 0 500 93.5" enable-background="new 0 0 500 93.5" xml:space="preserve">
<g>
	<path d="M193.808,25.401h-16.201v49.755h-5.977V25.401h-16.129V20.36h38.307V25.401z"/>
	<path d="M202.517,29c-2.304,0-3.889-1.8-3.889-4.104c0-2.231,1.656-4.032,3.961-4.032c2.376,0,3.888,1.801,3.888,4.032
		C206.477,27.417,204.822,29,202.517,29z M205.541,75.156h-5.977V35.914h5.977V75.156z"/>
	<path d="M243.917,73.717c-1.728,0.863-5.616,2.232-10.656,2.232c-11.233,0-18.649-7.992-18.649-20.018
		c0-12.097,7.992-20.955,20.09-20.955c4.393,0,7.92,1.296,9.433,2.089l-1.513,4.824c-1.655-0.937-4.248-2.017-8.064-2.017
		c-9.072,0-13.825,7.272-13.825,15.697c0,9.506,5.688,15.482,13.609,15.482c3.889,0,6.553-1.08,8.496-1.945L243.917,73.717z"/>
	<path d="M282.726,75.156h-7.345l-13.537-19.369l-3.601,4.104v15.266h-5.977V17.551h5.977v36.652h0.145
		c0.936-1.369,2.304-3.096,3.384-4.393l11.737-13.897h7.201l-14.762,16.202L282.726,75.156z"/>
	<path d="M315.845,73.5c-2.232,1.08-6.337,2.449-12.313,2.449c-11.448,0-18.29-8.064-18.29-19.803
		c0-12.312,6.913-21.169,17.498-21.169c12.098,0,15.193,11.089,15.193,17.929c0,1.369-0.072,2.377-0.145,3.312h-26.714
		c0.072,10.873,6.265,14.979,13.321,14.979c4.896,0,7.849-1.01,10.297-2.018L315.845,73.5z M312.029,51.754
		c0.072-5.328-2.16-12.241-9.865-12.241c-7.201,0-10.369,6.841-10.945,12.241H312.029z"/>
	<path d="M328.442,28.785l5.904-2.017v9.146h10.153v4.681h-10.153v22.681c0,4.969,1.513,7.705,5.329,7.705
		c1.8,0,3.023-0.217,4.031-0.576l0.36,4.609c-1.296,0.574-3.312,0.936-5.832,0.936c-9.505,0-9.793-8.641-9.793-12.818V40.594h-6.049
		v-4.681h6.049V28.785z"/>
</g>
</svg>
