<?xml version="1.0" encoding="utf-8"?>
<!-- Generator: Adobe Illustrator 24.0.0, SVG Export Plug-In . SVG Version: 6.00 Build 0)  -->
<svg version="1.1" id="レイヤー_1" xmlns="http://www.w3.org/2000/svg" xmlns:xlink="http://www.w3.org/1999/xlink" x="0px"
	 y="0px" viewBox="-200 0 700 93.5" enable-background="new -200 0 700 93.5" xml:space="preserve">
<g>
	<path d="M-55.847,13.579c-2.9,0-4.894-2.265-4.894-5.166c0-2.809,2.085-5.075,4.985-5.075c2.991,0,4.894,2.267,4.894,5.075
		C-50.863,11.585-52.947,13.579-55.847,13.579z M-52.041,71.674h-7.522V22.28h7.522V71.674z"/>
	<path d="M2.425,71.674h-7.522V42.491c0-8.067-2.9-15.136-11.51-15.136c-6.435,0-12.96,5.438-12.96,14.048v30.27h-7.522V34.969
		c0-5.076-0.181-8.792-0.362-12.78h6.706l0.454,8.066h0.181c2.447-4.804,8.157-9.154,15.86-9.154
		c6.162,0,16.676,3.716,16.676,20.483V71.674z"/>
	<path d="M19.005,13.307l7.431-2.538V22.28h12.779v5.891H26.436V56.72c0,6.254,1.903,9.697,6.707,9.697
		c2.266,0,3.807-0.272,5.075-0.724l0.453,5.8c-1.631,0.724-4.169,1.178-7.341,1.178c-11.963,0-12.325-10.876-12.325-16.133V28.171
		h-7.613V22.28h7.613V13.307z"/>
	<path d="M84.074,69.589c-2.809,1.359-7.975,3.081-15.498,3.081c-14.41,0-23.02-10.15-23.02-24.924
		c0-15.497,8.701-26.646,22.023-26.646c15.226,0,19.123,13.957,19.123,22.567c0,1.722-0.091,2.991-0.181,4.169H52.897
		c0.091,13.685,7.885,18.852,16.767,18.852c6.163,0,9.879-1.27,12.96-2.538L84.074,69.589z M79.271,42.218
		c0.09-6.706-2.72-15.407-12.417-15.407c-9.063,0-13.051,8.61-13.776,15.407H79.271z"/>
	<path d="M120.502,28.624c-0.816-0.091-1.631-0.181-2.719-0.181c-8.157,0-12.326,8.066-12.326,16.404v26.826h-7.522V37.052
		c0-5.256-0.09-10.059-0.362-14.772h6.616l0.363,9.516h0.272c2.175-6.163,7.341-10.604,13.413-10.604
		c0.816,0,1.45,0.181,2.266,0.272V28.624z"/>
	<path d="M160.376,11.132c-1.994-1.268-6.344-3.171-12.145-3.171C138.625,7.96,135,13.85,135,18.836
		c0,6.797,4.169,10.241,13.413,14.138c11.148,4.714,16.858,10.423,16.858,20.302c0,10.967-7.976,19.395-22.84,19.395
		c-6.253,0-13.051-1.903-16.495-4.35l2.085-6.254c3.716,2.447,9.244,4.26,14.864,4.26c9.244,0,14.682-4.985,14.682-12.417
		c0-6.797-3.716-10.967-12.689-14.591c-10.423-3.898-17.491-9.97-17.491-19.486c0-10.513,8.519-18.217,21.117-18.217
		c6.526,0,11.51,1.632,14.138,3.263L160.376,11.132z"/>
	<path d="M184.117,30.617c3.444-6.072,9.155-9.516,16.858-9.516c11.692,0,20.12,10.061,20.12,25.195
		c0,18.126-10.604,26.465-21.479,26.465c-6.526,0-11.963-2.991-14.863-7.885h-0.182v27.008h-7.522V38.14
		c0-6.435-0.181-11.419-0.362-15.951h6.797l0.454,8.428H184.117z M184.57,52.007c0,9.606,7.16,14.682,13.867,14.682
		c9.697,0,15.044-8.339,15.044-20.12c0-10.241-5.165-19.305-14.772-19.305c-8.43,0-14.139,8.157-14.139,15.316V52.007z"/>
	<path d="M264.773,59.892c0,4.078,0.091,8.337,0.725,11.781h-6.888l-0.724-6.344h-0.273c-2.537,3.896-7.612,7.431-14.591,7.431
		c-9.425,0-14.411-6.888-14.411-14.048c0-11.872,10.332-18.307,28.639-18.217c0-4.168,0-13.594-11.238-13.594
		c-4.259,0-8.7,1.179-12.053,3.535l-1.813-5.166c3.987-2.628,9.516-4.169,15.045-4.169c13.957,0,17.582,9.879,17.582,19.668V59.892z
		 M257.341,46.025c-9.334,0-21.026,1.359-21.026,11.783c0,6.344,3.987,9.154,8.519,9.154c7.341,0,12.507-5.62,12.507-11.601V46.025z
		"/>
	<path d="M312.621,69.861c-2.174,1.088-7.069,2.81-13.412,2.81c-14.139,0-23.473-10.059-23.473-25.195
		c0-15.226,10.059-26.374,25.285-26.374c5.528,0,9.969,1.631,11.873,2.629l-1.904,6.072c-2.085-1.179-5.347-2.538-10.15-2.538
		c-11.42,0-17.401,9.154-17.401,19.757c0,11.963,7.16,19.486,17.129,19.486c4.893,0,8.247-1.359,10.693-2.447L312.621,69.861z"/>
	<path d="M358.114,69.589c-2.81,1.359-7.976,3.081-15.498,3.081c-14.411,0-23.02-10.15-23.02-24.924
		c0-15.497,8.7-26.646,22.023-26.646c15.226,0,19.123,13.957,19.123,22.567c0,1.722-0.091,2.991-0.181,4.169h-33.625
		c0.091,13.685,7.885,18.852,16.767,18.852c6.163,0,9.879-1.27,12.96-2.538L358.114,69.589z M353.31,42.218
		c0.09-6.706-2.719-15.407-12.417-15.407c-9.063,0-13.051,8.61-13.775,15.407H353.31z"/>
</g>
</svg>
