<?xml version="1.0" encoding="utf-8"?>
<!-- Generator: Adobe Illustrator 24.0.0, SVG Export Plug-In . SVG Version: 6.00 Build 0)  -->
<svg version="1.1" id="レイヤー_1" xmlns="http://www.w3.org/2000/svg" xmlns:xlink="http://www.w3.org/1999/xlink" x="0px"
	 y="0px" viewBox="-200 0 700 93.5" enable-background="new -200 0 700 93.5" xml:space="preserve">
<g>
	<path d="M-127.765,23.952c-0.144,0.288-0.576,0.504-0.936,0.647c-3.888,9.217-10.081,17.21-17.065,23.042
		c-1.08-0.936-3.096-2.232-4.393-2.952c6.625-4.824,11.953-11.809,14.33-17.857h-51.557v-4.896h54.292l0.792-0.36L-127.765,23.952z
		 M-155.847,37.057c-0.072,0.576-0.72,1.08-1.656,1.225c-2.088,16.993-7.921,33.194-22.754,41.764
		c-1.008-0.864-2.88-2.521-4.248-3.312c14.689-8.064,19.946-23.114,21.674-40.468L-155.847,37.057z"/>
	<path d="M-120.929,44.978h60.125v5.112h-57.389c-0.432,0.721-1.368,1.225-2.304,1.368L-120.929,44.978z"/>
	<path d="M-17.245,57.003l2.592,22.609l-5.185,0.576l-2.521-22.538l-27.002,3.457l-0.648-4.753l27.146-3.456l-1.872-16.201
		l-22.61,2.952l-0.648-4.825l22.682-2.88l-1.584-14.257l7.057-0.288c0,0.72-0.648,1.296-1.656,1.584l1.296,12.241l21.89-2.881
		l0.576,4.896l-21.89,2.809l1.872,16.129l27.074-3.384l0.648,4.752L-17.245,57.003z"/>
	<path d="M78.95,45.697H54.613l1.224,0.36c-0.144,0.432-0.647,0.792-1.439,0.864c-1.944,13.393-6.841,25.346-22.25,32.906
		c-0.864-0.936-2.664-2.664-3.889-3.6c14.978-7.201,19.153-17.282,20.81-30.531h-28.01v-4.824H78.95V45.697z M71.822,25.392H27.611
		v-4.824h44.211V25.392z"/>
	<path d="M139.862,31.08c-0.287,0.36-0.647,0.721-1.08,1.009c-7.561,23.329-19.369,38.307-39.243,48.388
		c-0.864-1.224-2.232-2.88-3.672-3.96c18.865-9.146,30.53-23.546,36.507-42.628h-25.706c-4.177,6.48-9.721,12.745-16.13,17.785
		c-1.008-1.008-2.664-2.376-4.104-3.312c9.792-7.562,18.073-18.578,22.97-31.251l6.841,1.944c-0.288,0.72-1.152,0.936-2.089,0.936
		c-1.439,3.169-2.952,6.192-4.608,9.073h25.347l0.864-0.433L139.862,31.08z"/>
	<path d="M209.99,48.362h-25.13c-1.584,13.825-6.265,24.193-20.233,32.114c-1.08-1.152-2.809-2.521-4.032-3.456
		c12.961-7.057,17.642-15.985,19.153-28.658h-29.379v-4.753h29.739c0.359-4.752,0.359-9.648,0.432-15.409
		c-7.345,1.656-16.85,3.24-24.771,4.104c-0.359-1.368-0.863-2.809-1.512-4.177c25.274-3.024,40.18-7.992,44.644-9.937l3.816,4.248
		c-0.288,0.145-0.576,0.216-0.936,0.216c-0.288,0-0.504,0-0.792-0.071c-4.032,1.512-10.441,3.384-16.13,4.752l2.376,0.216
		c-0.071,0.648-0.575,1.08-1.512,1.225c-0.072,5.4-0.144,10.297-0.432,14.833h24.697V48.362z"/>
	<path d="M268.024,41.665c-0.216,0.216-0.504,0.433-0.792,0.504c-2.881,7.417-7.777,14.617-12.961,19.946
		c-0.864-0.792-2.448-1.801-3.601-2.448c4.176-3.816,8.784-10.513,10.801-15.338l-20.162,4.465l6.625,30.747l-4.248,0.936
		l-6.625-30.747l-16.417,3.745l-0.937-4.032l16.562-3.673l-3.24-14.978l5.977-0.576c0,0.576-0.36,1.009-1.296,1.44l2.736,13.105
		l23.689-5.112l0.504-0.36L268.024,41.665z"/>
	<path d="M315.471,28.488c-0.288,0.647-0.864,1.152-1.801,1.152c-2.592,22.394-10.08,41.907-22.033,41.907
		c-6.049,0-11.521-6.049-11.521-17.426c0-17.281,13.466-31.755,32.403-31.755c20.81,0,29.811,13.178,29.811,27.219
		c0,17.138-9.938,25.418-27.362,29.45c-0.648-1.151-1.872-3.096-3.024-4.392C328.504,71.476,337,63.411,337,49.802
		c0-11.881-7.632-22.682-24.481-22.682c-0.721,0-1.513,0.072-2.16,0.144L315.471,28.488z M308.558,27.552
		c-14.545,1.801-23.546,13.825-23.546,26.427c0,7.704,3.312,12.529,6.769,12.529C300.493,66.508,306.758,47.282,308.558,27.552z"/>
	<path d="M387.615,49.226c1.513,4.753,3.601,9.073,6.192,12.817c4.969-2.952,11.018-7.129,14.689-10.297l4.608,3.385
		c-0.216,0.359-0.864,0.504-1.584,0.359c-3.96,3.024-10.081,6.913-15.337,9.721c5.256,6.193,12.169,10.657,21.025,13.033
		c-1.08,0.937-2.448,2.881-3.168,4.249c-15.914-4.896-25.635-15.985-30.819-32.259c-3.456,3.168-7.776,6.192-12.457,8.856
		l1.368,0.216c-0.071,0.433-0.432,0.792-1.368,0.937v14.905l20.738-3.169l0.216,4.104c-11.305,2.017-23.33,4.032-30.891,5.185
		c-0.072,0.576-0.504,0.937-0.936,1.08l-2.305-5.4c2.376-0.288,5.257-0.72,8.353-1.152V61.683c-4.464,2.232-9.001,4.033-13.177,5.4
		c-0.721-1.151-2.16-2.952-3.168-3.96c9.504-2.592,20.665-7.992,28.082-13.897h-27.074v-4.248h30.099v-7.272H358.74v-4.104h21.962
		v-6.913h-26.139v-4.248h26.139v-7.129l6.265,0.433c-0.072,0.504-0.433,0.864-1.368,1.008v5.688h27.002v4.248h-27.002v6.913h22.825
		v4.104h-22.825v7.272h30.458v4.248H387.615z"/>
	<path d="M425.196,31.872c5.833,0,11.161-0.504,13.537-1.08c0.145-4.32,0.216-6.696,0.504-13.249l7.417,0.576
		c-0.144,0.792-0.792,1.296-2.017,1.44c-0.287,3.168-0.575,7.633-0.72,10.297l2.232,0.864c-1.729,3.456-2.448,7.704-2.88,10.297
		c7.92-7.417,16.705-12.674,22.682-12.674c6.769,0,10.152,4.753,10.152,13.105c0,0.937-0.071,1.872-0.144,2.809
		c-0.504,6.336-1.225,15.337-1.225,21.098c0,4.32,0.505,6.624,3.528,6.624c2.16,0,6.481-2.16,9.577-4.824
		c0.145,1.44,0.72,4.393,1.008,5.473c-3.672,2.664-7.992,4.681-11.305,4.681c-6.049,0-8.064-3.601-8.064-11.089
		c0-3.745,1.296-23.546,1.296-23.618c0-6.265-2.16-9.073-5.688-9.073c-5.4,0-14.474,5.833-21.962,13.754
		c0,10.44,0,23.258,0.072,33.051h-5.041c0.072-4.177,0-24.698,0.072-29.307c-2.521,5.04-7.416,11.593-13.105,17.354l-2.592-4.537
		c5.977-5.616,12.673-14.329,15.842-21.745c0-2.089,0.071-4.032,0.144-6.337c-2.521,0.576-7.776,1.152-13.249,1.224L425.196,31.872z
		"/>
</g>
</svg>
