<?xml version="1.0" encoding="utf-8"?>
<!-- Generator: Adobe Illustrator 24.0.0, SVG Export Plug-In . SVG Version: 6.00 Build 0)  -->
<svg version="1.1" id="レイヤー_1" xmlns="http://www.w3.org/2000/svg" xmlns:xlink="http://www.w3.org/1999/xlink" x="0px"
	 y="0px" viewBox="0 0 500 93.5" style="enable-background:new 0 0 500 93.5;" xml:space="preserve">
<style type="text/css">
	.st0{enable-background:new    ;}
</style>
<g class="st0">
	<path d="M110.9,39.5c-0.1,0.3-0.5,0.6-0.9,0.7C104.1,61.9,92,72.5,70.5,78.5c-0.6-1.3-2-3.1-3-4.2c19.6-4.9,31.8-15,36.3-31.7H56.1
		v-4.9h49.8l0.7-0.4L110.9,39.5z M104.1,24.1h-41v-4.8h41V24.1z"/>
	<path d="M123.9,21.9c7.5,2.4,16.1,6.1,21.5,9.8l-2.7,4.5c-5.2-3.7-13.7-7.5-21-10L123.9,21.9z M123.6,71.8
		c25.6-7.9,42.6-22.2,51.2-42.2c1.5,1.2,3.2,2.2,4.7,3c-9,19.7-26.6,35.1-51,43.2c-0.1,0.6-0.5,1.4-1,1.7L123.6,71.8z"/>
	<path d="M231,54.5c-7.3-4-17.4-8.6-25.3-11.7v35.9h-5.4V16.1l7.3,0.4c-0.1,0.8-0.6,1.3-1.9,1.5v21.2l1.1-1.6
		c8.4,3.1,19.6,8.1,27.1,12L231,54.5z M223.4,20.5c3.3,2.7,7.6,7.3,9.9,10.6l-2.7,2.2c-2.2-3.1-6.6-7.9-9.8-10.5L223.4,20.5z
		 M233.1,14.3c3.4,2.8,7.7,7.3,9.9,10.5l-2.6,2.2c-2.2-3.1-6.6-7.8-9.9-10.5L233.1,14.3z"/>
	<path d="M312.1,27.9c-0.2,0.4-0.6,0.6-1.1,0.7c-6.7,10.2-18,21-29.1,28.9c5.5,4.5,11.1,10,14.8,14l-4.4,3.8
		c-7.6-8.9-21.7-20.7-33.9-27.9l3.5-3.7c5.1,2.9,10.9,6.7,16.1,10.7c9.7-6.9,19.6-16.2,25.3-24.6h-52.9v-4.9H307l0.9-0.4L312.1,27.9
		z"/>
	<path d="M322.1,43.7h60.1v5.1h-57.4c-0.4,0.7-1.4,1.2-2.3,1.4L322.1,43.7z"/>
	<path d="M443.9,29.8c-0.3,0.4-0.6,0.7-1.1,1c-7.6,23.3-19.4,38.3-39.2,48.4c-0.9-1.2-2.2-2.9-3.7-4c18.9-9.1,30.5-23.5,36.5-42.6
		h-25.7c-4.2,6.5-9.7,12.7-16.1,17.8c-1-1-2.7-2.4-4.1-3.3c9.8-7.6,18.1-18.6,23-31.3l6.8,1.9c-0.3,0.7-1.2,0.9-2.1,0.9
		c-1.4,3.2-3,6.2-4.6,9.1h25.3l0.9-0.4L443.9,29.8z"/>
</g>
</svg>
