<?xml version="1.0" encoding="utf-8"?>
<!-- Generator: Adobe Illustrator 16.0.4, SVG Export Plug-In . SVG Version: 6.00 Build 0)  -->
<!DOCTYPE svg PUBLIC "-//W3C//DTD SVG 1.1//EN" "http://www.w3.org/Graphics/SVG/1.1/DTD/svg11.dtd">
<svg version="1.1" id="レイヤー_1" xmlns="http://www.w3.org/2000/svg" xmlns:xlink="http://www.w3.org/1999/xlink" x="0px"
	 y="0px" width="300px" height="300px" viewBox="0 0 300 300" enable-background="new 0 0 300 300" xml:space="preserve">
<line fill="none" stroke="#221714" stroke-width="0.4851" stroke-miterlimit="10" x1="84.123" y1="285.837" x2="215.877" y2="285.837"/>
<g>
	<g>
		<g>
			<text transform="matrix(1 0 0 1 128.2803 79.5171)" font-family="'KozMinPr6N-Regular-83pv-RKSJ-H'" font-size="15.0691">設計者</text>
			
				<rect x="120.099" y="54.814" fill="none" stroke="#000000" stroke-width="0.445" stroke-miterlimit="10" width="59.803" height="39.809"/>
		</g>
		<g>
			<text transform="matrix(1 0 0 1 127.9941 249.6948)" font-family="'KozMinPr6N-Regular-83pv-RKSJ-H'" font-size="15.0691">施工者</text>
			
				<rect x="113.846" y="224.993" fill="none" stroke="#000000" stroke-width="0.445" stroke-miterlimit="10" width="72.309" height="39.808"/>
		</g>
		<text transform="matrix(1 0 0 1 131.1641 149.1357)"><tspan x="0" y="0" font-family="'KozMinPr6N-Regular-83pv-RKSJ-H'" font-size="12.5576">計画図</tspan><tspan x="-12.558" y="19.687" font-family="'KozMinPr6N-Regular-83pv-RKSJ-H'" font-size="12.5576">（表記法</tspan><tspan x="37.673" y="19.687" font-family="'KozMinPr6N-Regular-83pv-RKSJ-H'" font-size="12.5576" letter-spacing="-6">）</tspan></text>
		<line fill="none" stroke="#000000" stroke-width="0.8899" stroke-miterlimit="10" x1="150" y1="106.507" x2="150" y2="121.89"/>
		<line fill="none" stroke="#000000" stroke-width="0.8899" stroke-miterlimit="10" x1="150" y1="188.078" x2="150" y2="203.461"/>
		
			<text transform="matrix(1 0 0 1 117.9297 26.5308)" font-family="'KozMinPr6N-Regular-83pv-RKSJ-H'" font-size="15.0691" letter-spacing="1">建築の型</text>
	</g>
	
		<line fill="none" stroke="#221714" stroke-width="0.4851" stroke-miterlimit="10" x1="84.123" y1="21.893" x2="84.123" y2="286.729"/>
	
		<line fill="none" stroke="#221714" stroke-width="0.4851" stroke-miterlimit="10" x1="215.877" y1="286.729" x2="215.877" y2="21.893"/>
	
		<line fill="none" stroke="#000000" stroke-width="0.7087" stroke-miterlimit="10" x1="84.123" y1="21.893" x2="113.626" y2="21.893"/>
	
		<line fill="none" stroke="#000000" stroke-width="0.7087" stroke-miterlimit="10" x1="187.626" y1="21.893" x2="215.877" y2="21.893"/>
</g>
</svg>
