<?xml version="1.0" encoding="utf-8"?>
<!-- Generator: Adobe Illustrator 16.0.4, SVG Export Plug-In . SVG Version: 6.00 Build 0)  -->
<!DOCTYPE svg PUBLIC "-//W3C//DTD SVG 1.1//EN" "http://www.w3.org/Graphics/SVG/1.1/DTD/svg11.dtd">
<svg version="1.1" id="レイヤー_1" xmlns="http://www.w3.org/2000/svg" xmlns:xlink="http://www.w3.org/1999/xlink" x="0px"
	 y="0px" width="300px" height="300px" viewBox="0 0 300 300" enable-background="new 0 0 300 300" xml:space="preserve">
<g>
	
		<ellipse opacity="0.2" fill="#5F5F5F" stroke="#221714" stroke-width="0.3039" stroke-miterlimit="10" cx="83.904" cy="184.213" rx="39.218" ry="40.947"/>
	
		<ellipse opacity="0.2" fill="#5F5F5F" stroke="#221714" stroke-width="0.3039" stroke-miterlimit="10" cx="83.904" cy="124.69" rx="39.218" ry="40.948"/>
	<g>
		<text transform="matrix(1 0 0 1 196.3789 90.3989)" font-family="'KozMinPr6N-Regular-83pv-RKSJ-H'" font-size="13.6418">設計者</text>
		
			<rect x="188.974" y="68.037" fill="none" stroke="#000000" stroke-width="0.4028" stroke-miterlimit="10" width="54.138" height="36.037"/>
	</g>
	<g>
		<text transform="matrix(1 0 0 1 196.1201 244.4575)" font-family="'KozMinPr6N-Regular-83pv-RKSJ-H'" font-size="13.6418">施工者</text>
		
			<rect x="183.312" y="222.095" fill="none" stroke="#000000" stroke-width="0.4028" stroke-miterlimit="10" width="65.46" height="36.037"/>
	</g>
	<text transform="matrix(1 0 0 1 198.9912 153.4233)"><tspan x="0" y="0" font-family="'KozMinPr6N-Regular-83pv-RKSJ-H'" font-size="11.3682">計画図</tspan><tspan x="-11.368" y="17.822" font-family="'KozMinPr6N-Regular-83pv-RKSJ-H'" font-size="11.3682">（表記法</tspan><tspan x="34.104" y="17.822" font-family="'KozMinPr6N-Regular-83pv-RKSJ-H'" font-size="11.3682" letter-spacing="-5">）</tspan></text>
	
		<line fill="none" stroke="#000000" stroke-width="0.8056" stroke-miterlimit="10" x1="220.253" y1="114.477" x2="220.253" y2="128.402"/>
	
		<line fill="none" stroke="#000000" stroke-width="0.8056" stroke-miterlimit="10" x1="220.253" y1="188.321" x2="220.253" y2="202.247"/>
	
		<text transform="matrix(1 0 0 1 184.8057 42.4316)" font-family="'KozMinPr6N-Regular-83pv-RKSJ-H'" font-size="13.6418" letter-spacing="1">旧来の型</text>
	<text transform="matrix(1 0 0 1 62.9014 124.5962)" font-family="'KozMinPr6N-Regular-83pv-RKSJ-H'" font-size="13.6418">設計者</text>
	<text transform="matrix(1 0 0 1 65.7432 194.0767)" font-family="'KozMinPr6N-Regular-83pv-RKSJ-H'" font-size="13.6418">施工者</text>
	<text transform="matrix(1 0 0 1 66.8525 158.1089)" font-family="'KozMinPr6N-Regular-83pv-RKSJ-H'" font-size="11.3682">データ</text>
	<text transform="matrix(1 0 0 1 56.6211 42.4316)" font-family="'KozMinPr6N-Regular-83pv-RKSJ-H'" font-size="13.6418">現代の型</text>
	<text transform="matrix(1 0 0 1 123.2578 20.3594)" font-family="'KozMinPr6N-Regular-83pv-RKSJ-H'" font-size="13.6418">建築の型</text>
	
		<line fill="none" stroke="#221714" stroke-width="0.7087" stroke-miterlimit="10" x1="12.445" y1="16.161" x2="12.445" y2="291.646"/>
	
		<line fill="none" stroke="#221714" stroke-width="0.7087" stroke-miterlimit="10" x1="12.445" y1="291.646" x2="287.555" y2="291.646"/>
	
		<line fill="none" stroke="#221714" stroke-width="0.7087" stroke-miterlimit="10" x1="287.555" y1="291.646" x2="287.555" y2="16.161"/>
	
		<line fill="none" stroke="#221714" stroke-width="0.7087" stroke-miterlimit="10" x1="275.68" y1="38.233" x2="275.68" y2="277.984"/>
	<line fill="none" x1="275.68" y1="277.984" x2="199.34" y2="277.984"/>
	
		<line fill="none" stroke="#221714" stroke-width="0.7087" stroke-miterlimit="10" x1="275.68" y1="277.984" x2="156.405" y2="277.984"/>
	
		<line fill="none" stroke="#221714" stroke-width="0.7087" stroke-miterlimit="10" x1="156.405" y1="277.984" x2="156.405" y2="38.233"/>
	
		<line fill="none" stroke="#221714" stroke-width="0.7087" stroke-miterlimit="10" x1="143.001" y1="38.233" x2="143.001" y2="277.984"/>
	
		<line fill="none" stroke="#221714" stroke-width="0.7087" stroke-miterlimit="10" x1="143.001" y1="277.984" x2="23.727" y2="277.984"/>
	
		<line fill="none" stroke="#221714" stroke-width="0.7087" stroke-miterlimit="10" x1="23.727" y1="277.984" x2="23.727" y2="38.233"/>
	
		<line fill="none" stroke="#000000" stroke-width="0.4028" stroke-miterlimit="10" x1="12.445" y1="16.161" x2="111.34" y2="16.161"/>
	
		<line fill="none" stroke="#000000" stroke-width="0.4028" stroke-miterlimit="10" x1="187.007" y1="16.161" x2="287.555" y2="16.161"/>
	
		<line fill="none" stroke="#221714" stroke-width="0.7087" stroke-miterlimit="10" x1="23.727" y1="38.233" x2="49.674" y2="38.233"/>
	
		<line fill="none" stroke="#221714" stroke-width="0.7087" stroke-miterlimit="10" x1="143.001" y1="38.233" x2="116.34" y2="38.233"/>
	
		<line fill="none" stroke="#221714" stroke-width="0.7087" stroke-miterlimit="10" x1="156.405" y1="38.233" x2="182.353" y2="38.233"/>
	
		<line fill="none" stroke="#221714" stroke-width="0.7087" stroke-miterlimit="10" x1="275.68" y1="38.233" x2="249.019" y2="38.233"/>
</g>
</svg>
