<?xml version="1.0" encoding="utf-8"?>
<!-- Generator: Adobe Illustrator 16.0.4, SVG Export Plug-In . SVG Version: 6.00 Build 0)  -->
<!DOCTYPE svg PUBLIC "-//W3C//DTD SVG 1.1//EN" "http://www.w3.org/Graphics/SVG/1.1/DTD/svg11.dtd">
<svg version="1.1" id="レイヤー_1" xmlns="http://www.w3.org/2000/svg" xmlns:xlink="http://www.w3.org/1999/xlink" x="0px"
	 y="0px" width="300px" height="300px" viewBox="0 0 300 300" enable-background="new 0 0 300 300" xml:space="preserve">
<g>
	<g>
		<g>
			
				<line fill="none" stroke="#000000" stroke-width="0.7504" stroke-miterlimit="10" x1="254.383" y1="49.593" x2="254.383" y2="261.79"/>
			<g>
				<polygon points="254.383,267.088 251.332,259.622 254.383,261.394 257.433,259.622 				"/>
			</g>
		</g>
	</g>
	<rect x="242.724" y="215.753" fill="#FFFFFF" width="25.062" height="15.561"/>
	<text transform="matrix(1 0 0 1 244.8516 23.2119)"><tspan x="0" y="0" font-family="'KozMinPr6N-Regular-83pv-RKSJ-H'" font-size="9.5304">古代</tspan><tspan x="0" y="10.777" font-family="'KozMinPr6N-Regular-83pv-RKSJ-H'" font-size="9.5304">中世</tspan><tspan x="-23.826" y="21.554" font-family="'KozMinPr6N-Regular-83pv-RKSJ-H'" font-size="9.5304">初期ルネサンス</tspan></text>
	<text transform="matrix(1 0 0 1 245.7236 279.8247)" font-family="'KozMinPr6N-Regular-83pv-RKSJ-H'" font-size="9.5304">現在</text>
	<text transform="matrix(1 0 0 1 245.7236 226.9668)" font-family="'KozMinPr6N-Regular-83pv-RKSJ-H'" font-size="9.5304">近代</text>
</g>
<g>
	<text transform="matrix(1 0 0 1 29.2695 40.0947)" font-family="'KozMinPr6N-Regular-83pv-RKSJ-H'" font-size="12.7073">表記法を用いた建設方法の存在</text>
	
		<rect x="25.309" y="20.175" fill="none" stroke="#000000" stroke-width="0.3752" stroke-miterlimit="10" width="185.852" height="31.749"/>
</g>
<g>
	<text transform="matrix(1 0 0 1 73.7324 100.4526)" font-family="'KozMinPr6N-Regular-83pv-RKSJ-H'" font-size="12.7073">印刷技術の発明</text>
	
		<rect x="64.761" y="80.532" fill="none" stroke="#000000" stroke-width="0.3752" stroke-miterlimit="10" width="106.953" height="31.75"/>
</g>
<g>
	<text transform="matrix(1 0 0 1 25.1836 165.7749)" font-family="'KozMinPr6N-Regular-83pv-RKSJ-H'" font-size="12.7073">アルベルティによる計画図の定義</text>
	
		<rect x="22.251" y="144.946" fill="none" stroke="#000000" stroke-width="0.3752" stroke-miterlimit="10" width="196.504" height="33.568"/>
</g>
<g>
	<text transform="matrix(1 0 0 1 33.9756 230.79)" font-family="'KozMinPr6N-Regular-83pv-RKSJ-H'" font-size="12.7073">原作者</text>
	
		<rect x="27.078" y="209.96" fill="none" stroke="#000000" stroke-width="0.3752" stroke-miterlimit="10" width="50.429" height="33.568"/>
</g>
<g>
	<text transform="matrix(1 0 0 1 158.3887 231.208)" font-family="'KozMinPr6N-Regular-83pv-RKSJ-H'" font-size="12.7073">建設現場</text>
	
		<rect x="152.812" y="210.379" fill="none" stroke="#000000" stroke-width="0.3752" stroke-miterlimit="10" width="60.975" height="33.568"/>
</g>
<g>
	<g>
		<g>
			<g>
				
					<line fill="none" stroke="#000000" stroke-width="0.6831" stroke-miterlimit="10" x1="100.147" y1="187.576" x2="88.433" y2="199.291"/>
				<g>
					<polygon points="85.022,202.701 87.864,195.932 88.688,199.036 91.791,199.858 					"/>
				</g>
			</g>
		</g>
	</g>
	<g>
		<g>
			<g>
				
					<line fill="none" stroke="#000000" stroke-width="0.6831" stroke-miterlimit="10" x1="133.196" y1="187.576" x2="144.91" y2="199.291"/>
				<g>
					<polygon points="148.32,202.701 141.552,199.859 144.655,199.036 145.479,195.933 					"/>
				</g>
			</g>
		</g>
	</g>
</g>
<g>
	<g>
		<g>
			
				<line fill="none" stroke="#000000" stroke-width="0.6831" stroke-miterlimit="10" x1="118.221" y1="118.877" x2="118.221" y2="135.444"/>
			<g>
				<polygon points="118.221,140.267 115.443,133.471 118.221,135.083 120.997,133.471 				"/>
			</g>
		</g>
	</g>
</g>
<g>
	<g>
		<g>
			
				<line fill="none" stroke="#000000" stroke-width="0.6831" stroke-miterlimit="10" x1="118.221" y1="55.417" x2="118.221" y2="71.983"/>
			<g>
				<polygon points="118.221,76.806 115.443,70.01 118.221,71.623 120.997,70.01 				"/>
			</g>
		</g>
	</g>
</g>
<text transform="matrix(1 0 0 1 100.7861 224.772)"><tspan x="0" y="0" font-family="'KozMinPr6N-Regular-83pv-RKSJ-H'" font-size="10.5894">計画図</tspan><tspan x="-10.59" y="16.601" font-family="'KozMinPr6N-Regular-83pv-RKSJ-H'" font-size="10.5894">（表記法</tspan><tspan x="31.77" y="16.601" font-family="'KozMinPr6N-Regular-83pv-RKSJ-H'" font-size="10.5894" letter-spacing="-5">）</tspan></text>
<line fill="none" stroke="#000000" stroke-width="0.7504" stroke-miterlimit="10" x1="82.221" y1="226.744" x2="95.193" y2="226.744"/>
<line fill="none" stroke="#000000" stroke-width="0.7504" stroke-miterlimit="10" x1="136.938" y1="226.744" x2="149.909" y2="226.744"/>
</svg>
