<?xml version="1.0" encoding="utf-8"?>
<!-- Generator: Adobe Illustrator 16.0.4, SVG Export Plug-In . SVG Version: 6.00 Build 0)  -->
<!DOCTYPE svg PUBLIC "-//W3C//DTD SVG 1.1//EN" "http://www.w3.org/Graphics/SVG/1.1/DTD/svg11.dtd">
<svg version="1.1" id="レイヤー_1" xmlns="http://www.w3.org/2000/svg" xmlns:xlink="http://www.w3.org/1999/xlink" x="0px"
	 y="0px" width="500px" height="500px" viewBox="0 0 500 500" enable-background="new 0 0 500 500" xml:space="preserve">
<g>
	<path fill="none" stroke="#000000" stroke-width="4" stroke-miterlimit="10" d="M341.274,230.054h29.455v126.674
		c0,7.727-6.275,14.004-14.005,14.004H143.272c-7.728,0-14.002-6.277-14.002-14.004V230.054h29.455
		c-1.399,6.425-2.157,13.098-2.157,19.949c0,51.605,41.825,93.429,93.429,93.429c51.607,0,93.432-41.824,93.432-93.429
		C343.429,243.151,342.673,236.479,341.274,230.054L341.274,230.054z M249.997,312.935c34.758,0,62.938-28.177,62.938-62.933
		c0-34.756-28.179-62.927-62.938-62.927c-34.756,0-62.933,28.17-62.933,62.927C187.064,284.758,215.241,312.935,249.997,312.935
		L249.997,312.935z M325.398,185.365h23.964c7.031,0,12.729-5.69,12.729-12.719v-23.964c0-7.029-5.698-12.729-12.729-12.729h-23.964
		c-7.03,0-12.719,5.699-12.719,12.729v23.964C312.679,179.675,318.368,185.365,325.398,185.365L325.398,185.365z M484.815,15.185
		v469.631H15.184V15.185H484.815z M399.579,138.153c0-20.835-16.896-37.73-37.723-37.73H138.153
		c-20.834,0-37.735,16.896-37.735,37.73v223.705c0,20.825,16.901,37.723,37.735,37.723h223.703
		c20.827,0,37.723-16.898,37.723-37.723V138.153z M399.579,138.153"/>
</g>
<g display="none">
	
		<path display="inline" fill-rule="evenodd" clip-rule="evenodd" fill="none" stroke="#000000" stroke-width="4" stroke-miterlimit="10" d="
		M16.318,16.318v467.363h467.363V16.318H16.318z M378.652,184.011c0.127,2.849,0.188,5.714,0.188,8.592
		c0,87.721-66.764,188.866-188.866,188.866c-37.484,0-72.378-10.984-101.752-29.82c5.191,0.616,10.477,0.929,15.832,0.929
		c31.099,0,59.726-10.607,82.445-28.417c-29.049-0.531-53.565-19.727-62.015-46.099c4.053,0.778,8.214,1.194,12.493,1.194
		c6.051,0,11.919-0.818,17.486-2.332c-30.365-6.099-53.25-32.927-53.25-65.093c0-0.275,0-0.556,0.005-0.831
		c8.952,4.97,19.184,7.958,30.069,8.3c-17.816-11.903-29.529-32.219-29.529-55.25c0-12.169,3.272-23.568,8.99-33.375
		c32.735,40.166,81.651,66.592,136.825,69.361c-1.139-4.86-1.727-9.927-1.727-15.126c0-36.66,29.727-66.381,66.384-66.381
		c19.095,0,36.342,8.06,48.454,20.96c15.117-2.975,29.327-8.501,42.149-16.104c-4.956,15.497-15.479,28.507-29.186,36.722
		c13.429-1.604,26.224-5.175,38.129-10.455C402.881,162.961,391.625,174.657,378.652,184.011L378.652,184.011z M378.652,184.011"/>
</g>
<g display="none">
	<path display="inline" fill="none" stroke="#040000" stroke-width="4" stroke-miterlimit="10" d="M16.318,16.318v467.363h248.897
		V303.149h-60.845v-73.7h60.845v-61.892c0-45.017,36.487-81.507,81.5-81.507h63.609v66.274h-45.511
		c-14.309,0-25.899,11.593-25.899,25.899v51.226h70.272l-9.715,73.7h-60.558v180.532h144.767V16.318H16.318z M16.318,16.318"/>
</g>
</svg>
